<!-- Created with Inkscape (http://www.inkscape.org/) --><svg xmlns:dc="http://purl.org/dc/elements/1.1/" xmlns:cc="http://creativecommons.org/ns#" xmlns:rdf="http://www.w3.org/1999/02/22-rdf-syntax-ns#" xmlns:svg="http://www.w3.org/2000/svg" xmlns="http://www.w3.org/2000/svg" xmlns:xlink="http://www.w3.org/1999/xlink" xmlns:sodipodi="http://sodipodi.sourceforge.net/DTD/sodipodi-0.dtd" xmlns:inkscape="http://www.inkscape.org/namespaces/inkscape" width="297mm" height="210mm" viewBox="0 0 297 210" version="1.1" id="svg8" inkscape:version="0.92.5 (2060ec1f9f, 2020-04-08)" sodipodi:docname="website-banner.tar">
  <defs id="defs2">
    <linearGradient inkscape:collect="always" id="linearGradient5464">
      <stop style="stop-color:#000000;stop-opacity:1" offset="0" id="stop5460"/>
      <stop style="stop-color:#a664f2;stop-opacity:1" offset="1" id="stop5462"/>
    </linearGradient>
    <linearGradient inkscape:collect="always" id="linearGradient5438">
      <stop style="stop-color:#000000;stop-opacity:1;" offset="0" id="stop5434"/>
      <stop style="stop-color:#000000;stop-opacity:0;" offset="1" id="stop5436"/>
    </linearGradient>
    <linearGradient inkscape:collect="always" id="linearGradient4953">
      <stop style="stop-color:#e9afaf;stop-opacity:1;" offset="0" id="stop4949"/>
      <stop style="stop-color:#ffccaa;stop-opacity:1" offset="1" id="stop4951"/>
    </linearGradient>
    <linearGradient inkscape:collect="always" id="linearGradient4886">
      <stop style="stop-color:#9955ff;stop-opacity:1" offset="0" id="stop4882"/>
      <stop style="stop-color:#e9afaf;stop-opacity:1" offset="1" id="stop4884"/>
    </linearGradient>
    <linearGradient inkscape:collect="always" id="linearGradient4752">
      <stop style="stop-color:#e9afaf;stop-opacity:1;" offset="0" id="stop4748"/>
      <stop style="stop-color:#e9afaf;stop-opacity:0;" offset="1" id="stop4750"/>
    </linearGradient>
    <linearGradient inkscape:collect="always" id="linearGradient4615">
      <stop style="stop-color:#00aad4;stop-opacity:1;" offset="0" id="stop4611"/>
      <stop style="stop-color:#00aad4;stop-opacity:0;" offset="1" id="stop4613"/>
    </linearGradient>
    <linearGradient inkscape:collect="always" xlink:href="#linearGradient4615" id="linearGradient4617" x1="0.2672686" y1="148.66547" x2="115.19317" y2="148.66547" gradientUnits="userSpaceOnUse" gradientTransform="matrix(1.2773669,0,0,1.0012725,-298.0401,-0.62729551)"/>
    <linearGradient inkscape:collect="always" xlink:href="#linearGradient4752" id="linearGradient4758" x1="0" y1="28.672234" x2="287.30127" y2="28.108894" gradientUnits="userSpaceOnUse" gradientTransform="matrix(0.11510382,0,0,5.1792278,72.147691,-104.90837)"/>
    <linearGradient inkscape:collect="always" xlink:href="#linearGradient4886" id="linearGradient4888" x1="176.97427" y1="-73.931335" x2="176.94287" y2="-45.133923" gradientUnits="userSpaceOnUse" gradientTransform="matrix(5.2784051,0,0,1.1310295,-784.02687,117.14537)"/>
    <linearGradient inkscape:collect="always" xlink:href="#linearGradient4953" id="linearGradient4955" x1="101.6756" y1="220.9613" x2="102.34228" y2="253.08928" gradientUnits="userSpaceOnUse" gradientTransform="translate(47.625001,-155.34821)"/>
    <linearGradient inkscape:collect="always" xlink:href="#linearGradient4953" id="linearGradient5115" gradientUnits="userSpaceOnUse" gradientTransform="translate(46.869049,-154.59226)" x1="101.6756" y1="220.9613" x2="102.34228" y2="253.08928"/>
    <linearGradient inkscape:collect="always" xlink:href="#linearGradient5438" id="linearGradient5440" x1="148.60185" y1="210" x2="148.60185" y2="185.01031" gradientUnits="userSpaceOnUse" gradientTransform="matrix(1,0,0,2.2736843,0,-267.81412)"/>
    <linearGradient inkscape:collect="always" xlink:href="#linearGradient5464" id="linearGradient6511" gradientUnits="userSpaceOnUse" gradientTransform="matrix(6.1153848,0,0,1.7625648,369.35461,-19.445566)" x1="-35.852776" y1="10.991319" x2="-35.814114" y2="32.933941"/>
    <linearGradient inkscape:collect="always" xlink:href="#linearGradient4953" id="linearGradient5115-4" gradientUnits="userSpaceOnUse" gradientTransform="matrix(1.0012599,0,0,1,46.976494,-154.61785)" x1="101.6756" y1="220.9613" x2="102.34228" y2="253.08928"/>
    <linearGradient inkscape:collect="always" xlink:href="#linearGradient4886" id="linearGradient4888-9" x1="176.97427" y1="-73.931335" x2="176.94287" y2="-45.133923" gradientUnits="userSpaceOnUse" gradientTransform="matrix(5.2784052,0,0,1.1310295,-783.97915,116.44996)"/>
    <linearGradient inkscape:collect="always" xlink:href="#linearGradient5464" id="linearGradient6511-0" gradientUnits="userSpaceOnUse" gradientTransform="matrix(6.1153849,0,0,1.7625648,369.16474,-18.963293)" x1="-35.852776" y1="10.991319" x2="-35.814114" y2="32.933941"/>
    <linearGradient inkscape:collect="always" xlink:href="#linearGradient5438" id="linearGradient5440-7-3" x1="148.60185" y1="210" x2="148.60185" y2="185.01031" gradientUnits="userSpaceOnUse" gradientTransform="matrix(1,0,0,2.2736843,0.1918531,-267.99132)"/>
  </defs>
  <sodipodi:namedview id="base" pagecolor="#ffffff" bordercolor="#666666" borderopacity="1.0" inkscape:pageopacity="0.0" inkscape:pageshadow="2" inkscape:zoom="1" inkscape:cx="594.71626" inkscape:cy="413.64208" inkscape:document-units="mm" inkscape:current-layer="layer11" showgrid="false" showguides="false" inkscape:snap-global="true" inkscape:lockguides="false" inkscape:guide-bbox="true" inkscape:snap-page="true" inkscape:snap-grids="true" inkscape:object-nodes="false" inkscape:snap-bbox="true" inkscape:snap-to-guides="true" inkscape:snap-nodes="false" inkscape:window-width="1920" inkscape:window-height="1051" inkscape:window-x="-9" inkscape:window-y="-9" inkscape:window-maximized="1">
    <inkscape:grid type="xygrid" id="grid10"/>
    <sodipodi:guide position="305.78274,151.56845" orientation="0,1" id="guide3728" inkscape:locked="false"/>
  </sodipodi:namedview>
  <metadata id="metadata5">
    <rdf:RDF>
      <cc:Work rdf:about="">
        <dc:format>image/svg+xml</dc:format>
        <dc:type rdf:resource="http://purl.org/dc/dcmitype/StillImage"/>
        <dc:title/>
      </cc:Work>
    </rdf:RDF>
  </metadata>
  <svg:g inkscape:groupmode="layer" id="layer7" inkscape:label="dark-grass" sodipodi:insensitive="true">
    <svg:rect style="opacity:1;fill:#447821;fill-opacity:1;stroke:none;stroke-width:13.6286335;stroke-miterlimit:4;stroke-dasharray:none;stroke-opacity:0" id="rect5128" width="297.08929" height="62.744049" x="0.0037564316" y="147.6398"/>
    <svg:path style="opacity:1;fill:#447821;fill-opacity:1;stroke:none;stroke-width:1.64003766;stroke-miterlimit:4;stroke-dasharray:none;stroke-opacity:0" d="m 9.7938545,103.19444 c -1.0236484,0.0215 -2.0339272,0.67918 -2.7915609,1.96835 l -3.5878943,6.10506 c -1.5152679,2.57834 -1.4289529,6.67668 0.19327,9.1891 l 3.1998042,4.95577 c 0.550679,0.85287 1.2057511,1.40907 1.8898076,1.67225 v 20.58738 c 0,0.50557 0.3372287,0.9126 0.7560257,0.9126 0.4187977,0 0.7560262,-0.40703 0.7560262,-0.9126 v -20.47989 c 0.836362,-0.20008 1.635104,-0.83297 2.26136,-1.89859 l 3.587896,-6.10506 c 1.515268,-2.57834 1.428953,-6.67668 -0.19327,-9.1891 l -3.199806,-4.95577 c -0.811111,-1.25621 -1.84801,-1.87101 -2.8716585,-1.8495 z" id="rect5152" inkscape:connector-curvature="0"/>
    <svg:path inkscape:connector-curvature="0" style="opacity:1;fill:#447821;fill-opacity:1;stroke:none;stroke-width:1.42581964;stroke-miterlimit:4;stroke-dasharray:none;stroke-opacity:0" d="m 19.571145,118.82881 c -0.879948,0.0189 -1.748403,0.59719 -2.399676,1.7307 l -3.084228,5.3679 c -1.302554,2.26702 -1.22835,5.87052 0.166139,8.07958 l 2.750618,4.35741 c 0.473366,0.74987 1.036485,1.23893 1.624507,1.47033 v 18.10159 c 0,0.44453 0.289889,0.80241 0.649898,0.80241 0.360008,0 0.649897,-0.35788 0.649897,-0.80241 v -18.00708 c 0.718951,-0.17592 1.405561,-0.7324 1.943907,-1.66936 l 3.084217,-5.36791 c 1.302554,-2.26702 1.22835,-5.87051 -0.16614,-8.07958 l -2.750607,-4.3574 c -0.697245,-1.10452 -1.588583,-1.6451 -2.468532,-1.62618 z" id="rect5152-1"/>
    <svg:path style="fill:#447821;fill-opacity:1;stroke:none;stroke-width:0.19715683px;stroke-linecap:butt;stroke-linejoin:miter;stroke-opacity:1" d="m 25.446301,146.5925 c -3.773935,-9.86543 7.167419,-2.08938 7.897209,-2.08938 0.117268,0 2.114774,-4.49413 4.70795,-4.04817 2.194756,0.37743 3.256341,3.07638 3.34113,3.00347 1.324078,-1.13851 1.719921,-5.37606 6.07478,-4.43992 3.502866,0.75299 1.120391,6.57858 1.214951,6.65989 0.200321,0.17225 2.687656,-1.21482 3.493,-0.52234 1.751245,1.50582 -0.492313,3.54161 -1.974308,4.17876 -5.510932,2.36932 -11.339756,2.08939 -17.920583,2.08939 -7.513116,0 -4.761029,-3.81309 -7.897217,-5.35405" id="path5207" inkscape:connector-curvature="0"/>
    <svg:path style="opacity:1;fill:#447821;fill-opacity:1;stroke:none;stroke-width:0.05524425;stroke-miterlimit:4;stroke-dasharray:none;stroke-opacity:1" d="m 181.60014,101.47889 -7.71787,26.71982 2.97656,-0.004 -4.1491,8.01036 7.41608,-0.005 v 17.9958 c 0,0.97986 0.65531,1.76837 1.46968,1.76837 0.81437,0 1.47019,-0.78851 1.47019,-1.76837 v -17.99786 l 8.80877,-0.006 0.0165,-0.0315 -4.52995,-7.97833 2.66547,-0.003 0.0134,-0.0481 z" id="path5248" inkscape:connector-curvature="0"/>
    <svg:path inkscape:connector-curvature="0" style="opacity:1;fill:#447821;fill-opacity:1;stroke:none;stroke-width:0.04099203;stroke-miterlimit:4;stroke-dasharray:none;stroke-opacity:1" d="m 170.68666,112.55221 -5.35199,21.21488 2.06411,-0.003 -2.87721,6.36003 5.14271,-0.004 v 14.28822 c 0,0.77798 0.45443,1.40404 1.01915,1.40404 0.56473,0 1.01951,-0.62606 1.01951,-1.40404 v -14.28982 l 6.10848,-0.005 0.0114,-0.025 -3.14131,-6.33459 1.84838,-0.002 0.009,-0.0382 z" id="path5248-9"/>
    <svg:path inkscape:connector-curvature="0" style="opacity:1;fill:#447821;fill-opacity:1;stroke:none;stroke-width:0.04642536;stroke-miterlimit:4;stroke-dasharray:none;stroke-opacity:1" d="m 194.39558,112.5522 -6.2123,23.44307 2.3959,-0.004 -3.33971,7.02803 5.96939,-0.004 v 15.78891 c 0,0.85969 0.52747,1.55151 1.18298,1.55151 0.65551,0 1.1834,-0.69182 1.1834,-1.55151 v -15.79069 l 7.0904,-0.005 0.0133,-0.0276 -3.64627,-6.99991 2.14549,-0.003 0.0108,-0.0422 z" id="path5248-1"/>
    <svg:path style="fill:#447821;fill-opacity:1;stroke:none;stroke-width:0.1499752px;stroke-linecap:butt;stroke-linejoin:miter;stroke-opacity:1" d="m 75.249626,138.86384 c -0.171789,-0.23866 -1.265047,-0.15083 -1.722586,-0.10709 -1.678467,0.16045 -2.963283,0.67335 -4.363157,1.99313 -0.83676,0.78889 -1.546436,1.7394 -2.202307,2.75854 -0.0073,-0.0972 -0.01381,-0.1923 -0.02164,-0.29071 -0.06339,-0.79691 0.09883,-4.71016 -0.314846,-5.29567 -0.350739,-0.49642 -0.05543,3.92068 -1.244303,7.42812 -0.126336,0.37272 -0.342035,0.772 -0.581409,1.15669 -0.16795,-1.7635 -0.478756,-3.78178 -0.606716,-5.39043 -0.01887,-0.2371 0.09324,-3.06507 -0.191458,-3.07924 -0.0063,-2.7e-4 -1.140611,3.60446 -1.547453,4.95726 -1.239967,4.12303 0.08033,0.22924 -1.845273,5.55638 0.327309,0.0781 4.298448,0.23775 4.299146,0.2142 7.94e-4,-0.0267 2.3e-4,-0.0561 7.94e-4,-0.0833 0.592831,0.11989 1.032494,0.034 1.353714,-0.2161 2.876765,0.0995 1.04987,-0.61045 4.832485,-6.51453 1.364877,-2.13034 3.450847,-2.06675 4.107519,-2.86527 0.07764,-0.0944 0.08714,-0.16692 0.0475,-0.22199 z" id="path5336" inkscape:connector-curvature="0"/>
    <svg:path style="fill:#447821;fill-opacity:1;stroke:none;stroke-width:0.1499752px;stroke-linecap:butt;stroke-linejoin:miter;stroke-opacity:1" d="m 83.066121,142.70797 c -0.171791,-0.23866 -1.265047,-0.15083 -1.722586,-0.10709 -1.678466,0.16045 -2.963285,0.67335 -4.363156,1.99313 -0.836761,0.78889 -1.546434,1.7394 -2.202307,2.75854 -0.0073,-0.0972 -0.01381,-0.1923 -0.02164,-0.29071 -0.06339,-0.79691 0.09883,-4.71016 -0.314844,-5.29567 -0.350739,-0.49642 -0.05543,3.92068 -1.244303,7.42812 -0.126336,0.37272 -0.342035,0.772 -0.581409,1.15669 -0.16795,-1.7635 -0.478756,-3.78178 -0.606716,-5.39043 -0.01886,-0.2371 0.09324,-3.06507 -0.191458,-3.07924 -0.0063,-2.7e-4 -1.140611,3.60446 -1.547452,4.95726 -1.239968,4.12303 0.08033,0.22924 -1.845276,5.55638 0.327311,0.0781 4.29845,0.23775 4.299151,0.2142 7.94e-4,-0.0267 2.25e-4,-0.0561 7.94e-4,-0.0833 0.59283,0.11989 1.032497,0.034 1.353717,-0.2161 2.876764,0.0995 1.049869,-0.61045 4.832482,-6.51452 1.364877,-2.13035 3.450847,-2.06676 4.107519,-2.86528 0.07764,-0.0944 0.08714,-0.16692 0.0475,-0.22199 z" id="path5336-3" inkscape:connector-curvature="0"/>
    <svg:path style="fill:#447821;fill-opacity:1;stroke:none;stroke-width:0.1499752px;stroke-linecap:butt;stroke-linejoin:miter;stroke-opacity:1" d="m 78.60414,140.83709 c 0.171789,-0.23866 1.265039,-0.15083 1.72258,-0.10709 1.678472,0.16045 2.963291,0.67335 4.363162,1.99313 0.836758,0.78889 1.546439,1.7394 2.20231,2.75854 0.007,-0.0972 0.01381,-0.1923 0.02159,-0.29071 0.0634,-0.79691 -0.0988,-4.71016 0.314841,-5.29567 0.350739,-0.49642 0.0554,3.92068 1.244301,7.42812 0.126338,0.37272 0.34204,0.772 0.581408,1.15669 0.16795,-1.7635 0.478761,-3.78178 0.606722,-5.39043 0.01889,-0.2371 -0.0932,-3.06507 0.19146,-3.07924 0.006,-2.7e-4 1.140608,3.60446 1.54745,4.95726 1.23997,4.12303 -0.0803,0.22924 1.845268,5.55638 -0.327298,0.0781 -4.29845,0.23775 -4.299138,0.2142 -7.94e-4,-0.0267 -2.3e-4,-0.0561 -7.94e-4,-0.0833 -0.592828,0.11989 -1.032489,0.034 -1.353709,-0.2161 -2.876769,0.0995 -1.049869,-0.61045 -4.83249,-6.51452 -1.364869,-2.13035 -3.450841,-2.06676 -4.107511,-2.86528 -0.0776,-0.0944 -0.0871,-0.16692 -0.0475,-0.22199 z" id="path5336-0" inkscape:connector-curvature="0"/>
    <svg:path style="fill:#447821;fill-opacity:1;stroke:none;stroke-width:0.1499752px;stroke-linecap:butt;stroke-linejoin:miter;stroke-opacity:1" d="m 130.45445,138.69893 c 0.1718,-0.23866 1.26505,-0.15083 1.72259,-0.10709 1.67847,0.16045 2.96329,0.67335 4.36316,1.99313 0.83676,0.78889 1.54643,1.7394 2.2023,2.75854 0.007,-0.0972 0.0138,-0.1923 0.0216,-0.29071 0.0634,-0.79691 -0.0988,-4.71016 0.31485,-5.29567 0.35074,-0.49642 0.0554,3.92068 1.2443,7.42812 0.12634,0.37272 0.34204,0.772 0.58141,1.15669 0.16795,-1.7635 0.47876,-3.78178 0.60672,-5.39043 0.0189,-0.2371 -0.0932,-3.06507 0.19145,-3.07924 0.006,-2.7e-4 1.14061,3.60446 1.54746,4.95726 1.23996,4.12303 -0.0803,0.22924 1.84527,5.55638 -0.32731,0.0781 -4.29845,0.23775 -4.29915,0.2142 -8e-4,-0.0267 -2.2e-4,-0.0561 -8e-4,-0.0833 -0.59283,0.11988 -1.0325,0.034 -1.35372,-0.2161 -2.87676,0.0995 -1.04986,-0.61045 -4.83248,-6.51452 -1.36488,-2.13035 -3.45085,-2.06676 -4.10752,-2.86528 -0.0776,-0.0944 -0.0871,-0.16692 -0.0475,-0.22199 z" id="path5336-4" inkscape:connector-curvature="0"/>
    <svg:path style="fill:#447821;fill-opacity:1;stroke:none;stroke-width:0.1499752px;stroke-linecap:butt;stroke-linejoin:miter;stroke-opacity:1" d="m 156.03073,139.76801 c -0.1718,-0.23866 -1.26505,-0.15083 -1.72259,-0.10709 -1.67847,0.16045 -2.96329,0.67335 -4.36316,1.99313 -0.83676,0.78889 -1.54643,1.7394 -2.2023,2.75854 -0.007,-0.0972 -0.0138,-0.1923 -0.0216,-0.29071 -0.0634,-0.79691 0.0988,-4.71016 -0.31485,-5.29567 -0.35074,-0.49642 -0.0554,3.92068 -1.2443,7.42812 -0.12634,0.37272 -0.34204,0.772 -0.58141,1.15669 -0.16795,-1.7635 -0.47876,-3.78178 -0.60672,-5.39043 -0.0189,-0.2371 0.0932,-3.06507 -0.19145,-3.07924 -0.006,-2.7e-4 -1.14061,3.60446 -1.54746,4.95726 -1.23996,4.12303 0.0803,0.22924 -1.84527,5.55638 0.32731,0.0781 4.29845,0.23775 4.29915,0.2142 7.9e-4,-0.0267 2.2e-4,-0.0561 7.9e-4,-0.0833 0.59283,0.11989 1.0325,0.034 1.35372,-0.2161 2.87676,0.0995 1.04986,-0.61045 4.83248,-6.51452 1.36488,-2.13035 3.45085,-2.06676 4.10752,-2.86528 0.0776,-0.0944 0.0871,-0.16692 0.0475,-0.22199 z" id="path5336-04" inkscape:connector-curvature="0"/>
    <svg:path style="fill:#447821;fill-opacity:1;stroke:none;stroke-width:0.10152321px;stroke-linecap:butt;stroke-linejoin:miter;stroke-opacity:1" d="m 135.2024,147.35462 c 1.68081,-5.87353 -3.19218,-1.24395 -3.51721,-1.24395 -0.0522,0 -0.94186,-2.67564 -2.09679,-2.41014 -0.97749,0.22471 -1.45029,1.83157 -1.48805,1.78817 -0.58971,-0.67783 -0.76601,-3.20072 -2.70554,-2.64338 -1.56009,0.44831 -0.49899,3.91666 -0.54111,3.96507 -0.0892,0.10255 -1.19701,-0.72326 -1.55569,-0.31099 -0.77996,0.89652 0.21927,2.10855 0.8793,2.48789 2.45443,1.41061 5.05043,1.24395 7.98135,1.24395 3.34614,0 2.12043,-2.27018 3.51721,-3.18761" id="path5207-0" inkscape:connector-curvature="0"/>
  </svg:g>
  </svg>