<?xml version="1.0" encoding="UTF-8" standalone="no"?>
<!-- Created with Inkscape (http://www.inkscape.org/) -->

<svg
   xmlns:dc="http://purl.org/dc/elements/1.1/"
   xmlns:cc="http://creativecommons.org/ns#"
   xmlns:rdf="http://www.w3.org/1999/02/22-rdf-syntax-ns#"
   xmlns:svg="http://www.w3.org/2000/svg"
   xmlns="http://www.w3.org/2000/svg"
   xmlns:sodipodi="http://sodipodi.sourceforge.net/DTD/sodipodi-0.dtd"
   xmlns:inkscape="http://www.inkscape.org/namespaces/inkscape"
   width="132.00002mm"
   height="29.00001mm"
   viewBox="0 0 132.00002 29.000009"
   version="1.1"
   id="svg8"
   inkscape:version="0.92.5 (2060ec1f9f, 2020-04-08)"
   sodipodi:docname="experience.svg">
  <defs
     id="defs2" />
  <sodipodi:namedview
     id="base"
     pagecolor="#ffffff"
     bordercolor="#666666"
     borderopacity="1.0"
     inkscape:pageopacity="0.0"
     inkscape:pageshadow="2"
     inkscape:zoom="1.4"
     inkscape:cx="205.27951"
     inkscape:cy="184.09274"
     inkscape:document-units="mm"
     inkscape:current-layer="layer1"
     showgrid="false"
     showguides="false"
     inkscape:object-nodes="false"
     inkscape:window-width="1920"
     inkscape:window-height="1051"
     inkscape:window-x="-9"
     inkscape:window-y="-9"
     inkscape:window-maximized="1" />
  <metadata
     id="metadata5">
    <rdf:RDF>
      <cc:Work
         rdf:about="">
        <dc:format>image/svg+xml</dc:format>
        <dc:type
           rdf:resource="http://purl.org/dc/dcmitype/StillImage" />
        <dc:title />
      </cc:Work>
    </rdf:RDF>
  </metadata>
  <g
     inkscape:label="Layer 1"
     inkscape:groupmode="layer"
     id="layer1"
     transform="translate(0,-267.99999)">
    <flowRoot
       xml:space="preserve"
       id="flowRoot52"
       style="font-style:normal;font-variant:normal;font-weight:normal;font-stretch:normal;font-size:40px;line-height:1.25;font-family:'Segoe Print';-inkscape-font-specification:'Segoe Print';letter-spacing:0px;word-spacing:0px;fill:#000000;fill-opacity:1;stroke:none"
       transform="scale(0.26458333)"><flowRegion
         id="flowRegion54"><rect
           id="rect56"
           width="422.85715"
           height="131.42857"
           x="41.42857"
           y="79.662544" /></flowRegion><flowPara
         id="flowPara58" /></flowRoot>    <flowRoot
       xml:space="preserve"
       id="flowRoot66"
       style="font-style:normal;font-variant:normal;font-weight:normal;font-stretch:normal;font-size:40px;line-height:1.25;font-family:'Segoe Print';-inkscape-font-specification:'Segoe Print';letter-spacing:0px;word-spacing:0px;fill:#000000;fill-opacity:1;stroke:none"
       transform="scale(0.26458333)"><flowRegion
         id="flowRegion68"><rect
           id="rect70"
           width="621.42859"
           height="154.28572"
           x="71.428574"
           y="222.51968" /></flowRegion><flowPara
         id="flowPara72" /></flowRoot>    <flowRoot
       xml:space="preserve"
       id="flowRoot74"
       style="font-style:normal;font-variant:normal;font-weight:normal;font-stretch:normal;font-size:40px;line-height:1.25;font-family:'Segoe Print';-inkscape-font-specification:'Segoe Print';letter-spacing:0px;word-spacing:0px;fill:#000000;fill-opacity:1;stroke:none"
       transform="scale(0.26458333)"><flowRegion
         id="flowRegion76"><rect
           id="rect78"
           width="474.28571"
           height="195.71428"
           x="112.85714"
           y="191.09111" /></flowRegion><flowPara
         id="flowPara80" /></flowRoot>    <flowRoot
       xml:space="preserve"
       id="flowRoot82"
       style="font-style:normal;font-variant:normal;font-weight:normal;font-stretch:normal;font-size:40px;line-height:1.25;font-family:'Segoe Print';-inkscape-font-specification:'Segoe Print';letter-spacing:0px;word-spacing:0px;fill:#000000;fill-opacity:1;stroke:none"
       transform="scale(0.26458333)"><flowRegion
         id="flowRegion84"><rect
           id="rect86"
           width="182.85715"
           height="327.14285"
           x="32.857143"
           y="1.091113" /></flowRegion><flowPara
         id="flowPara88" /></flowRoot>    <flowRoot
       xml:space="preserve"
       id="flowRoot90"
       style="font-style:normal;font-variant:normal;font-weight:normal;font-stretch:normal;font-size:40px;line-height:1.25;font-family:'Segoe Print';-inkscape-font-specification:'Segoe Print';letter-spacing:0px;word-spacing:0px;fill:#000000;fill-opacity:1;stroke:none"
       transform="scale(0.26458333)"><flowRegion
         id="flowRegion92"><rect
           id="rect94"
           width="212.85715"
           height="118.57143"
           x="122.85714"
           y="279.66254" /></flowRegion><flowPara
         id="flowPara96" /></flowRoot>    <flowRoot
       xml:space="preserve"
       id="flowRoot98"
       style="font-style:normal;font-variant:normal;font-weight:normal;font-stretch:normal;font-size:40px;line-height:1.25;font-family:'Segoe Print';-inkscape-font-specification:'Segoe Print';letter-spacing:0px;word-spacing:0px;fill:#000000;fill-opacity:1;stroke:none"
       transform="scale(0.26458333)"><flowRegion
         id="flowRegion100"><rect
           id="rect102"
           width="725.71429"
           height="182.85715"
           x="44.285713"
           y="116.8054" /></flowRegion><flowPara
         id="flowPara104" /></flowRoot>    <flowRoot
       xml:space="preserve"
       id="flowRoot110"
       style="font-style:normal;font-variant:normal;font-weight:normal;font-stretch:normal;font-size:40px;line-height:1.25;font-family:'Segoe Print';-inkscape-font-specification:'Segoe Print';letter-spacing:0px;word-spacing:0px;fill:#000000;fill-opacity:1;stroke:none"
       transform="scale(0.26458333)"><flowRegion
         id="flowRegion112"><rect
           id="rect114"
           width="407.14285"
           height="141.42857"
           x="51.42857"
           y="393.94824" /></flowRegion><flowPara
         id="flowPara116" /></flowRoot>    <flowRoot
       xml:space="preserve"
       id="flowRoot971"
       style="font-style:normal;font-variant:normal;font-weight:normal;font-stretch:normal;font-size:40px;line-height:1.25;font-family:'Segoe Print';-inkscape-font-specification:'Segoe Print';letter-spacing:0px;word-spacing:0px;fill:#000000;fill-opacity:1;stroke:none"
       transform="scale(0.26458333)"><flowRegion
         id="flowRegion973"><rect
           id="rect975"
           width="0.012854356"
           height="43.862236"
           x="446.41571"
           y="510.80029" /></flowRegion><flowPara
         id="flowPara977" /></flowRoot>    <flowRoot
       xml:space="preserve"
       id="flowRoot979"
       style="font-style:normal;font-variant:normal;font-weight:normal;font-stretch:normal;font-size:40px;line-height:1.25;font-family:'Segoe Print';-inkscape-font-specification:'Segoe Print';letter-spacing:0px;word-spacing:0px;fill:#000000;fill-opacity:1;stroke:none"
       transform="scale(0.26458333)"><flowRegion
         id="flowRegion981"><rect
           id="rect983"
           width="18.580521"
           height="103.79508"
           x="258.57144"
           y="503.01031" /></flowRegion><flowPara
         id="flowPara985" /></flowRoot>    <text
       xml:space="preserve"
       style="font-style:normal;font-variant:normal;font-weight:normal;font-stretch:normal;font-size:29.49359512px;line-height:1.25;font-family:'Segoe Print';-inkscape-font-specification:'Segoe Print';letter-spacing:0px;word-spacing:0px;fill:#000000;fill-opacity:1;stroke:none;stroke-width:0.73733991"
       x="-1.5784262"
       y="253.27414"
       id="text108"
       transform="scale(0.8801383,1.1361851)"><tspan
         sodipodi:role="line"
         id="tspan106"
         x="-1.5784262"
         y="253.27414"
         style="font-style:normal;font-variant:normal;font-weight:normal;font-stretch:normal;font-size:23.59482956px;font-family:Arial;-inkscape-font-specification:'Arial, Normal';font-variant-ligatures:normal;font-variant-caps:normal;font-variant-numeric:normal;font-feature-settings:normal;text-align:start;writing-mode:lr-tb;text-anchor:start;fill:#e6a7a7;stroke-width:0.73733991;fill-opacity:1">EXPERIENCE</tspan></text>
    <g
       id="g1020"
       transform="matrix(1.3084117,0,0,1,-57.011827,137.77232)"
       style="opacity:1;fill:#a02c2c;stroke:#969494;stroke-opacity:0.63636361">
      <path
         inkscape:connector-curvature="0"
         d="m 44.225159,151.44191 c 1.323901,0.47538 2.704095,0.37611 4.072213,0.20427 1.704459,-0.33836 3.380766,-0.9037 4.842393,-1.85778 1.111441,-0.74273 2.091053,-1.6543 2.888009,-2.72553 0.393375,-0.55921 0.65359,-1.18374 0.794843,-1.84941 0.04844,-0.45258 0.0024,-0.90505 -0.166584,-1.32793 -0.179856,-0.31901 -0.478205,-0.38457 -0.814025,-0.30124 0.09188,-0.0655 -0.377307,0.14659 -0.278263,0.12411 0.06859,-0.0156 0.125572,-0.11392 0.191329,-0.089 0.05106,0.0194 -0.07538,0.079 -0.112919,0.11872 -0.144579,0.1528 -0.0824,0.0821 -0.212516,0.24405 -0.188627,0.2947 -0.27839,0.63727 -0.392951,0.96439 -0.140063,0.35972 -0.19874,0.73896 -0.231746,1.12119 -0.0263,0.40617 -0.02376,0.81349 -0.02384,1.2203 0.02349,0.48073 0.139025,0.94448 0.343114,1.37894 0.22601,0.42768 0.553495,0.77446 0.939168,1.06035 0.366302,0.26182 0.788701,0.35959 1.213254,0.47662 0.472321,0.14107 0.964507,0.17821 1.453997,0.20479 0.469987,-0.004 0.913834,-0.14356 1.339035,-0.33266 -0.03128,0.0128 -0.115372,0.0644 -0.09385,0.0384 0.13054,-0.15805 0.311224,-0.26738 0.457158,-0.41134 0.258807,-0.25532 0.483402,-0.54183 0.721418,-0.81602 0.516088,-0.62348 1.03455,-1.24573 1.608117,-1.81744 0.551418,-0.54983 1.228738,-0.94277 1.905134,-1.31616 0.443082,-0.17652 0.908704,-0.27088 1.377583,-0.16546 0.491842,0.10257 0.830262,0.46156 1.172276,0.80231 0.391562,0.44871 0.767196,0.91075 1.133163,1.38044 0.32884,0.39584 0.70346,0.7459 1.130985,1.03181 0.349731,0.21029 0.725889,0.30202 1.128649,0.32212 0.370329,0.0135 0.731636,-0.0841 1.075769,-0.21124 0.05203,-0.0254 0.175435,-0.13071 0.156075,-0.0762 -0.02027,0.0571 -0.131725,0.14051 -0.159856,0.0868 -0.02868,-0.0548 0.09811,-0.0754 0.144285,-0.11654 0.154877,-0.13783 0.28729,-0.29323 0.415129,-0.45554 0.268362,-0.34193 0.454401,-0.73666 0.680982,-1.10536 0.273934,-0.40946 0.598607,-0.78451 0.958355,-1.12038 0.237421,-0.22188 0.88482,-0.81446 0.585079,-0.05 -0.258943,0.71512 -0.534567,1.42287 -0.826138,2.12526 -0.52505,1.23144 -1.032518,2.47004 -1.531575,3.71235 -0.586764,1.45967 -1.253106,2.88494 -1.889704,4.32305 -0.288052,0.74012 -0.698717,1.44038 -0.914337,2.20759 -0.02146,0.10197 -0.01379,0.35948 -0.289864,0.20952 -0.06189,-0.0336 0.06995,-0.12262 0.09747,-0.18745 0.08949,-0.21075 0.156958,-0.46482 0.221154,-0.68019 0.48183,-1.61718 1.00746,-3.22083 1.513523,-4.83061 0.611335,-2.14074 1.397309,-4.21901 2.352381,-6.22851 0.591735,-1.09131 1.243383,-2.15774 2.085353,-3.07457 0.343355,-0.29323 0.891538,-0.83164 1.382231,-0.68913 0.06227,0.0181 0.114663,0.0606 0.171993,0.0909 0.43493,0.4646 0.360645,1.10497 0.261463,1.68211 -0.191952,0.83398 -0.536569,1.62224 -0.91387,2.38685 -0.295715,0.58589 -0.708136,1.09481 -1.272151,1.4342 -0.904121,0.46254 -0.22565,0.16006 -0.732579,0.32691 -0.05211,0.0171 -0.19468,0.0964 -0.152897,0.0609 0.341995,-0.29096 0.200176,-0.14142 0.217448,0.002 0.274071,0.27551 0.60031,0.50446 0.92932,0.7105 0.523311,0.33641 1.121685,0.45769 1.729184,0.5285 0.823351,0.0833 1.640689,-0.0392 2.435945,-0.24598 0.774461,-0.22822 1.360095,-0.65707 1.97482,-1.15366 0.690788,-0.60842 1.340094,-1.26476 1.963076,-1.9423 0.42654,-0.47345 0.886325,-0.92957 1.181614,-1.49987 0.151185,-0.41036 0.350861,-0.81904 0.295788,-1.26468 -0.0642,-0.19493 -0.223049,-0.29393 -0.429686,-0.25191 -0.04856,0.01 -0.172294,0.0889 -0.139316,0.0519 0.04469,-0.0501 0.118469,-0.0633 0.177702,-0.0949 -0.374603,0.26654 -0.591791,0.68556 -0.821418,1.07229 -0.253865,0.45698 -0.424484,0.93796 -0.523105,1.44964 -0.106579,0.49298 -0.03821,0.95362 0.137258,1.41836 0.266015,0.46908 0.659315,0.8268 1.109869,1.1117 0.452586,0.23715 0.931034,0.42821 1.427602,0.54986 0.467757,0.10996 0.947367,0.0434 1.413327,-0.0424 0.569304,-0.10614 1.123466,-0.27049 1.645071,-0.52212 0.0826,-0.0482 0.170034,-0.0889 0.247806,-0.14454 0.02389,-0.0171 -0.102873,0.0496 -0.08382,0.0272 0.126637,-0.14862 0.298728,-0.25284 0.432437,-0.39513 0.1313,-0.13972 0.280697,-0.33016 0.400966,-0.47887 0.390268,-0.47346 0.752356,-0.96881 1.139669,-1.4446 0.311983,-0.37044 0.553209,-0.78313 0.755758,-1.22092 0.157927,-0.35739 0.212276,-0.72237 0.113337,-1.10125 -0.08646,-0.32347 -0.273087,-0.52046 -0.60738,-0.38674 0.06172,-0.0315 0.120507,-0.11934 0.185148,-0.0944 0.0532,0.0205 -0.08647,0.0749 -0.123706,0.11811 -0.03818,0.0443 -0.06931,0.0943 -0.10151,0.14307 -0.10907,0.16536 -0.192146,0.3439 -0.282168,0.51988 -0.210886,0.44048 -0.355325,0.89699 -0.441137,1.37671 -0.07296,0.42066 -0.08553,0.84154 0.108236,1.22899 0.241405,0.35018 0.625615,0.3649 1.010917,0.30237 0.486712,-0.13764 0.890749,-0.38454 1.237853,-0.60652 0.535197,-0.32747 1.029266,-0.71266 1.501127,-1.12462 0.384596,-0.32982 0.736595,-0.69264 0.990515,-1.13289 0.127257,-0.28157 0.277717,-0.54172 0.277085,-0.85714 -0.0066,-0.043 -0.300199,-0.1661 0.236564,-0.10662 0.04125,0.005 -0.03798,0.0742 -0.05079,0.11368 -0.03731,0.115 -0.04602,0.22187 -0.06241,0.34139 -0.05196,0.48533 -0.131514,0.96631 -0.173167,1.45316 -0.0416,0.56243 -0.0455,1.12668 -0.04925,1.69036 0.01267,0.53152 0.129742,1.04207 0.319466,1.53566 0.146233,0.35639 0.422998,0.61547 0.790514,0.72661 0.373113,0.0713 0.746512,-0.0199 1.102207,-0.13236 0.453099,-0.22315 0.33869,-0.18488 0.840584,-0.6451 0.464897,-0.42182 0.892614,-0.87798 1.281223,-1.37049 0.347013,-0.44882 0.657633,-0.92486 0.965523,-1.40104 0.21711,-0.36332 0.39434,-0.74977 0.5066,-1.15804 0.0144,-0.30744 0.58194,-0.81776 0.58741,-0.18118 -0.039,0.39501 -0.16533,0.7727 -0.24068,1.1617 -0.0917,0.48397 -0.10101,0.97126 -0.0498,1.45937 0.058,0.51259 0.24736,0.95745 0.52373,1.385 0.22662,0.32434 0.52846,0.50937 0.90336,0.61127 0.43099,0.0931 0.86094,-0.0414 1.26806,-0.17585 0.55276,-0.22889 0.69671,-0.35837 1.12731,-0.68348 0.4772,-0.36938 0.86033,-0.84077 1.23264,-1.31128 0.43659,-0.5293 0.87271,-1.05926 1.291,-1.60324 0.28568,-0.4016 0.58429,-0.78547 0.73813,-1.25829 0.10476,-0.32787 0.0711,-0.62049 -0.0687,-0.92606 -0.16975,-0.27515 -0.4894,-0.22409 -0.75327,-0.13113 -0.0582,0.0308 -0.14205,0.0351 -0.17454,0.0924 -0.0285,0.0502 0.15631,-0.1239 0.15976,-0.0663 0.004,0.0697 -0.10657,0.0906 -0.15531,0.14063 -0.18027,0.18496 -0.29727,0.38263 -0.41049,0.61234 -0.24282,0.55658 -0.37783,1.15442 -0.49382,1.74849 -0.11292,0.58489 -0.0553,1.18176 0.0507,1.76249 0.0951,0.50488 0.37531,0.91897 0.73325,1.27517 0.37846,0.33252 0.82856,0.32252 1.28843,0.19921 0.33806,-0.11044 0.69207,-0.22207 0.98872,-0.42577 0.0168,-0.0115 -0.075,0.0241 -0.0602,0.0102 0.0778,-0.0734 0.17028,-0.12957 0.25542,-0.19434 0.55754,-0.43963 0.98373,-1.0193 1.41206,-1.57972 0.43484,-0.61441 0.89798,-1.20939 1.38013,-1.78743 0.39003,-0.41831 0.89904,-0.8233 1.48902,-0.86959 0.37761,0.0555 0.57809,0.3843 0.75487,0.68938 0.22348,0.46665 0.31043,0.97174 0.41052,1.47399 0.11094,0.67656 0.23639,1.35094 0.32229,2.03138 0.0616,0.4143 0.0554,0.83478 0.0965,1.25067 -0.10374,0.0114 -0.21965,0.0841 -0.31122,0.0341 -0.0553,-0.0303 0.0198,-0.12465 0.0326,-0.18644 0.0805,-0.39081 0.20822,-0.77531 0.32255,-1.1572 0.20181,-0.73094 0.52564,-1.36247 0.96744,-1.97255 0.405,-0.57179 0.95505,-0.89499 1.56454,-1.20649 0.3369,-0.10213 0.65546,-0.0651 0.86625,0.2292 0.21779,0.26258 0.2714,0.58121 0.30753,0.9096 0.0368,0.4829 0.0318,0.96786 0.0322,1.45182 -0.0138,0.47605 -0.011,0.95182 0.18437,1.39275 0.19106,0.3603 0.53461,0.56455 0.90023,0.71489 0.3625,0.11593 0.74788,0.1661 1.12659,0.12813 0.1796,-0.034 0.42876,-0.0457 0.56441,-0.19267 0.0309,-0.0335 -0.14737,0.087 -0.12891,0.0453 0.0358,-0.0808 0.13085,-0.11933 0.19059,-0.18452 0.0674,-0.0736 0.1269,-0.15406 0.19034,-0.23109 0.43778,-0.66703 0.86682,-1.3378 1.35781,-1.96796 0.54681,-0.67636 1.15505,-1.29215 1.85441,-1.8092 0.64551,-0.48539 1.34883,-0.77149 2.13771,-0.88691 0.5671,-0.0596 1.05275,0.11649 1.54779,0.36451 0.3863,0.18426 0.69569,0.49707 1.07445,0.6899 -0.0665,0.11414 0.23364,-0.0489 0.17731,-0.0286 -0.0966,0.0348 -0.182,0.11354 -0.28454,0.11755 -0.0358,0.001 0.0128,-0.0711 0.0103,-0.10682 -0.008,-0.11886 -0.046,-0.18042 -0.0923,-0.29102 -0.22635,-0.44765 -0.60785,-0.7345 -1.07827,-0.88412 -0.59772,-0.15685 -1.13653,0.0604 -1.65851,0.33561 0.0201,-8e-4 0.0738,-0.0171 0.0602,-0.002 -0.0709,0.0777 -0.16693,0.12876 -0.24258,0.20186 -0.29893,0.28885 -0.47836,0.64982 -0.6346,1.02807 -0.23849,0.66019 -0.21877,1.34582 -0.0785,2.02277 0.17136,0.67681 0.5227,1.11945 1.08605,1.51042 0.68941,0.34391 1.44181,0.53886 2.1936,0.69119 0.77472,0.1651 1.5511,0.12238 2.32273,-0.0238 0.93097,-0.20019 1.79022,-0.60795 2.61185,-1.07753 0.65141,-0.48101 1.19551,-1.08034 1.75881,-1.65766 0.54369,-0.57046 1.07304,-1.15222 1.56443,-1.76858 0.25361,-0.30938 0.50804,-0.63422 0.45918,-1.05161 -0.0566,-0.36703 -0.27079,-0.58972 -0.60136,-0.72965 -0.0976,-0.0124 -0.24285,-0.0384 -0.34143,-0.0194 -0.0551,0.0106 -0.18236,0.11197 -0.1564,0.0622 0.0286,-0.0547 0.1561,-0.14231 0.16641,-0.0814 0.0115,0.0677 -0.10686,0.0862 -0.15782,0.13218 -0.0557,0.0502 -0.10798,0.10414 -0.16197,0.15621 -0.36757,0.43907 -0.51633,0.98673 -0.61895,1.53777 -0.0851,0.74528 0.0444,1.468 0.33571,2.15323 0.35606,0.81053 0.88949,1.21328 1.70018,1.51318 1.0223,0.31631 1.82355,0.17321 2.8087,-0.17155 0.72017,-0.28208 1.26782,-0.84215 1.72914,-1.44682 0.0507,-0.0715 0.10142,-0.14303 0.15214,-0.21454 0,0 0.34123,-0.14811 0.34123,-0.14811 v 0 c -0.0513,0.0722 -0.10255,0.14434 -0.15383,0.21651 -0.61274,0.8153 -1.399,1.44124 -2.35789,1.8182 -0.99178,0.34032 -1.80058,0.47427 -2.82515,0.1521 -0.81667,-0.30838 -1.35646,-0.72035 -1.71651,-1.53823 -0.29477,-0.69109 -0.42776,-1.41929 -0.34685,-2.17176 0.10018,-0.55637 0.24696,-1.10756 0.6074,-1.55773 0.35303,-0.34771 0.77938,-0.73894 1.30733,-0.59932 0.33732,0.15111 0.55977,0.38587 0.62139,0.76265 0.0595,0.42776 -0.18501,0.76262 -0.44923,1.0799 -0.49098,0.61882 -1.02297,1.20054 -1.56636,1.77346 -0.73357,0.75173 -1.4291,1.54588 -2.38362,2.02951 -0.82492,0.4671 -1.68714,0.87286 -2.62076,1.06895 -0.77512,0.14257 -1.55454,0.18014 -2.33133,0.0125 -0.7554,-0.15557 -1.51274,-0.35136 -2.20338,-0.70279 -0.5683,-0.39841 -0.92515,-0.85052 -1.09967,-1.53487 -0.14362,-0.68229 -0.16637,-1.37439 0.068,-2.04208 0.30874,-0.76926 0.69225,-1.21767 1.44304,-1.61539 0.53028,-0.27265 1.07536,-0.47846 1.67659,-0.31219 0.47691,0.16095 0.86524,0.4536 1.09703,0.90993 0.16898,0.39488 0.14956,0.78554 -0.45026,0.69726 -0.37405,-0.20102 -0.68705,-0.5049 -1.0723,-0.6905 -0.49024,-0.24481 -0.97388,-0.41124 -1.5339,-0.34643 -0.54565,0.0837 -1.07561,0.21281 -1.4975,0.52815 -0.70241,0.51199 -1.3111,1.1257 -1.85916,1.80025 -0.4931,0.62761 -0.92308,1.29702 -1.35461,1.96734 -0.36861,0.45975 -0.85145,0.87022 -1.45822,0.93079 -0.38355,0.0292 -0.77196,-0.019 -1.1369,-0.14298 -0.37249,-0.15819 -0.72005,-0.3701 -0.91492,-0.73904 -0.19818,-0.44549 -0.20564,-0.92532 -0.19069,-1.40701 -2e-5,-0.4826 0.004,-0.96612 -0.0315,-1.44771 -0.0346,-0.32231 -0.0849,-0.63464 -0.29938,-0.89202 -0.20424,-0.28138 -0.52096,-0.29185 -0.83654,-0.18893 0.0405,-0.0336 0.17136,-0.117 0.12139,-0.10068 -0.0759,0.0248 -0.13614,0.0836 -0.20293,0.12732 -0.33033,0.21644 -0.60582,0.4923 -0.8505,0.80198 -0.45332,0.62121 -0.76344,1.21423 -0.97243,1.96109 -0.0913,0.30475 -0.18462,0.61055 -0.26686,0.91786 -0.0207,0.0773 -0.0384,0.15535 -0.0544,0.23372 -0.0126,0.0617 0.008,0.13706 -0.0313,0.18626 -0.0981,0.12278 -0.24015,0.2027 -0.36022,0.30406 -0.03,-0.4174 -0.0333,-0.83703 -0.0898,-1.25247 -0.0849,-0.67965 -0.21041,-1.35299 -0.32195,-2.0285 -0.10048,-0.49792 -0.18451,-0.9994 -0.40659,-1.46223 -0.1702,-0.29339 -0.36305,-0.61621 -0.73196,-0.65337 -0.0552,0.006 -0.11142,0.007 -0.16557,0.0192 -0.0653,0.015 -0.1301,0.0907 -0.19096,0.0627 -0.0471,-0.0217 0.17224,-0.11371 0.12455,-0.0933 -0.24619,0.10544 -0.43165,0.33088 -0.61565,0.51338 -0.4836,0.57681 -0.94807,1.17105 -1.38169,1.78628 -0.42727,0.56213 -0.85329,1.14349 -1.40701,1.58827 -0.54983,0.42416 -1.14991,0.7889 -1.82388,0.9736 -0.47227,0.116 -0.92861,0.11141 -1.31059,-0.23083 -0.36115,-0.36334 -0.64594,-0.78302 -0.74377,-1.29508 -0.1067,-0.58462 -0.1675,-1.18606 -0.056,-1.77527 0.11447,-0.59649 0.25032,-1.19612 0.4886,-1.75662 0.25771,-0.54637 0.64242,-0.92463 1.21475,-1.1622 0.28604,-0.0881 0.60883,-0.11444 0.78423,0.17613 0.14361,0.31298 0.18448,0.61367 0.0803,0.95112 -0.14918,0.47962 -0.44685,0.86624 -0.73586,1.27139 -0.41676,0.54501 -0.85376,1.07423 -1.29021,1.60348 -0.37219,0.47189 -0.75327,0.94657 -1.22866,1.31979 -0.54486,0.41578 -1.13226,0.78624 -1.76652,1.04917 -0.41315,0.13283 -0.84727,0.26172 -1.2822,0.15899 -0.3801,-0.10974 -0.68769,-0.30388 -0.91714,-0.63457 -0.27849,-0.43281 -0.47054,-0.88292 -0.53148,-1.4006 -0.0525,-0.49115 -0.0468,-0.98144 0.0443,-1.46893 0.0736,-0.38738 0.19675,-0.76285 0.24182,-1.15478 10e-4,-0.0434 0.009,-0.0871 0.004,-0.13017 -0.004,-0.0351 -0.0527,-0.0727 -0.0317,-0.10113 0.0732,-0.0987 0.18804,-0.15828 0.28225,-0.23719 0.0173,-0.0145 -0.0385,0.0256 -0.0516,0.044 -0.0542,0.076 -0.0885,0.19223 -0.11899,0.27508 -0.10951,0.41229 -0.28658,0.80168 -0.50286,1.16907 -0.309,0.47677 -0.61903,0.95444 -0.96581,1.40484 -0.386466,0.49507 -0.813347,0.95268 -1.278112,1.37565 -0.440811,0.40854 -0.913902,0.79165 -1.479811,1.01428 -0.362292,0.10805 -0.738886,0.19851 -1.115947,0.11425 -0.373271,-0.12643 -0.657259,-0.38758 -0.807281,-0.7555 -0.190563,-0.49801 -0.309708,-1.01278 -0.324545,-1.54867 0.0033,-0.56447 0.0072,-1.12952 0.04772,-1.69281 0.04021,-0.48716 0.119443,-0.96833 0.170577,-1.45381 0.01452,-0.11602 0.02466,-0.23656 0.0569,-0.3498 0.05158,-0.18112 0.394242,-0.58328 0.489804,-0.33487 0.0035,0.32372 -0.139475,0.58686 -0.271277,0.87606 -0.249201,0.44621 -0.600827,0.8129 -0.987113,1.14501 -0.471159,0.41382 -0.964067,0.80191 -1.499812,1.13 -0.588832,0.3807 -1.204846,0.76536 -1.881899,0.96478 -0.401505,0.0541 -0.791435,0.0224 -1.037198,-0.34111 -0.197824,-0.39422 -0.192027,-0.8215 -0.118068,-1.25078 0.08428,-0.4829 0.226208,-0.94208 0.435615,-1.3864 0.246439,-0.48079 0.414695,-0.84877 0.958162,-1.0705 0.352269,-0.10523 0.550426,0.10505 0.640541,0.43863 0.103563,0.38575 0.0562,0.75837 -0.102664,1.1247 -0.200713,0.4413 -0.441105,0.85728 -0.753716,1.23036 -0.388575,0.47493 -0.749853,0.97092 -1.1401,1.44454 -0.459089,0.57159 -0.941104,1.06215 -1.628902,1.36831 -0.524899,0.24687 -1.080966,0.40984 -1.651529,0.51459 -0.470498,0.0826 -0.952704,0.1468 -1.423477,0.0303 -0.498253,-0.12632 -0.979392,-0.31893 -1.432798,-0.56077 -0.456094,-0.2907 -0.853646,-0.65579 -1.123466,-1.13144 -0.17862,-0.47008 -0.251722,-0.93708 -0.146328,-1.43674 0.09694,-0.51557 0.264782,-0.99984 0.517679,-1.46139 0.230608,-0.38857 0.445399,-0.8105 0.812699,-1.08857 0.34884,-0.20127 0.849829,-0.56163 1.071264,-0.0138 0.06188,0.45383 -0.135348,0.86622 -0.287568,1.28555 -0.288295,0.57777 -0.752851,1.0351 -1.181269,1.51074 -0.623057,0.67864 -1.272455,1.33567 -1.961396,1.94741 -0.783537,0.63852 -1.642607,1.19488 -2.608265,1.51466 -0.799169,0.20342 -1.619994,0.32253 -2.445975,0.23639 -0.611973,-0.0741 -1.213006,-0.2018 -1.739699,-0.54124 -0.33609,-0.21213 -0.678159,-0.44384 -0.948788,-0.73605 -0.0044,-0.0234 -0.04006,-0.14416 -0.0011,-0.17286 0.0063,-0.005 0.62616,-0.40733 0.765812,-0.35337 0.04559,0.0176 -0.07469,0.063 -0.11204,0.0946 0.570039,-0.32766 0.985687,-0.83248 1.283909,-1.41587 0.378854,-0.7609 0.722701,-1.54656 0.917721,-2.37692 0.0981,-0.55732 0.184126,-1.19019 -0.24184,-1.63881 -0.160446,-0.0771 -0.166074,-0.10639 -0.353568,-0.0862 -0.06701,0.007 -0.132427,0.0715 -0.196091,0.0493 -0.04281,-0.0149 0.148461,-0.10397 0.110612,-0.079 -0.272963,0.17977 -0.199787,0.13262 -0.462354,0.36619 -0.849419,0.91276 -1.505374,1.97841 -2.101416,3.06966 -0.959599,2.00732 -1.749931,4.08404 -2.358361,6.22578 -0.502423,1.60685 -1.024247,3.20769 -1.498865,4.82295 -0.04313,0.14877 -0.176273,0.75533 -0.307096,0.8761 -0.114605,0.1058 -0.25418,0.18245 -0.391883,0.2557 -0.04576,0.0243 -0.04057,-0.2893 1.54e-4,-0.15549 0.214225,-0.77152 0.631023,-1.47327 0.920864,-2.21654 0.639177,-1.43778 1.30779,-2.86284 1.893988,-4.32358 0.496773,-1.2415 1.000797,-2.47977 1.52505,-3.70981 0.290132,-0.70095 0.565626,-1.40673 0.819433,-2.12175 0.126579,-0.30562 0.01185,-0.27817 0.341498,-0.46366 0.0943,-0.0531 -0.444558,0.30709 -0.242612,0.21566 -0.362429,0.3306 -0.684949,0.7057 -0.96184,1.11086 -0.229169,0.36803 -0.412758,0.76463 -0.679143,1.10888 -0.318987,0.41701 -0.690253,0.74681 -1.193435,0.93896 -0.347115,0.12547 -0.712584,0.21557 -1.084482,0.19882 -0.406678,-0.0247 -0.787795,-0.12449 -1.139182,-0.33921 -0.428533,-0.29061 -0.805905,-0.64295 -1.135637,-1.04275 -0.365114,-0.46842 -0.739791,-0.92943 -1.131512,-1.37597 -0.33882,-0.33649 -0.673761,-0.68723 -1.161637,-0.78381 -0.464907,-0.0941 -0.926685,0.004 -1.361324,0.18536 0.02829,-0.0208 0.115645,-0.0793 0.08487,-0.0624 -0.37388,0.20544 -0.755679,0.47009 -1.081312,0.74495 -0.09684,0.0817 -0.185071,0.17318 -0.277606,0.25976 -0.575882,0.56869 -1.094047,1.19081 -1.608744,1.81475 -0.515146,0.59145 -0.990092,1.21611 -1.716955,1.56382 -0.429689,0.18515 -0.87652,0.32267 -1.349515,0.31872 -0.4914,-0.0283 -0.985017,-0.0683 -1.458902,-0.21097 -0.428861,-0.11662 -0.852863,-0.22304 -1.220991,-0.48823 -0.388311,-0.29196 -0.719582,-0.64329 -0.948383,-1.0761 -0.206899,-0.43908 -0.324144,-0.90741 -0.351163,-1.39323 -2.7e-5,-0.40763 -0.0036,-0.81574 0.0218,-1.22279 0.03173,-0.38477 0.08765,-0.76732 0.227616,-1.12981 0.117457,-0.32903 0.204957,-0.67382 0.387308,-0.97529 0.271864,-0.35119 0.615463,-0.65398 1.054565,-0.77184 0.353526,-0.0687 0.657858,0.0145 0.842185,0.34568 0.171926,0.42953 0.220557,0.88805 0.174816,1.34831 -0.139304,0.67121 -0.397529,1.30131 -0.792512,1.86585 -0.796346,1.07723 -1.778146,1.99284 -2.890814,2.74143 -0.349554,0.2125 -0.692705,0.43592 -1.048668,0.6375 -1.36656,0.77387 -2.878595,1.26249 -4.414353,1.56346 -1.376101,0.17016 -2.760604,0.26243 -4.093284,-0.20786 0,0 0.307718,-0.21015 0.307718,-0.21015 z"
         id="path1010"
         style="opacity:1;fill:#a02c2c;fill-opacity:1;fill-rule:nonzero;stroke:#969494;stroke-width:0.30000001;stroke-linecap:butt;stroke-miterlimit:4;stroke-dasharray:none;stroke-dashoffset:0;stroke-opacity:0.63636361" />
      <path
         inkscape:connector-curvature="0"
         d="m 70.573584,144.73621 c -0.426532,0.60078 -0.806042,1.23279 -1.204812,1.85203 -0.487635,0.76114 -0.972513,1.52504 -1.495591,2.26253 -0.422154,0.64344 -0.94329,1.20753 -1.513131,1.72083 -0.402966,0.31595 -0.813914,0.62434 -1.242346,0.90497 -0.05854,0.0318 -0.09453,0.0612 -0.127693,0.11371 0,0 -0.345178,0.15256 -0.345178,0.15256 v 0 c 0.03791,-0.0635 0.04055,-0.0938 0.124327,-0.13053 0.433184,-0.27427 0.839425,-0.59162 1.24808,-0.90088 0.571365,-0.51077 1.096658,-1.0707 1.518348,-1.71417 0.524664,-0.736 1.008846,-1.50005 1.496261,-2.26095 0.397595,-0.61808 0.775949,-1.24878 1.198835,-1.85006 0,0 0.3429,-0.15004 0.3429,-0.15004 z"
         id="path1012"
         style="opacity:1;fill:#a02c2c;fill-opacity:1;fill-rule:nonzero;stroke:#969494;stroke-width:0.30000001;stroke-linecap:butt;stroke-miterlimit:4;stroke-dasharray:none;stroke-dashoffset:0;stroke-opacity:0.63636361" />
    </g>
  </g>
</svg>
