<!-- Created with Inkscape (http://www.inkscape.org/) --><svg xmlns:dc="http://purl.org/dc/elements/1.1/" xmlns:cc="http://creativecommons.org/ns#" xmlns:rdf="http://www.w3.org/1999/02/22-rdf-syntax-ns#" xmlns:svg="http://www.w3.org/2000/svg" xmlns="http://www.w3.org/2000/svg" xmlns:xlink="http://www.w3.org/1999/xlink" xmlns:sodipodi="http://sodipodi.sourceforge.net/DTD/sodipodi-0.dtd" xmlns:inkscape="http://www.inkscape.org/namespaces/inkscape" width="297mm" height="210mm" viewBox="0 0 297 210" version="1.1" id="svg8" inkscape:version="0.92.5 (2060ec1f9f, 2020-04-08)" sodipodi:docname="website-banner.tar">
  <defs id="defs2">
    <linearGradient inkscape:collect="always" id="linearGradient5464">
      <stop style="stop-color:#000000;stop-opacity:1" offset="0" id="stop5460"/>
      <stop style="stop-color:#a664f2;stop-opacity:1" offset="1" id="stop5462"/>
    </linearGradient>
    <linearGradient inkscape:collect="always" id="linearGradient5438">
      <stop style="stop-color:#000000;stop-opacity:1;" offset="0" id="stop5434"/>
      <stop style="stop-color:#000000;stop-opacity:0;" offset="1" id="stop5436"/>
    </linearGradient>
    <linearGradient inkscape:collect="always" id="linearGradient4953">
      <stop style="stop-color:#e9afaf;stop-opacity:1;" offset="0" id="stop4949"/>
      <stop style="stop-color:#ffccaa;stop-opacity:1" offset="1" id="stop4951"/>
    </linearGradient>
    <linearGradient inkscape:collect="always" id="linearGradient4886">
      <stop style="stop-color:#9955ff;stop-opacity:1" offset="0" id="stop4882"/>
      <stop style="stop-color:#e9afaf;stop-opacity:1" offset="1" id="stop4884"/>
    </linearGradient>
    <linearGradient inkscape:collect="always" id="linearGradient4752">
      <stop style="stop-color:#e9afaf;stop-opacity:1;" offset="0" id="stop4748"/>
      <stop style="stop-color:#e9afaf;stop-opacity:0;" offset="1" id="stop4750"/>
    </linearGradient>
    <linearGradient inkscape:collect="always" id="linearGradient4615">
      <stop style="stop-color:#00aad4;stop-opacity:1;" offset="0" id="stop4611"/>
      <stop style="stop-color:#00aad4;stop-opacity:0;" offset="1" id="stop4613"/>
    </linearGradient>
    <linearGradient inkscape:collect="always" xlink:href="#linearGradient4615" id="linearGradient4617" x1="0.2672686" y1="148.66547" x2="115.19317" y2="148.66547" gradientUnits="userSpaceOnUse" gradientTransform="matrix(1.2773669,0,0,1.0012725,-298.0401,-0.62729551)"/>
    <linearGradient inkscape:collect="always" xlink:href="#linearGradient4752" id="linearGradient4758" x1="0" y1="28.672234" x2="287.30127" y2="28.108894" gradientUnits="userSpaceOnUse" gradientTransform="matrix(0.11510382,0,0,5.1792278,72.147691,-104.90837)"/>
    <linearGradient inkscape:collect="always" xlink:href="#linearGradient4886" id="linearGradient4888" x1="176.97427" y1="-73.931335" x2="176.94287" y2="-45.133923" gradientUnits="userSpaceOnUse" gradientTransform="matrix(5.2784051,0,0,1.1310295,-784.02687,117.14537)"/>
    <linearGradient inkscape:collect="always" xlink:href="#linearGradient4953" id="linearGradient4955" x1="101.6756" y1="220.9613" x2="102.34228" y2="253.08928" gradientUnits="userSpaceOnUse" gradientTransform="translate(47.625001,-155.34821)"/>
    <linearGradient inkscape:collect="always" xlink:href="#linearGradient4953" id="linearGradient5115" gradientUnits="userSpaceOnUse" gradientTransform="translate(46.869049,-154.59226)" x1="101.6756" y1="220.9613" x2="102.34228" y2="253.08928"/>
    <linearGradient inkscape:collect="always" xlink:href="#linearGradient5438" id="linearGradient5440" x1="148.60185" y1="210" x2="148.60185" y2="185.01031" gradientUnits="userSpaceOnUse" gradientTransform="matrix(1,0,0,2.2736843,0,-267.81412)"/>
    <linearGradient inkscape:collect="always" xlink:href="#linearGradient5464" id="linearGradient6511" gradientUnits="userSpaceOnUse" gradientTransform="matrix(6.1153848,0,0,1.7625648,369.35461,-19.445566)" x1="-35.852776" y1="10.991319" x2="-35.814114" y2="32.933941"/>
    <linearGradient inkscape:collect="always" xlink:href="#linearGradient4953" id="linearGradient5115-4" gradientUnits="userSpaceOnUse" gradientTransform="matrix(1.0012599,0,0,1,46.976494,-154.61785)" x1="101.6756" y1="220.9613" x2="102.34228" y2="253.08928"/>
    <linearGradient inkscape:collect="always" xlink:href="#linearGradient4886" id="linearGradient4888-9" x1="176.97427" y1="-73.931335" x2="176.94287" y2="-45.133923" gradientUnits="userSpaceOnUse" gradientTransform="matrix(5.2784052,0,0,1.1310295,-783.97915,116.44996)"/>
    <linearGradient inkscape:collect="always" xlink:href="#linearGradient5464" id="linearGradient6511-0" gradientUnits="userSpaceOnUse" gradientTransform="matrix(6.1153849,0,0,1.7625648,369.16474,-18.963293)" x1="-35.852776" y1="10.991319" x2="-35.814114" y2="32.933941"/>
    <linearGradient inkscape:collect="always" xlink:href="#linearGradient5438" id="linearGradient5440-7-3" x1="148.60185" y1="210" x2="148.60185" y2="185.01031" gradientUnits="userSpaceOnUse" gradientTransform="matrix(1,0,0,2.2736843,0.1918531,-267.99132)"/>
  </defs>
  <sodipodi:namedview id="base" pagecolor="#ffffff" bordercolor="#666666" borderopacity="1.0" inkscape:pageopacity="0.0" inkscape:pageshadow="2" inkscape:zoom="1" inkscape:cx="594.71626" inkscape:cy="413.64208" inkscape:document-units="mm" inkscape:current-layer="layer11" showgrid="false" showguides="false" inkscape:snap-global="true" inkscape:lockguides="false" inkscape:guide-bbox="true" inkscape:snap-page="true" inkscape:snap-grids="true" inkscape:object-nodes="false" inkscape:snap-bbox="true" inkscape:snap-to-guides="true" inkscape:snap-nodes="false" inkscape:window-width="1920" inkscape:window-height="1051" inkscape:window-x="-9" inkscape:window-y="-9" inkscape:window-maximized="1">
    <inkscape:grid type="xygrid" id="grid10"/>
    <sodipodi:guide position="305.78274,151.56845" orientation="0,1" id="guide3728" inkscape:locked="false"/>
  </sodipodi:namedview>
  <metadata id="metadata5">
    <rdf:RDF>
      <cc:Work rdf:about="">
        <dc:format>image/svg+xml</dc:format>
        <dc:type rdf:resource="http://purl.org/dc/dcmitype/StillImage"/>
        <dc:title/>
      </cc:Work>
    </rdf:RDF>
  </metadata>
  <svg:g inkscape:groupmode="layer" id="layer8" inkscape:label="galaxy" sodipodi:insensitive="true">
    <svg:rect style="opacity:1;fill:url(#linearGradient6511-0);fill-opacity:1;stroke:none;stroke-width:0.32831034;stroke-miterlimit:4;stroke-dasharray:none;stroke-opacity:1" id="rect5456" width="297.47098" height="39.099628" x="-0.22228956" y="-0.25025177"/>
    <svg:g id="g6449" transform="matrix(0.35461509,0,0,0.26612093,61.502641,11.858753)">
      <svg:path inkscape:connector-curvature="0" id="path6180" d="m 440.56103,106.11146 c -0.89107,0.004 -1.44849,0.33608 -1.44849,1.14412 0,1.776 4.52832,4.15004 5.29167,4.9134 1.6901,1.69008 -6.93738,13.47866 -8.99896,16.37264 -1.66838,0.56229 -3.36518,1.06238 -5.08444,1.40456 -1.84995,0.2871 -3.71645,0.32181 -6.65179,0.30851 -0.0269,-1.2e-4 -0.0517,-9e-4 -0.0786,-0.001 -0.99489,-0.13477 -1.99499,-0.36015 -2.99876,-0.69763 l 1.71203,0.68471 c -7.00296,-0.10144 -11.57919,-0.76497 -18.38391,-2.71456 -1.89391,-0.54922 -3.85328,-1.17539 -5.89679,-1.84743 0.63828,-5.75894 0.41936,-9.41807 -1.54977,-0.60565 -2.09436,-0.89726 -3.72049,-1.98678 -6.35619,-4.0504 -4.54853,-3.80202 -9.26669,-8.20799 -10.34667,-3.93981 -0.35631,0.17815 -0.037,0.89923 0.72295,1.96112 0.009,0.0178 0.0146,0.0337 0.0238,0.0517 0.76313,1.49587 5.67983,6.74818 10.56523,11.56621 l -0.32763,-0.262 c -16.0904,4.57242 -6.59577,3.60521 1.66193,1.56632 1.8416,1.78779 3.62434,3.46048 5.11648,4.7811 0.0594,0.0581 0.34245,0.33005 0.38034,0.36793 0.22294,0.19167 0.45268,0.37614 0.68625,0.55604 0.83603,0.70949 1.54332,1.26871 2.04793,1.59991 2.38315,1.5641 5.79112,2.73855 9.2315,3.1812 3.62669,0.46661 10.28131,0.48473 17.15037,0.0465 0.65537,-0.0418 1.45592,-0.10735 2.32957,-0.18552 -5.24396,3.116 -15.45698,7.16133 -20.10679,11.81116 -1.55205,1.55202 -3.88837,-3.78013 -4.53562,-3.78013 -1.53006,0 -2.63496,3.78013 -3.40188,3.78013 -1.17899,0 5.51367,4.8852 8.01192,6.73551 l 1.38285,-1.25936 1.42679,-1.29966 c 8.03973,-4.47611 29.95927,-17.06209 30.32683,-17.46766 5.45584,-0.69989 10.63533,-1.45267 12.89275,-1.92754 7.34645,-1.54536 16.40663,-5.46833 18.77094,-7.79384 0.31933,-0.26016 0.61966,-0.52609 0.8935,-0.79995 0.39108,-0.39108 0.46114,-0.76046 0.27647,-1.10897 l 0.0429,-0.0444 -0.11419,-0.0749 c -0.43021,-0.60762 -1.65589,-1.14815 -3.35071,-1.62626 0.0479,-0.10773 0.0217,-0.19775 -0.10075,-0.26149 -0.20069,-0.10437 -0.13642,0.0201 0.0238,0.2403 -6.26087,-1.74489 -18.81063,-2.63544 -22.16505,-2.77399 0.32806,-1.58178 -0.44675,-3.60145 0.4413,-4.93355 1.55255,-2.32884 3.77039,-6.81293 2.64583,-7.9375 -1.53469,-1.53471 -8.97654,-5.69472 -12.15892,-5.67976 z m -31.23428,54.7486 -0.0744,0.0677 c 1.53167,1.02408 1.15797,0.73484 0.0744,-0.0677 z m 23.38203,-18.87637 -2.68251,0.3545 -0.84233,0.43822 0.54364,-0.49506 c 0.90734,-0.0835 1.91659,-0.18543 2.9812,-0.29766 z" style="fill:#040404;fill-opacity:1;stroke:#000000;stroke-width:0.26458332px;stroke-linecap:butt;stroke-linejoin:miter;stroke-opacity:1"/>
      <svg:rect transform="rotate(-21.136256)" ry="0.9667452" rx="1.9028833" y="287.46277" x="382.97952" height="1.8708867" width="8.9535294" id="rect6314" style="opacity:1;fill:#f7f7fb;fill-opacity:0.46268658;stroke:none;stroke-width:0.36300001;stroke-miterlimit:4;stroke-dasharray:none;stroke-opacity:0.96517412"/>
      <svg:rect ry="0.9667452" rx="1.9028833" y="134.36273" x="407.71967" height="3.4745038" width="2.80633" id="rect6368" style="opacity:1;fill:#ffffff;fill-opacity:0.91000001;stroke:#000000;stroke-width:0.36300001;stroke-miterlimit:4;stroke-dasharray:none;stroke-opacity:1"/>
      <svg:rect ry="0.9667452" rx="1.9028833" y="134.49637" x="412.19644" height="3.4745038" width="2.80633" id="rect6368-0" style="opacity:1;fill:#ffffff;fill-opacity:0.91000001;stroke:#000000;stroke-width:0.36300001;stroke-miterlimit:4;stroke-dasharray:none;stroke-opacity:1"/>
      <svg:rect ry="0.9667452" rx="1.9028833" y="134.36273" x="416.74002" height="3.4745038" width="2.80633" id="rect6368-8" style="opacity:1;fill:#ffffff;fill-opacity:0.91000001;stroke:#000000;stroke-width:0.36300001;stroke-miterlimit:4;stroke-dasharray:none;stroke-opacity:1"/>
      <svg:rect ry="0.9667452" rx="1.9028833" y="134.22908" x="422.1188" height="3.4745038" width="2.80633" id="rect6368-3" style="opacity:1;fill:#ffffff;fill-opacity:0.91000001;stroke:#000000;stroke-width:0.36300001;stroke-miterlimit:4;stroke-dasharray:none;stroke-opacity:1"/>
      <svg:rect ry="0.9667452" rx="1.9028833" y="134.2291" x="426.99649" height="3.4745038" width="2.80633" id="rect6368-0-8" style="opacity:1;fill:#ffffff;fill-opacity:0.91000001;stroke:#000000;stroke-width:0.36300001;stroke-miterlimit:4;stroke-dasharray:none;stroke-opacity:1"/>
      <svg:rect ry="0.9667452" rx="1.9028833" y="133.82819" x="431.67371" height="3.4745038" width="2.80633" id="rect6368-8-7" style="opacity:1;fill:#ffffff;fill-opacity:0.91000001;stroke:#000000;stroke-width:0.36300001;stroke-miterlimit:4;stroke-dasharray:none;stroke-opacity:1"/>
      <svg:rect ry="0.9667452" rx="1.9028833" y="133.02638" x="438.82315" height="3.4745038" width="2.80633" id="rect6368-1" style="opacity:1;fill:#ffffff;fill-opacity:0.91000001;stroke:#000000;stroke-width:0.36300001;stroke-miterlimit:4;stroke-dasharray:none;stroke-opacity:1"/>
      <svg:rect ry="0.9667452" rx="1.9028833" y="131.95731" x="444.63626" height="3.4745038" width="2.80633" id="rect6368-0-1" style="opacity:1;fill:#ffffff;fill-opacity:0.91000001;stroke:#000000;stroke-width:0.36300001;stroke-miterlimit:4;stroke-dasharray:none;stroke-opacity:1"/>
      <svg:rect ry="0.9667452" rx="1.9028833" y="131.69005" x="449.98166" height="3.4745038" width="2.80633" id="rect6368-8-2" style="opacity:1;fill:#ffffff;fill-opacity:0.91000001;stroke:#000000;stroke-width:0.36300001;stroke-miterlimit:4;stroke-dasharray:none;stroke-opacity:1"/>
    </svg:g>
    <svg:path style="opacity:1;fill:#ffffff;fill-opacity:1;stroke:#000000;stroke-width:0.00880796;stroke-miterlimit:4;stroke-dasharray:none;stroke-opacity:0.01492537" inkscape:transform-center-x="0.040184566" inkscape:transform-center-y="0.023399144" d="m 238.24907,14.73484 -0.23977,-1.554047 -1.07154,-0.484592 c 1.14441,0.05666 0.13901,-8.73e-4 1.15807,0.04233 l 0.0388,-1.397495 0.19147,1.450104 1.40331,0.543253 -1.29308,-0.08823 z" id="path6552" inkscape:connector-curvature="0" sodipodi:nodetypes="ccccccccc"/>
    <svg:path style="opacity:1;fill:#ffffff;fill-opacity:1;stroke:#000000;stroke-width:0.00880796;stroke-miterlimit:4;stroke-dasharray:none;stroke-opacity:0.01492537" inkscape:transform-center-x="12.324411" inkscape:transform-center-y="0.68485748" d="m 208.17959,10.339841 -0.23977,-1.5540467 -1.07154,-0.484592 c 1.14441,0.05666 0.13901,-8.73e-4 1.15807,0.04233 l 0.0388,-1.3974949 0.19147,1.4501039 1.40331,0.543253 -1.29308,-0.08823 z" id="path6552-3" inkscape:connector-curvature="0" sodipodi:nodetypes="ccccccccc"/>
    <svg:path style="opacity:1;fill:#ffffff;fill-opacity:1;stroke:#000000;stroke-width:0.00880796;stroke-miterlimit:4;stroke-dasharray:none;stroke-opacity:0.01492537" inkscape:transform-center-x="8.9226251" inkscape:transform-center-y="-5.3150655" d="m 61.43035,20.695026 -0.23977,1.554047 -1.07154,0.484592 c 1.14441,-0.05666 0.13901,8.73e-4 1.15807,-0.04233 l 0.0388,1.397495 0.19147,-1.450104 1.4033,-0.543253 -1.29308,0.08823 z" id="path6552-6" inkscape:connector-curvature="0" sodipodi:nodetypes="ccccccccc"/>
    <svg:path style="opacity:1;fill:#ffffff;fill-opacity:1;stroke:#000000;stroke-width:0.00880796;stroke-miterlimit:4;stroke-dasharray:none;stroke-opacity:0.01492537" inkscape:transform-center-x="-0.040189369" inkscape:transform-center-y="0.023399144" d="m 162.4243,17.426895 0.23977,-1.554047 1.07154,-0.484592 c -1.14441,0.05666 -0.13901,-8.73e-4 -1.15807,0.04233 l -0.0388,-1.397495 -0.19147,1.450104 -1.40331,0.543253 1.29308,-0.08823 z" id="path6552-0" inkscape:connector-curvature="0" sodipodi:nodetypes="ccccccccc"/>
    <svg:path style="opacity:1;fill:#ffffff;fill-opacity:1;stroke:#000000;stroke-width:0.00735065;stroke-miterlimit:4;stroke-dasharray:none;stroke-opacity:0.01492537" inkscape:transform-center-x="0.030696677" inkscape:transform-center-y="0.021214671" d="m 285.62938,15.639964 -0.1841,-1.409037 -0.82309,-0.439374 c 0.87908,0.05138 0.10679,-7.94e-4 0.88956,0.03838 l 0.0299,-1.267094 0.14716,1.314794 1.07794,0.492561 -0.99328,-0.08 z" id="path6552-1" inkscape:connector-curvature="0" sodipodi:nodetypes="ccccccccc"/>
    <svg:path style="opacity:1;fill:#ffffff;fill-opacity:1;stroke:#000000;stroke-width:0.00411506;stroke-miterlimit:4;stroke-dasharray:none;stroke-opacity:0.01492537" inkscape:transform-center-x="0.014298334" inkscape:transform-center-y="0.014283234" d="m 44.38023,13.181606 -0.0857,-0.948632 -0.38314,-0.295809 c 0.40921,0.03459 0.0497,-5.29e-4 0.41409,0.02584 l 0.0139,-0.853069 0.0685,0.885183 0.50179,0.331617 -0.46238,-0.05386 z" id="path6552-1-2" inkscape:connector-curvature="0" sodipodi:nodetypes="ccccccccc"/>
    <svg:path style="opacity:1;fill:#ffffff;fill-opacity:1;stroke:#000000;stroke-width:0.00411506;stroke-miterlimit:4;stroke-dasharray:none;stroke-opacity:0.01492537" inkscape:transform-center-x="-0.014298147" inkscape:transform-center-y="0.014283234" d="m 115.76827,8.9802173 0.0857,-0.948632 0.38315,-0.2958085 c -0.40921,0.03459 -0.0497,-5.292e-4 -0.41409,0.025839 l -0.0139,-0.8530688 -0.0685,0.8851828 -0.50179,0.3316165 0.46237,-0.05386 z" id="path6552-1-5" inkscape:connector-curvature="0" sodipodi:nodetypes="ccccccccc"/>
    <svg:path style="opacity:1;fill:#ffffff;fill-opacity:1;stroke:#000000;stroke-width:0.00735065;stroke-miterlimit:4;stroke-dasharray:none;stroke-opacity:0.01492537" inkscape:transform-center-x="-0.030695673" inkscape:transform-center-y="0.021214784" d="m 87.59565,13.213895 0.1841,-1.409037 0.82308,-0.439375 c -0.87906,0.05138 -0.10677,-7.94e-4 -0.88955,0.03838 l -0.0299,-1.267094 -0.14715,1.314795 -1.07794,0.492561 0.99326,-0.08 z" id="path6552-1-1" inkscape:connector-curvature="0" sodipodi:nodetypes="ccccccccc"/>
    <svg:path style="opacity:1;fill:#ffffff;fill-opacity:1;stroke:#000000;stroke-width:0.00735065;stroke-miterlimit:4;stroke-dasharray:none;stroke-opacity:0.01492537" inkscape:transform-center-x="0.030693285" inkscape:transform-center-y="-0.021214707" d="m 274.807,24.591642 -0.1841,1.409037 -0.82307,0.439373 c 0.87906,-0.05138 0.10676,7.94e-4 0.88953,-0.03838 l 0.0299,1.267095 0.14716,-1.314794 1.07794,-0.492561 -0.99324,0.08 z" id="path6552-1-24" inkscape:connector-curvature="0" sodipodi:nodetypes="ccccccccc"/>
    <svg:path style="opacity:1;fill:#ffffff;fill-opacity:1;stroke:#000000;stroke-width:0.00411506;stroke-miterlimit:4;stroke-dasharray:none;stroke-opacity:0.01492537" inkscape:transform-center-x="-0.014298147" inkscape:transform-center-y="0.014283234" d="m 138.36587,14.403511 0.0857,-0.948632 0.38315,-0.295808 c -0.40921,0.03459 -0.0497,-5.29e-4 -0.41409,0.02584 l -0.0139,-0.853069 -0.0685,0.885183 -0.50179,0.331616 0.46237,-0.05386 z" id="path6552-1-5-3" inkscape:connector-curvature="0" sodipodi:nodetypes="ccccccccc"/>
    <svg:path style="opacity:1;fill:#ffffff;fill-opacity:1;stroke:#000000;stroke-width:0.00411506;stroke-miterlimit:4;stroke-dasharray:none;stroke-opacity:0.01492537" inkscape:transform-center-x="-0.014298147" inkscape:transform-center-y="0.014283234" d="m 188.06974,22.718987 0.0857,-0.948632 0.38315,-0.295808 c -0.40921,0.03459 -0.0497,-5.29e-4 -0.41409,0.02584 l -0.0139,-0.853069 -0.0685,0.885183 -0.50179,0.331616 0.46237,-0.05386 z" id="path6552-1-5-3-9" inkscape:connector-curvature="0" sodipodi:nodetypes="ccccccccc"/>
    <svg:path style="opacity:1;fill:#ffffff;fill-opacity:1;stroke:#000000;stroke-width:0.00411506;stroke-miterlimit:4;stroke-dasharray:none;stroke-opacity:0.01492537" inkscape:transform-center-x="-0.014298147" inkscape:transform-center-y="0.014283234" d="m 212.82718,28.766605 0.0857,-0.948632 0.38315,-0.295807 c -0.40921,0.03459 -0.0497,-5.29e-4 -0.41409,0.02585 l -0.0139,-0.85307 -0.0685,0.885185 -0.50179,0.331616 0.46237,-0.05386 z" id="path6552-1-5-3-4" inkscape:connector-curvature="0" sodipodi:nodetypes="ccccccccc"/>
    <svg:path style="opacity:1;fill:#ffffff;fill-opacity:1;stroke:#000000;stroke-width:0.00411506;stroke-miterlimit:4;stroke-dasharray:none;stroke-opacity:0.01492537" inkscape:transform-center-x="-0.014298147" inkscape:transform-center-y="0.014283234" d="m 206.40158,23.852916 0.0857,-0.948632 0.38315,-0.295808 c -0.40921,0.03459 -0.0497,-5.29e-4 -0.41409,0.02584 l -0.0139,-0.853069 -0.0685,0.885183 -0.50179,0.331616 0.46237,-0.05386 z" id="path6552-1-5-3-6" inkscape:connector-curvature="0" sodipodi:nodetypes="ccccccccc"/>
    <svg:path style="opacity:1;fill:#ffffff;fill-opacity:1;stroke:#000000;stroke-width:0.00411506;stroke-miterlimit:4;stroke-dasharray:none;stroke-opacity:0.01492537" inkscape:transform-center-x="-0.014298147" inkscape:transform-center-y="0.014283234" d="m 241.36438,11.757677 0.0857,-0.948632 0.38315,-0.295808 c -0.40921,0.03459 -0.0497,-5.29e-4 -0.41409,0.02584 l -0.0139,-0.8530687 -0.0685,0.8851827 -0.50179,0.331616 0.46237,-0.05386 z" id="path6552-1-5-3-8" inkscape:connector-curvature="0" sodipodi:nodetypes="ccccccccc"/>
    <svg:path style="opacity:1;fill:#ffffff;fill-opacity:1;stroke:#000000;stroke-width:0.00411506;stroke-miterlimit:4;stroke-dasharray:none;stroke-opacity:0.01492537" inkscape:transform-center-x="-0.014298147" inkscape:transform-center-y="0.014283234" d="m 262.34205,4.5761297 0.0857,-0.948632 0.38317,-0.2958079 c -0.40923,0.03459 -0.0497,-5.292e-4 -0.4141,0.025839 l -0.014,-0.853069 -0.0685,0.8851828 -0.50181,0.3316161 0.46239,-0.05386 z" id="path6552-1-5-3-1" inkscape:connector-curvature="0" sodipodi:nodetypes="ccccccccc"/>
    <svg:path style="opacity:1;fill:#ffffff;fill-opacity:1;stroke:#000000;stroke-width:0.00411506;stroke-miterlimit:4;stroke-dasharray:none;stroke-opacity:0.01492537" inkscape:transform-center-x="-0.014298147" inkscape:transform-center-y="0.014283234" d="m 99.812303,16.671368 0.0857,-0.948632 0.383147,-0.295808 c -0.409207,0.03459 -0.0497,-5.29e-4 -0.414087,0.02584 l -0.0139,-0.853069 -0.0685,0.885183 -0.501797,0.331616 0.462377,-0.05386 z" id="path6552-1-5-3-5" inkscape:connector-curvature="0" sodipodi:nodetypes="ccccccccc"/>
    <svg:path style="opacity:1;fill:#ffffff;fill-opacity:1;stroke:#000000;stroke-width:0.00411506;stroke-miterlimit:4;stroke-dasharray:none;stroke-opacity:0.01492537" inkscape:transform-center-x="-0.014298147" inkscape:transform-center-y="0.014283234" d="m 102.45813,14.592499 0.0857,-0.948632 0.38315,-0.295808 c -0.40921,0.03459 -0.0497,-5.29e-4 -0.41409,0.02584 l -0.0139,-0.853069 -0.0685,0.885183 -0.50179,0.331616 0.46237,-0.05386 z" id="path6552-1-5-3-43" inkscape:connector-curvature="0" sodipodi:nodetypes="ccccccccc"/>
    <svg:path style="opacity:1;fill:#ffffff;fill-opacity:1;stroke:#000000;stroke-width:0.00411506;stroke-miterlimit:4;stroke-dasharray:none;stroke-opacity:0.01492537" inkscape:transform-center-x="-0.014298147" inkscape:transform-center-y="0.014283234" d="m 102.26914,17.616308 0.0857,-0.948632 0.38315,-0.295808 c -0.40921,0.03459 -0.0497,-5.29e-4 -0.41409,0.02584 l -0.0139,-0.853069 -0.0685,0.885183 -0.50179,0.331616 0.46237,-0.05386 z" id="path6552-1-5-3-19" inkscape:connector-curvature="0" sodipodi:nodetypes="ccccccccc"/>
    <svg:path style="opacity:1;fill:#ffffff;fill-opacity:1;stroke:#000000;stroke-width:0.00880796;stroke-miterlimit:4;stroke-dasharray:none;stroke-opacity:0.01492537" inkscape:transform-center-x="8.9226251" inkscape:transform-center-y="-5.3150655" d="m 8.6081605,13.371728 -0.23977,1.554047 -1.07154,0.484592 c 1.14441,-0.05666 0.13901,8.73e-4 1.15807,-0.04233 l 0.0388,1.397495 0.19147,-1.450104 1.4033095,-0.543253 -1.2930795,0.08823 z" id="path6552-6-1" inkscape:connector-curvature="0" sodipodi:nodetypes="ccccccccc"/>
    <svg:path style="opacity:1;fill:#ffffff;fill-opacity:1;stroke:#000000;stroke-width:0.00735065;stroke-miterlimit:4;stroke-dasharray:none;stroke-opacity:0.01492537" inkscape:transform-center-x="-0.030695673" inkscape:transform-center-y="0.021214784" d="m 11.97035,9.6145523 0.1841,-1.409037 0.82308,-0.439375 c -0.87906,0.05138 -0.10677,-7.937e-4 -0.88955,0.03838 l -0.0299,-1.2670944 -0.14715,1.3147953 -1.07794,0.4925611 0.99326,-0.08 z" id="path6552-1-1-8" inkscape:connector-curvature="0" sodipodi:nodetypes="ccccccccc"/>
    <svg:path style="fill:none;stroke:#ffffff;stroke-width:0.13358554px;stroke-linecap:butt;stroke-linejoin:miter;stroke-opacity:1" d="m 269.68628,28.470552 c 1.10908,-0.765871 2.47324,-1.856198 3.91419,-1.856198" id="path6784-6" inkscape:connector-curvature="0"/>
    <svg:path style="fill:none;stroke:#ffffff;stroke-width:0.18327075px;stroke-linecap:butt;stroke-linejoin:miter;stroke-opacity:1" d="M 80.20671,14.445186 C 81.69006,13.367381 83.5146,11.83297 85.44179,11.83297" id="path6784-9" inkscape:connector-curvature="0" inkscape:transform-center-x="-4.8377839" inkscape:transform-center-y="-3.3055226"/>
    <svg:path style="fill:none;stroke:#ffffff;stroke-width:0.13358554px;stroke-linecap:butt;stroke-linejoin:miter;stroke-opacity:1" d="m 81.90156,14.812062 c 1.10908,-0.765871 2.47325,-1.856199 3.91418,-1.856199" id="path6784-6-3" inkscape:connector-curvature="0" inkscape:transform-center-x="-5.4712839" inkscape:transform-center-y="-1.8924651"/>
  </svg:g>
  </svg>