<!-- Created with Inkscape (http://www.inkscape.org/) --><svg xmlns:dc="http://purl.org/dc/elements/1.1/" xmlns:cc="http://creativecommons.org/ns#" xmlns:rdf="http://www.w3.org/1999/02/22-rdf-syntax-ns#" xmlns:svg="http://www.w3.org/2000/svg" xmlns="http://www.w3.org/2000/svg" xmlns:xlink="http://www.w3.org/1999/xlink" xmlns:sodipodi="http://sodipodi.sourceforge.net/DTD/sodipodi-0.dtd" xmlns:inkscape="http://www.inkscape.org/namespaces/inkscape" width="297mm" height="210mm" viewBox="0 0 297 210" version="1.1" id="svg8" inkscape:version="0.92.5 (2060ec1f9f, 2020-04-08)" sodipodi:docname="website-banner.tar">
  <defs id="defs2">
    <linearGradient inkscape:collect="always" id="linearGradient5464">
      <stop style="stop-color:#000000;stop-opacity:1" offset="0" id="stop5460"/>
      <stop style="stop-color:#a664f2;stop-opacity:1" offset="1" id="stop5462"/>
    </linearGradient>
    <linearGradient inkscape:collect="always" id="linearGradient5438">
      <stop style="stop-color:#000000;stop-opacity:1;" offset="0" id="stop5434"/>
      <stop style="stop-color:#000000;stop-opacity:0;" offset="1" id="stop5436"/>
    </linearGradient>
    <linearGradient inkscape:collect="always" id="linearGradient4953">
      <stop style="stop-color:#e9afaf;stop-opacity:1;" offset="0" id="stop4949"/>
      <stop style="stop-color:#ffccaa;stop-opacity:1" offset="1" id="stop4951"/>
    </linearGradient>
    <linearGradient inkscape:collect="always" id="linearGradient4886">
      <stop style="stop-color:#9955ff;stop-opacity:1" offset="0" id="stop4882"/>
      <stop style="stop-color:#e9afaf;stop-opacity:1" offset="1" id="stop4884"/>
    </linearGradient>
    <linearGradient inkscape:collect="always" id="linearGradient4752">
      <stop style="stop-color:#e9afaf;stop-opacity:1;" offset="0" id="stop4748"/>
      <stop style="stop-color:#e9afaf;stop-opacity:0;" offset="1" id="stop4750"/>
    </linearGradient>
    <linearGradient inkscape:collect="always" id="linearGradient4615">
      <stop style="stop-color:#00aad4;stop-opacity:1;" offset="0" id="stop4611"/>
      <stop style="stop-color:#00aad4;stop-opacity:0;" offset="1" id="stop4613"/>
    </linearGradient>
    <linearGradient inkscape:collect="always" xlink:href="#linearGradient4615" id="linearGradient4617" x1="0.2672686" y1="148.66547" x2="115.19317" y2="148.66547" gradientUnits="userSpaceOnUse" gradientTransform="matrix(1.2773669,0,0,1.0012725,-298.0401,-0.62729551)"/>
    <linearGradient inkscape:collect="always" xlink:href="#linearGradient4752" id="linearGradient4758" x1="0" y1="28.672234" x2="287.30127" y2="28.108894" gradientUnits="userSpaceOnUse" gradientTransform="matrix(0.11510382,0,0,5.1792278,72.147691,-104.90837)"/>
    <linearGradient inkscape:collect="always" xlink:href="#linearGradient4886" id="linearGradient4888" x1="176.97427" y1="-73.931335" x2="176.94287" y2="-45.133923" gradientUnits="userSpaceOnUse" gradientTransform="matrix(5.2784051,0,0,1.1310295,-784.02687,117.14537)"/>
    <linearGradient inkscape:collect="always" xlink:href="#linearGradient4953" id="linearGradient4955" x1="101.6756" y1="220.9613" x2="102.34228" y2="253.08928" gradientUnits="userSpaceOnUse" gradientTransform="translate(47.625001,-155.34821)"/>
    <linearGradient inkscape:collect="always" xlink:href="#linearGradient4953" id="linearGradient5115" gradientUnits="userSpaceOnUse" gradientTransform="translate(46.869049,-154.59226)" x1="101.6756" y1="220.9613" x2="102.34228" y2="253.08928"/>
    <linearGradient inkscape:collect="always" xlink:href="#linearGradient5438" id="linearGradient5440" x1="148.60185" y1="210" x2="148.60185" y2="185.01031" gradientUnits="userSpaceOnUse" gradientTransform="matrix(1,0,0,2.2736843,0,-267.81412)"/>
    <linearGradient inkscape:collect="always" xlink:href="#linearGradient5464" id="linearGradient6511" gradientUnits="userSpaceOnUse" gradientTransform="matrix(6.1153848,0,0,1.7625648,369.35461,-19.445566)" x1="-35.852776" y1="10.991319" x2="-35.814114" y2="32.933941"/>
    <linearGradient inkscape:collect="always" xlink:href="#linearGradient4953" id="linearGradient5115-4" gradientUnits="userSpaceOnUse" gradientTransform="matrix(1.0012599,0,0,1,46.976494,-154.61785)" x1="101.6756" y1="220.9613" x2="102.34228" y2="253.08928"/>
    <linearGradient inkscape:collect="always" xlink:href="#linearGradient4886" id="linearGradient4888-9" x1="176.97427" y1="-73.931335" x2="176.94287" y2="-45.133923" gradientUnits="userSpaceOnUse" gradientTransform="matrix(5.2784052,0,0,1.1310295,-783.97915,116.44996)"/>
    <linearGradient inkscape:collect="always" xlink:href="#linearGradient5464" id="linearGradient6511-0" gradientUnits="userSpaceOnUse" gradientTransform="matrix(6.1153849,0,0,1.7625648,369.16474,-18.963293)" x1="-35.852776" y1="10.991319" x2="-35.814114" y2="32.933941"/>
    <linearGradient inkscape:collect="always" xlink:href="#linearGradient5438" id="linearGradient5440-7-3" x1="148.60185" y1="210" x2="148.60185" y2="185.01031" gradientUnits="userSpaceOnUse" gradientTransform="matrix(1,0,0,2.2736843,0.1918531,-267.99132)"/>
  </defs>
  <sodipodi:namedview id="base" pagecolor="#ffffff" bordercolor="#666666" borderopacity="1.0" inkscape:pageopacity="0.0" inkscape:pageshadow="2" inkscape:zoom="1" inkscape:cx="594.71626" inkscape:cy="413.64208" inkscape:document-units="mm" inkscape:current-layer="layer11" showgrid="false" showguides="false" inkscape:snap-global="true" inkscape:lockguides="false" inkscape:guide-bbox="true" inkscape:snap-page="true" inkscape:snap-grids="true" inkscape:object-nodes="false" inkscape:snap-bbox="true" inkscape:snap-to-guides="true" inkscape:snap-nodes="false" inkscape:window-width="1920" inkscape:window-height="1051" inkscape:window-x="-9" inkscape:window-y="-9" inkscape:window-maximized="1">
    <inkscape:grid type="xygrid" id="grid10"/>
    <sodipodi:guide position="305.78274,151.56845" orientation="0,1" id="guide3728" inkscape:locked="false"/>
  </sodipodi:namedview>
  <metadata id="metadata5">
    <rdf:RDF>
      <cc:Work rdf:about="">
        <dc:format>image/svg+xml</dc:format>
        <dc:type rdf:resource="http://purl.org/dc/dcmitype/StillImage"/>
        <dc:title/>
      </cc:Work>
    </rdf:RDF>
  </metadata>
  <svg:g inkscape:groupmode="layer" id="layer6" inkscape:label="light-grass" sodipodi:insensitive="true">
    <svg:path style="fill:none;fill-opacity:1;stroke:#000000;stroke-width:0.26458332px;stroke-linecap:butt;stroke-linejoin:miter;stroke-opacity:0" d="M -0.08282964,122.85078 C 2.728886,115.09338 14.917017,96.580184 25.575045,100.13286 c 11.306783,3.76893 15.931358,13.52594 22.450641,20.04522 0.05925,0.0592 8.137615,-3.25648 11.49259,-2.13815 8.494427,2.83147 13.064358,11.19347 16.83798,14.96709 0.214717,0.21472 9.061905,-1.33635 11.759859,-1.33635 3.890637,0 12.022125,4.94699 14.432555,3.74177 9.00951,-4.50475 21.16824,-7.73283 31.5378,-4.27631 1.72891,0.5763 3.39361,1.57666 5.07812,2.13816 4.44819,1.48273 26.48356,-0.38897 29.39965,1.06908 0.63681,0.3184 4.57748,1.83699 5.61266,0.80181 1.30472,-1.30472 4.89677,-0.0859 6.1472,-1.33635 15.1819,-15.18191 33.63418,-30.21191 57.19568,-24.32153 5.40512,1.35128 10.16759,0.27294 14.96709,2.6727 4.61427,2.30713 11.29942,0.57158 16.03617,2.93996 4.81762,2.40881 23.76398,-5.36889 28.39414,-4.27631" id="path4968" inkscape:connector-curvature="0"/>
    <svg:path style="fill:none;stroke:#000000;stroke-width:0.26458332px;stroke-linecap:butt;stroke-linejoin:miter;stroke-opacity:1" d="m 296.91718,111.09092 v 99.15699" id="path4972" inkscape:connector-curvature="0"/>
    <svg:path style="fill:none;stroke:#000000;stroke-width:0.26458332px;stroke-linecap:butt;stroke-linejoin:miter;stroke-opacity:1" d="M 296.91718,210.24791 H -0.08282964" id="path4976" inkscape:connector-curvature="0"/>
    <svg:path style="fill:none;stroke:#000000;stroke-width:0.26458332px;stroke-linecap:butt;stroke-linejoin:miter;stroke-opacity:1" d="m -0.08282964,210.24791 v -87.6644" id="path4980" inkscape:connector-curvature="0"/>
    <svg:path style="opacity:1;fill:#5aa02c;fill-opacity:1;stroke:none;stroke-width:0.10101525;stroke-miterlimit:4;stroke-dasharray:none;stroke-opacity:1" d="m 0.89163236,189.45702 -0.06262,-20.74236 35.74729964,-0.17349 c 19.661015,-0.0954 81.029438,-0.29775 136.374278,-0.44965 55.34483,-0.15189 105.82876,-0.30133 112.18652,-0.33208 l 11.55956,-0.0559 -1.6e-4,12.86535 -1.3e-4,12.86534 -7.28311,0.15599 c -4.00568,0.0858 -57.37607,0.28037 -118.60084,0.43241 -61.22477,0.15203 -124.455608,0.3539 -140.512977,0.4486 l -29.1952236,0.17218 -0.07499,7.77799 c -0.04124,4.2779 -0.10316804,-1.55607 -0.13760904,-12.96437 z" id="path4982" inkscape:connector-curvature="0"/>
    <svg:path style="opacity:1;fill:#5aa02c;fill-opacity:1;stroke:none;stroke-width:0.10101525;stroke-miterlimit:4;stroke-dasharray:none;stroke-opacity:1" d="m 1.0962804,202.48012 v -7.58564 l 11.8266766,-0.17125 c 6.504672,-0.0942 54.462847,-0.28537 106.573723,-0.42484 128.18166,-0.34306 170.04317,-0.51282 173.92564,-0.70531 l 3.27406,-0.16233 v 8.14325 8.14325 l -2.84792,0.17425 c -1.56633,0.0958 -68.07636,0.17425 -147.80003,0.17425 H 1.0962804 Z" id="path4984" inkscape:connector-curvature="0"/>
    <svg:path style="opacity:1;fill:#5aa02c;fill-opacity:1;stroke:none;stroke-width:0.10101525;stroke-miterlimit:4;stroke-dasharray:none;stroke-opacity:1" d="M 0.82901136,151.17653 V 138.25765 L 19.070156,138.03429 c 10.032631,-0.12285 37.304145,-0.25937 60.603367,-0.30337 23.299227,-0.044 61.725897,-0.14237 85.392617,-0.2186 23.66671,-0.0762 61.67244,-0.16995 84.45717,-0.20825 22.78473,-0.0383 42.71968,-0.17747 44.29993,-0.30926 l 2.87314,-0.23963 v 13.23624 13.23624 l -50.04622,0.18024 c -122.12145,0.43981 -200.651846,0.6815 -222.368248,0.68439 l -23.45290064,0.003 z" id="path4986" inkscape:connector-curvature="0"/>
    <svg:path style="opacity:1;fill:#5aa02c;fill-opacity:1;stroke:none;stroke-width:0.10101525;stroke-miterlimit:4;stroke-dasharray:none;stroke-opacity:1" d="m 0.82901136,166.40825 v -2.31286 l 40.02361164,-0.001 c 40.483057,-0.001 158.627147,-0.36322 221.566437,-0.67852 l 34.27732,-0.17171 v 2.13063 2.13064 l -22.78473,0.16281 c -12.5316,0.0896 -69.63039,0.28463 -126.88621,0.43353 -57.255812,0.14887 -113.572842,0.34922 -125.148954,0.4452 l -21.04747464,0.17451 z" id="path4988" inkscape:connector-curvature="0"/>
    <svg:path style="opacity:1;fill:#5aa02c;fill-opacity:1;stroke:none;stroke-width:0.10101525;stroke-miterlimit:4;stroke-dasharray:none;stroke-opacity:1" d="m 1.0962804,202.66353 v -7.49114 l 1.9377043,-0.17152 c 1.8894944,-0.16725 78.6889823,-0.49492 201.9889453,-0.8618 33.5891,-0.0999 67.56573,-0.27174 75.50365,-0.38178 9.51868,-0.13194 2.83041,-0.16233 -19.64432,-0.0893 -18.74227,0.0609 -77.01371,0.22444 -129.49208,0.36334 -52.478377,0.1389 -103.262928,0.33136 -112.854563,0.4277 l -17.4393366,0.17516 v -3.59952 c 0,-1.97974 -0.07954,-7.76467 -0.17675404,-12.85542 l -0.176754,-9.2559 3.31717124,-0.0844 3.3171707,-0.0844 -3.2740515,-0.0578 -3.27405144,-0.0578 v -15.07961 -15.07962 l 2.07133844,-0.11729 c 2.1590145,-0.12225 99.7809202,-0.56104 221.2323502,-0.99438 38.95454,-0.13899 71.21732,-0.32969 71.69505,-0.42378 l 0.86863,-0.17107 v 13.11779 13.11779 l -3.00678,0.0853 -3.00678,0.0853 3.00678,0.0571 3.00678,0.0571 v 1.97816 1.97815 l -3.00678,0.17018 c -1.65372,0.0936 -32.23271,0.27567 -67.95328,0.40461 l -64.9465,0.23444 67.95328,-0.12419 67.95328,-0.12418 v 12.69157 12.69158 l -0.86863,0.10779 -0.86862,0.1078 0.86862,0.0428 0.86863,0.0428 v 7.98692 7.98691 l -0.60134,0.1619 c -0.33076,0.089 -66.84078,0.24335 -147.80007,0.3429 l -147.1986896,0.181 z M 56.621525,168.43858 c -7.46016,-0.0395 -19.667696,-0.0395 -27.127856,0 -7.460162,0.0395 -1.356395,0.0718 13.563928,0.0718 14.92032,0 21.024088,-0.0323 13.563928,-0.0718 z m 77.107255,-0.2673 c -11.20861,-0.0386 -29.54998,-0.0386 -40.758598,0 -11.208618,0.0386 -2.037932,0.0702 20.379298,0.0702 22.41723,0 31.58792,-0.0316 20.3793,-0.0702 z m 109.24642,-4.61685 c 23.88502,-0.13396 16.21893,-0.15149 -24.32152,-0.0556 -32.56011,0.077 -85.78016,0.23039 -118.26677,0.34088 -47.3573,0.16107 -42.535837,0.1721 24.32153,0.0556 45.86345,-0.0799 99.08349,-0.23329 118.26676,-0.34088 z" id="path4990" inkscape:connector-curvature="0"/>
    <svg:path style="opacity:1;fill:#5aa02c;fill-opacity:1;stroke:none;stroke-width:0.10101525;stroke-miterlimit:4;stroke-dasharray:none;stroke-opacity:1" d="m 0.82901136,129.72725 v -8.46631 L 1.7954404,119.3589 c 0.5315361,-1.04612 1.2533713,-2.39404 1.6040781,-2.99538 l 0.6376487,-1.09335 5.8126507,-0.17553 c 3.1969591,-0.0965 11.9640291,-0.17582 19.4823781,-0.17618 l 13.669727,-5.3e-4 2.314342,2.67269 c 1.321724,1.52639 2.519347,2.6727 2.792326,2.6727 0.26289,0 1.188373,-0.24705 2.056624,-0.549 4.858962,-1.68978 8.003869,-1.96921 10.544451,-0.93688 3.852844,1.56555 7.376392,4.63428 12.346604,10.75291 1.572958,1.93641 2.967646,3.58732 3.099308,3.66869 0.131659,0.0814 2.45038,-0.15787 5.152715,-0.53165 7.03145,-0.97258 8.071414,-0.87841 13.599591,1.23142 5.953666,2.27222 6.574196,2.28324 11.358956,0.20163 11.21823,-4.88048 21.54828,-5.4504 30.23465,-1.66809 3.773,1.64288 5.0469,1.75549 19.07658,1.68636 l 11.35895,-0.056 1.97034,0.71259 c 2.78347,1.00667 4.27053,1.16362 5.40396,0.57036 0.55059,-0.28818 1.82523,-0.5446 3.22156,-0.64806 l 2.31051,-0.17121 3.83669,-3.62216 c 8.21961,-7.75999 13.39835,-11.85169 19.3471,-15.28608 l 2.14692,-1.23948 29.85861,0.001 c 16.42222,5.3e-4 30.1292,0.0303 30.45996,0.066 0.33073,0.0356 -6.55479,0.1278 -15.30119,0.2048 l -15.90254,0.14 16.60489,0.0636 c 14.05282,0.0538 16.75236,0.12525 17.56439,0.46454 1.24942,0.52204 4.23969,0.51352 7.12386,-0.0203 1.24949,-0.23126 2.87316,-0.41823 3.60814,-0.41549 0.90226,0.003 1.16676,-0.0626 0.81431,-0.20306 -1.05391,-0.42003 1.23524,-0.56386 8.97443,-0.56386 h 7.71742 v 11.19415 11.19415 l -0.60134,0.17802 c -0.68483,0.20273 -65.41359,0.53282 -195.70813,0.99802 -49.391408,0.17634 -91.9975123,0.36397 -94.6802301,0.41693 l -4.87766854,0.0963 z M 19.453362,115.51943 c -2.91295,-0.0432 -7.60353,-0.0431 -10.423512,1.4e-4 -2.8199816,0.0433 -0.4366594,0.0786 5.296272,0.0785 5.732932,-7e-5 8.04019,-0.0355 5.12724,-0.0786 z" id="path4992" inkscape:connector-curvature="0"/>
    <svg:path style="opacity:1;fill:#5aa02c;fill-opacity:1;stroke:none;stroke-width:0.10101525;stroke-miterlimit:4;stroke-dasharray:none;stroke-opacity:1" d="m 207.87736,113.03896 c 6.11136,-2.91629 11.41611,-4.25178 17.72947,-4.46346 4.41331,-0.14797 7.3899,0.12153 11.19229,1.01338 1.2336,0.28933 4.18024,0.70467 6.5481,0.92297 5.07447,0.46782 5.95739,0.65206 9.04077,1.88656 1.82459,0.73051 2.95534,0.99004 5.21175,1.1962 1.58489,0.1448 3.90392,0.36473 5.15341,0.48872 1.3634,0.1353 -9.69758,0.23114 -27.6624,0.23971 l -29.93418,0.0143 2.72079,-1.29834 z" id="path4994" inkscape:connector-curvature="0"/>
    <svg:path style="opacity:1;fill:#5aa02c;fill-opacity:1;stroke:none;stroke-width:0.10101525;stroke-miterlimit:4;stroke-dasharray:none;stroke-opacity:1" d="m 287.23499,112.63926 c 3.10163,-0.78263 6.4993,-1.50769 7.55036,-1.61126 l 1.91103,-0.18831 v 1.63815 1.63815 l -7.55036,-0.0269 -7.55036,-0.0269 z" id="path4996" inkscape:connector-curvature="0"/>
    <svg:path style="opacity:1;fill:#5aa02c;fill-opacity:1;stroke:none;stroke-width:0.10101525;stroke-miterlimit:4;stroke-dasharray:none;stroke-opacity:1" d="m 4.3338562,114.96591 c 0.056811,-0.16742 0.8815215,-1.41937 1.8326894,-2.78213 2.148251,-3.07784 7.8440174,-8.81731 10.0150114,-10.09186 3.403812,-1.9983 6.412031,-2.554254 9.254114,-1.71025 4.996234,1.48373 10.338161,5.58632 15.510199,11.91182 l 2.145768,2.62431 H 26.144061 c -9.321167,0 -18.0649087,0.0793 -19.4305373,0.17625 -1.8063729,0.12822 -2.4548142,0.0933 -2.3796675,-0.12814 z" id="path4998" inkscape:connector-curvature="0"/>
    <svg:path style="opacity:1;fill:#5aa02c;fill-opacity:1;stroke:none;stroke-width:0.10101525;stroke-miterlimit:4;stroke-dasharray:none;stroke-opacity:1" d="m 1.0962804,202.6556 v -7.49627 l 0.868626,-0.14808 c 0.4777444,-0.0814 35.2662136,-0.28258 77.3077116,-0.44696 42.041492,-0.16439 100.373072,-0.40036 129.625722,-0.52439 l 53.18664,-0.22551 -69.75735,0.12092 c -38.36654,0.0665 -97.050755,0.23336 -130.409366,0.37076 -33.358606,0.13741 -60.6862536,0.2156 -60.7281016,0.17375 -0.04185,-0.0418 -0.159473,-5.80396 -0.26138904,-12.8047 l -0.185302,-12.72862 0.91139604,-0.11099 0.9113956,-0.11099 -0.8686256,-0.0428 -0.86862604,-0.0428 v -15.08609 -15.08608 l 1.26953004,-0.10011 1.2695301,-0.1001 -1.2695301,-0.0482 -1.26953004,-0.0482 v -8.29021 -8.29021 L 2.1430654,118.9887 c 2.0841484,-4.12533 0.602084,-3.6464 11.8272036,-3.82198 l 9.710287,-0.15189 -9.488069,-0.0367 c -7.2825665,-0.0281 -9.4690739,-0.11193 -9.4063555,-0.36051 0.2599253,-1.03021 3.3203129,-4.82724 6.3327565,-7.85706 5.293267,-5.32382 7.280055,-6.40644 11.759859,-6.4081 2.630114,-10e-4 2.713148,0.0186 5.211757,1.2271 1.396481,0.67544 3.501229,1.95031 4.677217,2.83302 2.386169,1.79111 6.673871,6.11752 9.086696,9.16873 2.683325,3.39328 5.502453,6.41005 6.139516,6.56994 0.344208,0.0864 1.749981,-0.21481 3.247507,-0.69581 3.625805,-1.16459 7.3303,-1.37924 9.424932,-0.54611 3.624077,1.44146 7.120517,4.46955 12.34259,10.68931 1.534033,1.82711 2.863588,3.43236 2.954565,3.56722 0.09777,0.14492 1.965256,0.016 4.566597,-0.31524 2.420649,-0.30824 5.533404,-0.56032 6.917227,-0.56018 2.310284,2.3e-4 2.800192,0.10105 5.990551,1.2329 5.094393,1.80734 7.027358,2.29802 8.374988,2.12597 0.63729,-0.0814 2.80218,-0.8002 4.81085,-1.59743 7.7118,-3.06075 11.04268,-3.76875 17.68379,-3.75883 5.4878,0.008 7.53107,0.36154 11.64437,2.01372 4.33012,1.73925 3.63066,1.66956 17.88892,1.78249 l 13.0962,0.10373 2.35382,0.78585 c 2.65484,0.88634 3.63597,0.95912 5.25055,0.38946 0.61792,-0.21801 2.05908,-0.47441 3.20259,-0.56978 l 2.07912,-0.17339 3.3123,-3.08495 c 9.0478,-8.4268 13.35572,-11.8705 19.40632,-15.51317 l 2.73054,-1.64389 22.92733,0.0601 c 13.29844,0.0349 19.95281,0.12187 15.84469,0.20715 -6.58957,0.13679 -6.22675,0.15292 5.21176,0.23166 6.76192,0.0465 13.91806,0.20025 15.90254,0.34157 1.98448,0.14131 4.51016,0.3235 5.61266,0.40486 1.94164,0.14328 9.501,-0.656 9.18138,-0.97079 -0.0787,-0.0775 2.00271,-0.2724 4.62539,-0.43308 l 4.76846,-0.29214 -3.07361,-0.0662 -3.07359,-0.0662 2.40543,-0.63935 c 2.739,-0.72801 7.936,-1.8429 9.82216,-2.10711 l 1.26952,-0.17783 v 12.80305 12.80306 l -5.01131,0.17514 c -2.75622,0.0963 -13.03941,0.17547 -22.85154,0.17589 -12.24064,5.3e-4 -17.84024,0.0885 -17.84024,0.28039 0,0.28151 38.27661,0.1396 43.36449,-0.16078 l 2.3386,-0.13806 v 13.08722 13.08722 l -0.60134,0.11583 -0.60138,0.11582 0.60138,0.0364 c 0.56692,0.0343 0.60134,0.15112 0.60134,2.04092 0,1.10249 -0.0301,2.02946 -0.0668,2.05995 -0.0368,0.0305 -10.04935,0.12366 -22.25018,0.20706 l -22.18339,0.15164 22.25019,0.0602 22.25019,0.0602 v 12.67302 c 0,9.88835 -0.0734,12.70265 -0.33409,12.80784 -0.26725,0.10784 -0.26725,0.13902 0,0.1559 0.25937,0.0164 0.33409,1.80843 0.33409,8.0106 0,7.36245 -0.0367,8.00358 -0.46773,8.16906 -0.25723,0.0988 -66.76726,0.25128 -147.80004,0.33892 L 1.0962804,210.1516 Z M 280.72703,193.56386 c -1.06574,-0.0507 -2.80966,-0.0507 -3.8754,0 -1.06575,0.0507 -0.19379,0.0922 1.9377,0.0922 2.13145,0 3.00344,-0.0415 1.9377,-0.0922 z M 40.852623,168.45474 c -0.257247,-0.0672 -0.678196,-0.0672 -0.935442,0 -0.257249,0.0672 -0.04677,0.12223 0.467719,0.12223 0.514496,0 0.724969,-0.055 0.467723,-0.12223 z m 4.543581,-0.007 c -0.404244,-0.0612 -1.065736,-0.0612 -1.469983,0 -0.404243,0.0612 -0.0735,0.11134 0.734992,0.11134 0.80849,0 1.139237,-0.0501 0.734991,-0.11134 z m 66.550116,-0.26727 c -0.40425,-0.0612 -1.06574,-0.0612 -1.46998,0 -0.40425,0.0612 -0.0735,0.11134 0.73499,0.11134 0.80849,0 1.13923,-0.0501 0.73499,-0.11134 z m 4.2811,5.3e-4 c -0.40162,-0.061 -1.12324,-0.0622 -1.60362,-0.003 -0.48038,0.0595 -0.15178,0.10938 0.7302,0.11088 0.882,0.002 1.27503,-0.0472 0.87342,-0.10816 z m -14.03644,-4.26243 c -0.18375,-0.0741 -0.48442,-0.0741 -0.66817,0 -0.18375,0.0741 -0.0334,0.13481 0.33408,0.13481 0.3675,0 0.51784,-0.0607 0.33409,-0.13481 z m 89.82298,-0.29065 c -7.52244,-0.0394 -19.91038,-0.0394 -27.52876,-2e-5 -7.61839,0.0394 -1.46367,0.0717 13.67714,0.0717 15.14082,2e-5 21.37405,-0.0323 13.85162,-0.0717 z m 50.76447,-0.25502 c -0.32873,-0.0634 -0.93008,-0.0651 -1.33635,-0.004 -0.40627,0.0614 -0.13731,0.11334 0.59768,0.11535 0.73499,0.002 1.06739,-0.0483 0.73867,-0.1117 z M 24.434228,137.97005 c -3.701431,-0.0419 -9.835267,-0.0419 -13.630746,-9e-5 -3.7954794,0.0418 -0.767036,0.0761 6.729875,0.0762 7.49691,5e-5 10.602301,-0.0342 6.900871,-0.0761 z m 64.012034,-0.26739 c -5.244373,-0.0405 -13.903907,-0.0405 -19.243405,-5e-5 -5.339501,0.0405 -1.048652,0.0736 9.535221,0.0737 10.583873,3e-5 14.952556,-0.0331 9.708184,-0.0736 z m 87.511108,-0.26736 c -9.15064,-0.039 -24.12441,-0.039 -33.27506,0 -9.15064,0.039 -1.66375,0.0709 16.63753,0.0709 18.30128,0 25.78817,-0.0319 16.63753,-0.0709 z M 17.481619,115.52023 c -1.645437,-0.0468 -4.411676,-0.047 -6.1472,-2.6e-4 -1.7355228,0.0466 -0.389256,0.0849 2.991703,0.0851 3.38096,1.9e-4 4.800933,-0.038 3.155497,-0.0848 z" id="path5000" inkscape:connector-curvature="0"/>
    <svg:path style="opacity:1;fill:#5aa02c;fill-opacity:1;stroke:none;stroke-width:0.10101525;stroke-miterlimit:4;stroke-dasharray:none;stroke-opacity:1" d="m 1.0962804,202.62056 c 0,-4.13704 0.03007,-7.53977 0.06682,-7.56162 0.03675,-0.0218 2.2918364,-0.11954 5.0113038,-0.21709 l 4.9444868,-0.17736 -4.9688016,-0.0502 -4.968801,-0.0502 -0.176137,-5.65575 c -0.30423104,-9.76883 -0.22428804,-19.93815 0.15795,-20.09239 0.267269,-0.10784 0.267269,-0.13902 0,-0.1559 -0.26307404,-0.0166 -0.33408704,-3.22713 -0.33408704,-15.10408 V 138.473 l 0.73499104,-0.11135 0.734991,-0.11134 -0.734991,-0.04 -0.73499104,-0.04 v -8.39616 -8.39615 l 1.47770894,-2.75671 c 0.8127399,-1.51619 1.6004259,-2.87952 1.7504129,-3.02962 0.1607569,-0.16087 2.8730618,-0.33755 6.6071938,-0.43037 l 6.334491,-0.15747 -6.1472,-0.023 c -4.9560767,-0.0186 -6.1316583,-0.0916 -6.0669957,-0.37708 0.1515954,-0.66923 2.0245993,-3.21053 4.0846412,-5.54207 3.4109785,-3.86051 6.2546145,-6.3166 8.7775785,-7.58131 2.221635,-1.11366 2.289306,-1.1287 5.078121,-1.1287 2.780303,0 2.865464,0.0187 5.212763,1.14645 1.312455,0.63055 3.176659,1.70414 4.142679,2.38576 2.54422,1.79518 6.567075,5.80635 10.127972,10.09854 3.329437,4.0132 5.502836,6.28269 6.011971,6.27778 0.17395,-0.002 1.518986,-0.37428 2.988969,-0.82802 3.449254,-1.06467 7.147758,-1.32746 9.180491,-0.6523 3.374139,1.12071 7.492553,4.66587 12.890005,11.0958 l 2.79663,3.3316 1.330817,-0.0774 c 0.731949,-0.0426 2.713938,-0.2479 4.404419,-0.45632 1.690478,-0.20841 4.216498,-0.37989 5.613371,-0.38107 2.382213,-0.002 2.800717,0.0878 6.746136,1.4484 2.313501,0.79779 4.860785,1.58638 5.660633,1.75243 1.758068,0.36498 2.441168,0.2124 7.103198,-1.58659 7.13326,-2.7526 10.11883,-3.45229 15.65968,-3.66997 5.8571,-0.2301 8.44978,0.20079 14.16353,2.35393 3.61773,1.36329 6.01912,1.55224 19.86128,1.56276 l 10.26224,0.008 2.50308,0.8018 c 2.88066,0.92276 3.23794,0.94972 5.13186,0.38729 0.76771,-0.22798 2.28045,-0.49859 3.36165,-0.60135 l 1.96582,-0.18684 4.37085,-4.04822 c 8.04303,-7.44934 12.35186,-10.87962 17.87817,-14.2329 l 3.12751,-1.89774 22.95312,0.0577 c 12.62422,0.0317 20.7281,0.12192 18.00864,0.20045 -3.85033,0.11119 -2.07602,0.17969 8.01808,0.30954 8.57956,0.11037 13.65181,0.28299 15.00094,0.51051 1.7526,0.29558 2.63306,0.27834 6.28084,-0.12293 2.33336,-0.25669 4.28255,-0.57662 4.33155,-0.71097 0.049,-0.13434 0.83076,-0.25832 1.73725,-0.27551 0.90649,-0.0172 2.42993,-0.11911 3.38542,-0.22651 l 1.73726,-0.19527 -1.73726,-0.0647 -1.73725,-0.0647 1.33636,-0.37172 c 2.43782,-0.67809 9.33238,-2.21138 10.75759,-2.3924 l 1.40316,-0.17821 v 12.81258 12.81258 l -3.6504,0.17507 c -2.00771,0.0963 -11.64947,0.17507 -21.42612,0.17507 -9.77662,0 -17.69507,0.0806 -17.59652,0.17918 0.22065,0.22065 37.40892,0.13934 40.46806,-0.0885 l 2.20498,-0.16421 v 13.11069 c 0,10.23847 -0.0732,13.14022 -0.33409,13.24549 -0.26725,0.10785 -0.26725,0.13903 0,0.15591 0.23572,0.0149 0.33409,0.61144 0.33409,2.02562 0,1.10249 -0.0301,2.03217 -0.0668,2.06595 -0.0368,0.0338 -7.10268,0.12591 -15.70209,0.20472 l -15.63526,0.14329 15.70151,0.0625 15.70154,0.0625 -0.003,20.8195 c -0.003,19.52822 -0.0311,20.83129 -0.46714,21.00968 -0.25572,0.10461 -66.76449,0.25453 -147.79727,0.33315 L 1.0962834,210.14253 Z M 27.89005,194.63187 c -1.65373,-0.0469 -4.359833,-0.0469 -6.013564,0 -1.65373,0.0469 -0.300678,0.0853 3.006783,0.0853 3.307459,0 4.660512,-0.0384 3.006781,-0.0853 z m 55.458427,-0.26817 c -9.518134,-0.0389 -25.093266,-0.0389 -34.611403,0 -9.518137,0.0389 -1.730571,0.0708 17.305703,0.0708 19.03627,0 26.823836,-0.0318 17.3057,-0.0708 z m 143.791003,-0.53439 c -4.0792,-0.0415 -10.75425,-0.0415 -14.83345,0 -4.07921,0.0415 -0.74168,0.0754 7.41673,0.0754 8.1584,0 11.49593,-0.0339 7.41672,-0.0754 z m 11.22844,0.0166 c -0.25553,-0.0669 -0.73662,-0.0693 -1.06908,-0.005 -0.33246,0.0639 -0.12339,0.11866 0.46461,0.12163 0.58799,0.003 0.86001,-0.0493 0.60447,-0.11624 z m -77.64491,-56.40812 c -0.91874,-0.0522 -2.42213,-0.0522 -3.34087,0 -0.91874,0.0522 -0.16705,0.0949 1.67043,0.0949 1.83748,0 2.58918,-0.0427 1.67044,-0.0949 z m 92.60332,-0.23086 c -0.0888,-0.0888 -0.31933,-0.0983 -0.51227,-0.0211 -0.21321,0.0853 -0.14988,0.14865 0.16148,0.16147 0.28174,0.0116 0.4396,-0.0516 0.35079,-0.14038 z M 15.061113,115.52627 c -0.477744,-0.0593 -1.259507,-0.0593 -1.737251,0 -0.477745,0.0593 -0.08686,0.10779 0.868625,0.10779 0.955489,0 1.346371,-0.0485 0.868626,-0.10779 z" id="path5002" inkscape:connector-curvature="0"/>
    <svg:path style="opacity:1;fill:#5aa02c;fill-opacity:1;stroke:none;stroke-width:0.10101525;stroke-miterlimit:4;stroke-dasharray:none;stroke-opacity:1" d="m 1.0962804,202.5873 v -7.47846 l 0.601357,-0.14076 c 0.330746,-0.0774 2.4054254,-0.17339 4.6103989,-0.21326 l 4.0090427,-0.0725 -4.5688955,-0.0591 -4.5688961,-0.0591 -0.174121,-4.07586 c -0.09577,-2.24172 -0.17444204,-14.86023 -0.17483604,-28.04113 -5.64e-4,-18.91111 0.06968,-23.99367 0.33306904,-24.09997 0.266662,-0.10762 0.266601,-0.13895 -3.01e-4,-0.15581 -0.25994004,-0.0164 -0.33281704,-1.90444 -0.32836504,-8.50691 l 0.0057,-8.4858 1.53357044,-2.80633 c 1.2404464,-2.26994 1.6608072,-2.82343 2.1992512,-2.89578 0.3661243,-0.0492 0.7859522,-0.20666 0.9329504,-0.34992 0.175178,-0.17073 0.1154245,-0.2027 -0.1734177,-0.0928 -2.2122063,0.84178 2.4552741,-5.38587 7.6751843,-10.24074 1.722515,-1.60205 3.014151,-2.53228 4.638848,-3.34087 2.217024,-1.10338 2.295095,-1.12061 5.078121,-1.12061 2.769095,0 2.873719,0.0227 5.153255,1.1179 1.279726,0.61485 3.083796,1.63072 4.009044,2.25748 2.374212,1.60831 6.687343,5.8734 10.37087,10.25537 1.729954,2.05798 3.734324,4.3132 4.454155,5.01161 l 1.308777,1.26984 1.594128,-0.42223 c 4.932979,-1.30659 5.693878,-1.44886 7.71726,-1.44293 1.625243,0.005 2.527285,0.15674 3.632203,0.61192 3.422219,1.40982 7.395276,4.91284 12.409223,10.94115 3.025619,3.63773 2.446028,3.44026 8.047053,2.74164 1.758392,-0.21932 4.399791,-0.39778 5.869771,-0.39658 2.501077,0.002 2.930126,0.0889 6.68174,1.35283 5.096835,1.71712 7.00849,2.13511 8.36789,1.82967 0.57243,-0.12861 2.89278,-0.94176 5.15634,-1.80698 6.97718,-2.66697 11.08015,-3.52013 16.92883,-3.52013 4.19937,0 7.01104,0.4988 11.21196,1.98905 1.85094,0.65661 4.11807,1.33474 5.03806,1.50695 1.01393,0.1898 6.67257,0.3907 14.36801,0.51011 l 12.6953,0.19698 2.27179,0.72678 c 2.2645,0.72445 2.27785,0.72539 4.15897,0.293 1.03795,-0.23858 2.74197,-0.52512 3.7867,-0.63675 l 1.89953,-0.20296 3.02867,-2.81833 c 9.35283,-8.70327 13.25095,-11.82734 19.53842,-15.65862 l 2.73366,-1.66577 22.98518,0.0491 c 12.64184,0.027 21.54192,0.12098 19.77794,0.20884 -2.20718,0.10994 -0.49876,0.17781 5.47903,0.21765 4.77744,0.0318 10.49032,0.20401 12.69529,0.3826 2.20499,0.17859 4.80036,0.31542 5.76752,0.30407 2.42358,-0.0284 7.71184,-0.65933 7.88577,-0.94078 0.0784,-0.12694 0.76698,-0.24134 1.53004,-0.25422 0.76308,-0.0129 1.98874,-0.11708 2.72372,-0.23156 l 1.33636,-0.20814 -1.06907,-0.06 c -0.91107,-0.0511 -0.63458,-0.17392 1.87089,-0.83105 3.4602,-0.90753 9.17239,-2.12037 9.98643,-2.12037 h 0.57071 v 12.81722 12.81723 l -1.9377,0.0922 -1.9377,0.0922 1.94228,0.0531 1.94225,0.0531 -0.0714,15.30118 -0.0714,15.30118 -11.35896,0.138 -11.35893,0.138 11.42738,0.0625 11.42741,0.0624 -0.0684,20.91384 -0.0685,20.91384 -34.07686,0.16155 c -18.74228,0.0889 -85.22223,0.17906 -147.73323,0.20045 l -113.6563396,0.0389 z m 71.8286866,-8.22337 c -3.344211,-0.0424 -8.816554,-0.0424 -12.160765,0 -3.344209,0.0424 -0.608037,0.0771 6.080381,0.0771 6.688421,0 9.424593,-0.0347 6.080384,-0.0771 z M 283.80062,136.90084 c -4.96118,-0.0407 -13.0795,-0.0407 -18.0407,0 -4.96118,0.0407 -0.90202,0.074 9.02036,0.074 9.92238,0 13.98154,-0.0333 9.02034,-0.074 z" id="path5004" inkscape:connector-curvature="0"/>
    <svg:path style="opacity:1;fill:#5aa02c;fill-opacity:1;stroke:none;stroke-width:0.10101525;stroke-miterlimit:4;stroke-dasharray:none;stroke-opacity:1" d="m 1.1589354,202.51539 0.07098,-7.55037 3.2072344,-0.14669 3.2072345,-0.14669 -3.2333187,-0.0538 -3.2333192,-0.0538 -0.17484,-3.06126 C 0.9067464,189.8191 0.83005436,173.31187 0.83248636,154.82004 l 0.0044,-33.62148 1.53285154,-2.80633 c 1.1814174,-2.16293 1.6743005,-2.82638 2.1498096,-2.89378 0.4605251,-0.0653 0.5464099,-0.17246 0.3387223,-0.42271 -0.5970194,-0.71936 3.0528659,-5.39147 7.6133652,-9.74564 2.247784,-2.14609 3.294094,-2.93072 5.104267,-3.8277 2.078877,-1.03012 2.49109,-1.13762 4.739435,-1.23595 2.208394,-0.0966 2.652765,-0.0316 4.305954,0.62978 5.252964,2.10152 9.084848,5.35109 16.376526,13.88786 1.757818,2.05797 3.602882,4.12602 4.10014,4.59567 l 0.904105,0.85389 3.608138,-0.94196 c 3.167068,-0.82682 3.918808,-0.93036 6.149555,-0.84704 2.358292,0.0881 2.676056,0.16888 4.409945,1.12133 3.424137,1.88091 5.844458,4.09326 10.704071,9.7843 1.443508,1.69048 2.863532,3.24559 3.155603,3.45581 0.461899,0.33245 1.090385,0.3231 4.827093,-0.0718 7.255671,-0.7668 8.224475,-0.69152 13.589127,1.05603 6.084536,1.98204 7.023866,2.05096 10.484876,0.76923 9.74079,-3.60733 13.23268,-4.40746 19.23496,-4.40746 4.51995,0 7.05189,0.45336 12.03558,2.15503 l 4.00904,1.36888 5.47903,0.22796 c 3.01346,0.12537 9.10211,0.23453 13.53032,0.24257 6.58213,0.012 8.26471,0.0906 9.2208,0.43083 2.80087,0.99682 4.13582,1.16527 5.91353,0.74623 0.91874,-0.21657 2.54288,-0.49336 3.6092,-0.6151 l 1.93876,-0.22134 3.40663,-3.1844 c 8.73845,-8.16841 13.68986,-12.08276 19.99289,-15.80541 l 1.88643,-1.11415 22.96963,0.0472 c 12.6333,0.026 22.12773,0.12499 21.09875,0.22007 -1.09152,0.10087 1.24659,0.19352 5.61266,0.22242 4.11595,0.0273 9.16734,0.1787 11.22531,0.33655 2.05798,0.15785 4.60873,0.28574 5.66833,0.2842 2.26031,-0.003 6.87022,-0.49605 7.82878,-0.83682 0.36751,-0.13064 1.63036,-0.32452 2.80633,-0.43083 1.43963,-0.13015 1.9199,-0.24924 1.47,-0.36451 -0.49705,-0.12737 0.2559,-0.3971 2.93994,-1.05319 3.97947,-0.97274 8.54832,-1.89959 9.36393,-1.89959 0.51461,0 0.52506,0.25528 0.52506,12.81429 v 12.8143 l -1.26952,0.1001 -1.26955,0.10011 1.2705,0.0482 1.27048,0.0482 -0.0678,36.41547 -0.0678,36.41547 -28.0633,0.1617 c -15.43481,0.0889 -81.91664,0.17913 -147.73739,0.20045 L 1.0879354,210.06568 Z M 281.66246,167.65293 c -0.25725,-0.0672 -0.67818,-0.0672 -0.93543,0 -0.25725,0.0672 -0.0468,0.12223 0.4677,0.12223 0.51451,0 0.72499,-0.055 0.46773,-0.12223 z m -0.91876,-30.75158 c -2.23256,-0.0446 -5.96096,-0.0447 -8.28535,-2.1e-4 -2.32439,0.0445 -0.49776,0.0811 4.05919,0.0812 4.55694,1.2e-4 6.45871,-0.0363 4.22616,-0.081 z" id="path5006" inkscape:connector-curvature="0"/>
    <svg:path style="opacity:1;fill:#5aa02c;fill-opacity:1;stroke:none;stroke-width:0.10101525;stroke-miterlimit:4;stroke-dasharray:none;stroke-opacity:1" d="m 1.0962804,202.4586 v -7.60715 l 2.4722434,-0.0882 2.4722431,-0.0882 -2.4322215,-0.0555 -2.432222,-0.0555 -0.173656,-2.44648 C 0.90715736,190.772 0.83069836,174.26476 0.83276036,155.43483 l 0.0038,-34.23626 1.42945104,-2.6727 c 0.818255,-1.52992 1.6753018,-2.78618 2.0044405,-2.9381 0.3162443,-0.14598 0.5180584,-0.41377 0.4484762,-0.5951 -0.2718782,-0.70851 2.7588652,-4.60411 6.5246069,-8.3865 3.510073,-3.52559 4.112134,-4.01392 6.246898,-5.06681 2.168038,-1.06932 2.563938,-1.17378 4.810851,-1.26943 2.131879,-0.0908 2.682133,-0.0158 4.256409,0.57955 5.085212,1.92321 8.719583,4.97679 16.107833,13.53371 2.094209,2.42548 4.151671,4.7257 4.572131,5.11163 l 0.764476,0.70167 3.608138,-0.9192 c 3.150394,-0.80259 3.930254,-0.90644 6.1472,-0.81857 2.207273,0.0875 2.752802,0.21016 4.174765,0.93883 3.170185,1.62454 6.035082,4.23374 11.318752,10.30855 1.512677,1.73918 2.919722,3.22715 3.126761,3.30659 0.207038,0.0795 2.285838,-0.0646 4.619556,-0.32015 2.603378,-0.28507 5.310648,-0.41592 7.005537,-0.33862 2.450296,0.11175 3.230489,0.28514 6.905093,1.53461 5.907935,2.00887 6.712815,1.99473 12.534115,-0.22022 7.2361,-2.75328 10.89214,-3.51622 16.84986,-3.51622 4.38284,0 6.94716,0.46352 11.90917,2.15262 l 4.00904,1.36471 6.94901,0.23147 c 3.82195,0.1273 9.89565,0.23948 13.49711,0.24927 6.21337,0.0169 6.65451,0.0518 8.62962,0.68256 2.20634,0.70463 3.73929,0.82319 5.26839,0.40746 0.5145,-0.13988 1.92839,-0.37646 3.14199,-0.52574 l 2.20654,-0.27143 4.60883,-4.26926 c 7.81783,-7.24181 12.87812,-11.195 18.78967,-14.67883 l 1.88643,-1.11173 22.96963,0.0352 c 12.6333,0.0193 22.54868,0.11611 22.03419,0.21502 -0.51449,0.0989 3.09365,0.26266 8.01809,0.36389 4.92444,0.10123 10.45691,0.2532 12.29438,0.33772 3.29293,0.15145 3.85128,0.10013 11.35896,-1.04403 1.176,-0.17922 1.95776,-0.39309 1.73726,-0.47528 -0.6168,-0.22989 10.85548,-2.907 12.45745,-2.907 h 0.63876 v 12.812 12.812 l -0.86863,0.1078 -0.86862,0.1078 0.86958,0.0428 0.86958,0.0428 -0.0678,36.41547 -0.0678,36.41547 -23.38607,0.16172 c -12.86235,0.0889 -79.34231,0.17915 -147.73324,0.20045 l -124.3471486,0.0387 z" id="path5008" inkscape:connector-curvature="0"/>
    <svg:path style="opacity:1;fill:#5aa02c;fill-opacity:1;stroke:none;stroke-width:0.10101525;stroke-miterlimit:4;stroke-dasharray:none;stroke-opacity:1" d="m 1.0962804,202.46078 c -0.04603,-3.27698 0.462795,-4.8946 1.8040694,-7.69847 l 1.8040694,-0.0935 -1.7648513,-0.0524 -1.7648515,-0.0523 C 2.0607094,180.40038 0.85202536,167.58426 0.82901136,155.80982 v -34.66461 l 1.35077724,-2.51235 c 0.7429277,-1.38179 1.5547588,-2.69695 1.8040693,-2.92258 0.2493106,-0.22562 0.7333615,-0.96365 1.0756694,-1.64005 0.9688878,-1.91452 3.7185875,-5.18324 7.0726257,-8.40762 2.350518,-2.25966 3.585235,-3.2211 5.301739,-4.12834 l 2.237621,-1.18266 h 3.073599 c 3.069092,0 3.076975,0.002 5.375219,1.12563 4.599453,2.24941 7.554034,4.88257 14.927873,13.30394 3.051289,3.48475 4.741818,5.21474 5.095791,5.21474 0.291335,0 2.00225,-0.37354 3.802033,-0.8301 2.82325,-0.71619 3.620783,-0.81481 5.811393,-0.71861 2.126522,0.0934 2.777897,0.2341 4.009043,0.86606 3.377166,1.73354 5.825366,3.91268 10.873505,9.67849 1.822193,2.08125 3.503811,3.85728 3.736927,3.94673 0.233117,0.0895 2.302103,-0.0321 4.597747,-0.27011 2.376614,-0.24641 5.383167,-0.38252 6.98223,-0.31609 2.500683,0.10388 3.276801,0.27129 7.084647,1.52817 5.92488,1.95565 6.329,1.94543 12.56167,-0.31768 7.62261,-2.76781 10.71378,-3.39657 16.74164,-3.40532 4.47938,-0.007 6.63569,0.38291 12.01197,2.1693 l 4.12054,1.36913 7.88445,0.21789 c 4.33645,0.11984 10.32738,0.22453 13.31319,0.23266 5.0358,0.0137 5.60502,0.0655 7.86444,0.7155 2.65432,0.76363 2.89086,0.7604 7.84366,-0.10711 l 2.69524,-0.47208 3.58715,-3.33482 c 8.50488,-7.90662 12.51454,-11.11652 18.48142,-14.79514 l 2.87026,-1.76953 h 22.9723 c 15.02656,0 23.02943,0.0924 23.13747,0.26727 0.10145,0.16414 2.24751,0.26561 5.56162,0.26297 2.96804,-0.002 7.862,0.13632 10.87547,0.3082 4.81423,0.2746 5.86817,0.25815 8.68624,-0.13554 5.2877,-0.73869 6.94185,-1.03133 7.0861,-1.25359 0.27414,-0.42241 11.11115,-2.92381 12.66703,-2.92381 h 0.693 v 12.81035 12.81035 l -0.60134,0.11582 -0.60138,0.11583 0.60233,0.0364 0.6023,0.0364 -0.0678,36.41547 -0.0678,36.41548 -21.64882,0.16238 c -11.90686,0.0893 -78.38682,0.17952 -147.73324,0.20046 L 1.0962304,210.0658 Z" id="path5010" inkscape:connector-curvature="0" sodipodi:nodetypes="cccccccsccsscscsssssscccsscscscsccsscsccsccscccccccccsscc"/>
    <svg:path style="opacity:1;fill:#5aa02c;fill-opacity:1;stroke:#5aa02c;stroke-width:0.10128453;stroke-miterlimit:4;stroke-dasharray:none;stroke-opacity:1" d="m -0.1397059,122.73451 c 3.1289558,-1.29467 7.1119139,-11.20401 11.0329479,-15.78086 3.440318,-3.52439 5.941296,-5.38178 8.413051,-6.24809 1.254394,-0.43965 2.035368,-0.52251 4.140944,-0.43937 2.46052,0.0971 2.725061,0.16734 5.105245,1.35448 4.469215,2.22906 7.400431,4.79763 14.107141,12.3618 2.085358,2.35195 4.211793,4.67454 4.72541,5.16128 l 0.933856,0.88499 3.497907,-0.81817 c 4.10316,-0.95974 7.41193,-1.09291 9.267404,-0.37298 3.216377,1.24796 6.392456,3.91816 11.709798,9.84466 1.846439,2.05797 3.641494,3.86822 3.989009,4.02279 0.447885,0.19921 1.589893,0.18499 3.922452,-0.0488 1.809832,-0.18142 4.765828,-0.33796 6.568874,-0.34785 3.223891,-0.0177 3.34868,0.004 7.523517,1.33591 2.66852,0.85106 4.953357,1.41019 6.15178,1.50544 1.83781,0.14607 2.10898,0.083 7.52351,-1.75101 7.99835,-2.7091 9.31795,-2.99189 14.78669,-3.16877 5.8586,-0.18949 7.88648,0.10465 13.5352,1.96325 l 4.43351,1.45877 13.30051,0.26496 c 13.04907,0.25996 13.3529,0.27827 16.0725,0.9685 l 2.77202,0.70353 2.46758,-0.44211 c 1.35718,-0.24316 2.95124,-0.51775 3.54237,-0.61021 1.46799,-0.22959 1.8277,-0.48775 5.87021,-4.21293 7.38017,-6.80084 12.17934,-10.60635 17.69415,-14.03059 l 3.07567,-1.90974 12.74361,-0.0627 12.74359,-0.0627 -12.2257,-0.13773 -12.22573,-0.13773 2.95567,-1.2979 c 7.12723,-3.12971 10.29091,-3.77422 18.5401,-3.777 5.32249,-0.002 6.59016,0.0802 9.1357,0.59116 1.62561,0.32628 5.07165,0.84619 7.65786,1.15535 3.83638,0.45861 5.28331,0.7597 7.85809,1.63519 3.26706,1.68081 5.07854,1.46373 7.89049,1.24915 1.75945,-0.26378 5.79381,0.0656 7.56707,0.21132 6.2306,0.36194 5.88595,1.6816 9.06234,1.28714 1.92119,-0.23857 5.81014,-1.02499 8.64213,-1.74761 5.85672,-1.49444 10.0017,-2.3804 11.13672,-2.3804 h 0.77649 c -2.88096,20.90111 -0.11539,42.98346 0.33249,63.40269 l -0.33249,35.39875 -22.77207,0.17748 c -12.52465,0.0976 -79.38992,0.17756 -148.58948,0.17766 l -126.99296202,0.20062 c -0.02847127,-27.98349 -0.0098524,-34.80877 -0.0671769,-87.53156 z" id="path5014" inkscape:connector-curvature="0" sodipodi:nodetypes="ccscssccsscsscccssscsscccsscccccsccscccccscccsscc"/>
  </svg:g>
  </svg>