<?xml version="1.0" encoding="UTF-8" standalone="no"?>
<!-- Created with Inkscape (http://www.inkscape.org/) -->

<svg
   xmlns:dc="http://purl.org/dc/elements/1.1/"
   xmlns:cc="http://creativecommons.org/ns#"
   xmlns:rdf="http://www.w3.org/1999/02/22-rdf-syntax-ns#"
   xmlns:svg="http://www.w3.org/2000/svg"
   xmlns="http://www.w3.org/2000/svg"
   xmlns:sodipodi="http://sodipodi.sourceforge.net/DTD/sodipodi-0.dtd"
   xmlns:inkscape="http://www.inkscape.org/namespaces/inkscape"
   width="132.00002mm"
   height="29.00001mm"
   viewBox="0 0 132.00002 29.000009"
   version="1.1"
   id="svg8"
   inkscape:version="0.92.5 (2060ec1f9f, 2020-04-08)"
   sodipodi:docname="projects.svg">
  <defs
     id="defs2" />
  <sodipodi:namedview
     id="base"
     pagecolor="#ffffff"
     bordercolor="#666666"
     borderopacity="1.0"
     inkscape:pageopacity="0.0"
     inkscape:pageshadow="2"
     inkscape:zoom="1.4"
     inkscape:cx="208.13665"
     inkscape:cy="2.9741877"
     inkscape:document-units="mm"
     inkscape:current-layer="layer1"
     showgrid="false"
     showguides="false"
     inkscape:object-nodes="false"
     inkscape:window-width="1920"
     inkscape:window-height="1051"
     inkscape:window-x="-9"
     inkscape:window-y="-9"
     inkscape:window-maximized="1" />
  <metadata
     id="metadata5">
    <rdf:RDF>
      <cc:Work
         rdf:about="">
        <dc:format>image/svg+xml</dc:format>
        <dc:type
           rdf:resource="http://purl.org/dc/dcmitype/StillImage" />
        <dc:title></dc:title>
      </cc:Work>
    </rdf:RDF>
  </metadata>
  <g
     inkscape:label="Layer 1"
     inkscape:groupmode="layer"
     id="layer1"
     transform="translate(0,-267.99999)">
    <flowRoot
       xml:space="preserve"
       id="flowRoot52"
       style="font-style:normal;font-variant:normal;font-weight:normal;font-stretch:normal;font-size:40px;line-height:1.25;font-family:'Segoe Print';-inkscape-font-specification:'Segoe Print';letter-spacing:0px;word-spacing:0px;fill:#000000;fill-opacity:1;stroke:none"
       transform="scale(0.26458333)"><flowRegion
         id="flowRegion54"><rect
           id="rect56"
           width="422.85715"
           height="131.42857"
           x="41.42857"
           y="79.662544" /></flowRegion><flowPara
         id="flowPara58"></flowPara></flowRoot>    <flowRoot
       xml:space="preserve"
       id="flowRoot66"
       style="font-style:normal;font-variant:normal;font-weight:normal;font-stretch:normal;font-size:40px;line-height:1.25;font-family:'Segoe Print';-inkscape-font-specification:'Segoe Print';letter-spacing:0px;word-spacing:0px;fill:#000000;fill-opacity:1;stroke:none"
       transform="scale(0.26458333)"><flowRegion
         id="flowRegion68"><rect
           id="rect70"
           width="621.42859"
           height="154.28572"
           x="71.428574"
           y="222.51968" /></flowRegion><flowPara
         id="flowPara72"></flowPara></flowRoot>    <flowRoot
       xml:space="preserve"
       id="flowRoot74"
       style="font-style:normal;font-variant:normal;font-weight:normal;font-stretch:normal;font-size:40px;line-height:1.25;font-family:'Segoe Print';-inkscape-font-specification:'Segoe Print';letter-spacing:0px;word-spacing:0px;fill:#000000;fill-opacity:1;stroke:none"
       transform="scale(0.26458333)"><flowRegion
         id="flowRegion76"><rect
           id="rect78"
           width="474.28571"
           height="195.71428"
           x="112.85714"
           y="191.09111" /></flowRegion><flowPara
         id="flowPara80"></flowPara></flowRoot>    <flowRoot
       xml:space="preserve"
       id="flowRoot82"
       style="font-style:normal;font-variant:normal;font-weight:normal;font-stretch:normal;font-size:40px;line-height:1.25;font-family:'Segoe Print';-inkscape-font-specification:'Segoe Print';letter-spacing:0px;word-spacing:0px;fill:#000000;fill-opacity:1;stroke:none"
       transform="scale(0.26458333)"><flowRegion
         id="flowRegion84"><rect
           id="rect86"
           width="182.85715"
           height="327.14285"
           x="32.857143"
           y="1.091113" /></flowRegion><flowPara
         id="flowPara88"></flowPara></flowRoot>    <flowRoot
       xml:space="preserve"
       id="flowRoot90"
       style="font-style:normal;font-variant:normal;font-weight:normal;font-stretch:normal;font-size:40px;line-height:1.25;font-family:'Segoe Print';-inkscape-font-specification:'Segoe Print';letter-spacing:0px;word-spacing:0px;fill:#000000;fill-opacity:1;stroke:none"
       transform="scale(0.26458333)"><flowRegion
         id="flowRegion92"><rect
           id="rect94"
           width="212.85715"
           height="118.57143"
           x="122.85714"
           y="279.66254" /></flowRegion><flowPara
         id="flowPara96"></flowPara></flowRoot>    <flowRoot
       xml:space="preserve"
       id="flowRoot98"
       style="font-style:normal;font-variant:normal;font-weight:normal;font-stretch:normal;font-size:40px;line-height:1.25;font-family:'Segoe Print';-inkscape-font-specification:'Segoe Print';letter-spacing:0px;word-spacing:0px;fill:#000000;fill-opacity:1;stroke:none"
       transform="scale(0.26458333)"><flowRegion
         id="flowRegion100"><rect
           id="rect102"
           width="725.71429"
           height="182.85715"
           x="44.285713"
           y="116.8054" /></flowRegion><flowPara
         id="flowPara104"></flowPara></flowRoot>    <flowRoot
       xml:space="preserve"
       id="flowRoot110"
       style="font-style:normal;font-variant:normal;font-weight:normal;font-stretch:normal;font-size:40px;line-height:1.25;font-family:'Segoe Print';-inkscape-font-specification:'Segoe Print';letter-spacing:0px;word-spacing:0px;fill:#000000;fill-opacity:1;stroke:none"
       transform="scale(0.26458333)"><flowRegion
         id="flowRegion112"><rect
           id="rect114"
           width="407.14285"
           height="141.42857"
           x="51.42857"
           y="393.94824" /></flowRegion><flowPara
         id="flowPara116"></flowPara></flowRoot>    <flowRoot
       xml:space="preserve"
       id="flowRoot971"
       style="font-style:normal;font-variant:normal;font-weight:normal;font-stretch:normal;font-size:40px;line-height:1.25;font-family:'Segoe Print';-inkscape-font-specification:'Segoe Print';letter-spacing:0px;word-spacing:0px;fill:#000000;fill-opacity:1;stroke:none"
       transform="scale(0.26458333)"><flowRegion
         id="flowRegion973"><rect
           id="rect975"
           width="0.012854356"
           height="43.862236"
           x="446.41571"
           y="510.80029" /></flowRegion><flowPara
         id="flowPara977"></flowPara></flowRoot>    <flowRoot
       xml:space="preserve"
       id="flowRoot979"
       style="font-style:normal;font-variant:normal;font-weight:normal;font-stretch:normal;font-size:40px;line-height:1.25;font-family:'Segoe Print';-inkscape-font-specification:'Segoe Print';letter-spacing:0px;word-spacing:0px;fill:#000000;fill-opacity:1;stroke:none"
       transform="scale(0.26458333)"><flowRegion
         id="flowRegion981"><rect
           id="rect983"
           width="18.580521"
           height="103.79508"
           x="258.57144"
           y="503.01031" /></flowRegion><flowPara
         id="flowPara985"></flowPara></flowRoot>    <g
       id="g1102"
       transform="translate(-31.372024,152.89137)">
      <text
         transform="scale(1.0684077,0.93597228)"
         id="text108"
         y="140.2438"
         x="40.247223"
         style="font-style:normal;font-variant:normal;font-weight:normal;font-stretch:normal;font-size:77.71990967px;line-height:1.25;font-family:'Segoe Print';-inkscape-font-specification:'Segoe Print';letter-spacing:0px;word-spacing:0px;fill:#e9afaf;fill-opacity:1;stroke:none;stroke-width:1.94299781"
         xml:space="preserve"><tspan
           sodipodi:role="line"
           id="tspan1142"
           style="font-style:normal;font-variant:normal;font-weight:normal;font-stretch:normal;font-size:20.90444946px;font-family:sans-serif;-inkscape-font-specification:'sans-serif, Normal';font-variant-ligatures:normal;font-variant-caps:normal;font-variant-numeric:normal;font-feature-settings:normal;text-align:start;writing-mode:lr-tb;text-anchor:start;fill:#e9afaf;stroke-width:1.94299781"
           x="40.247223"
           y="140.2438">PROJECTS</tspan></text>
      <g
         style="opacity:1;fill:#a02c2c;stroke:#969494;stroke-opacity:0.63636361"
         transform="matrix(1.3084117,0,0,1,-20.159149,-18.142856)"
         id="g1020" />
      <flowRoot
         xml:space="preserve"
         id="flowRoot1134"
         style="font-style:normal;font-variant:normal;font-weight:normal;font-stretch:normal;font-size:40px;line-height:1.25;font-family:'Segoe Print';-inkscape-font-specification:'Segoe Print';letter-spacing:0px;word-spacing:0px;fill:#000000;fill-opacity:1;stroke:none"
         transform="matrix(0.26458333,0,0,0.26458333,36.474702,113.97469)"><flowRegion
           id="flowRegion1136"><rect
             id="rect1138"
             width="15.714286"
             height="1318.5714"
             x="702.14288"
             y="71.749199" /></flowRegion><flowPara
           id="flowPara1140"></flowPara></flowRoot>      <g
         id="g1173"
         transform="matrix(1.1536878,0,0,0.7408271,-8.3544935,-2.8574726)">
        <path
           inkscape:connector-curvature="0"
           d="m 36.267315,186.64223 c 1.184245,0.61272 2.506061,0.92101 3.838139,0.94847 0.396237,0.008 0.792209,-0.0262 1.188314,-0.0393 1.661059,-0.21798 3.297819,-0.75366 4.691826,-1.70312 1.115321,-0.75964 1.288455,-0.99306 2.276118,-1.91579 2.058917,-2.02779 3.606431,-4.47245 4.970745,-7 0.652069,-1.22198 1.208311,-2.48998 1.758315,-3.75983 0.0605,-0.15168 0.109705,-0.51887 0.433655,-0.28619 0.0034,0.002 -0.135864,0.90392 -0.144712,0.95602 -0.285248,1.56503 -0.720482,3.09628 -1.105313,4.63828 -0.629683,2.57149 -1.302365,5.1322 -1.987762,7.68932 -0.630624,2.31812 -1.228912,4.64439 -1.81993,6.97283 -0.186962,0.75285 -0.351769,1.51139 -0.483839,2.27586 -0.06533,0.37817 -0.130019,0.73984 -0.09799,1.12247 0.190655,0.0373 -0.153173,0.12439 -0.170541,0.066 -0.0353,-0.11875 0.09658,-0.22844 0.135946,-0.3459 0.06571,-0.1961 0.122482,-0.39511 0.179018,-0.59404 0.243365,-0.8563 0.24909,-0.92902 0.468368,-1.85134 0.536666,-2.35675 0.994423,-4.73275 1.645023,-7.06232 0.147279,-0.52736 0.312706,-1.04948 0.469059,-1.57422 0.857334,-2.81619 1.995331,-5.5298 3.225635,-8.19979 0.468989,-0.96134 0.964078,-1.96196 1.763418,-2.69941 0.365263,-0.33699 0.579136,-0.39987 1.051,-0.64706 0.104381,-0.01 0.20887,-0.0397 0.313144,-0.0289 0.661124,0.0681 0.674478,0.9531 0.686968,1.43211 -0.07914,1.38897 -0.552709,2.70379 -1.108406,3.96476 -0.503305,0.94315 -1.098923,1.91471 -1.992588,2.54205 -0.134267,0.0942 -0.282892,0.16618 -0.424338,0.24927 -0.792237,0.47456 -1.536279,0.70309 -2.448629,0.69013 -0.331404,-0.0305 -0.323787,-0.0902 0.165558,-0.27828 0.06459,-0.0248 0.135797,0.0268 0.203394,0.0416 0.318706,0.12949 0.499023,0.42569 0.662083,0.71166 0.331482,0.52417 0.63596,0.84026 1.212933,1.07921 0.956206,0.29593 1.902593,-0.0359 2.805756,-0.35436 1.078566,-0.40591 2.119154,-0.92338 3.102439,-1.52456 0.310796,-0.19002 1.227116,-0.83414 1.437031,-0.97975 1.35968,-1.01077 2.643664,-2.12733 3.698065,-3.45774 0.379143,-0.57093 0.807755,-1.28149 0.526034,-1.97725 -0.213079,-0.29255 -0.397216,-0.20788 -0.696592,-0.13038 -0.02718,0.007 0.09621,-0.0551 0.07657,-0.0351 -0.08265,0.0844 -0.179059,0.15411 -0.268589,0.23117 -0.699545,0.68846 -1.067258,1.57499 -1.265037,2.51941 -0.04526,0.64456 -0.11385,1.48582 0.386731,1.99466 0.07011,0.0713 0.162671,0.11625 0.244007,0.17437 0.09477,0.0198 0.187513,0.0578 0.284311,0.0593 0.638495,0.0102 1.219522,-0.61795 1.663768,-0.97998 0.921867,-0.7324 1.784623,-1.53535 2.693874,-2.28231 0.464556,-0.31115 0.837581,-0.75721 1.317374,-1.04738 0.1597,-0.0966 0.325882,-0.182 0.488823,-0.273 0.376412,-0.18798 0.158012,0.23455 0.09681,0.38153 -0.171781,0.34838 -0.421306,0.65448 -0.670973,0.95008 -0.395695,0.4074 -0.738237,0.85659 -1.044151,1.33414 -0.452464,0.6857 -0.733198,1.42869 -0.840272,2.24035 -0.05983,0.95636 0.273193,1.66344 0.851136,2.39603 0.586028,0.61045 1.367858,0.97602 2.227064,0.92619 0.21459,-0.0124 0.425227,-0.0632 0.637841,-0.0949 1.703126,-0.40208 2.971517,-1.50834 4.272849,-2.60705 1.121942,-1.02744 2.240769,-2.05564 3.39753,-3.044 0.358061,-0.26067 1.183897,-1.02045 1.630493,-0.8533 0.05858,0.0219 0.101322,0.0734 0.151984,0.11005 0.393642,0.63752 0.182023,1.44742 0.0011,2.12142 -0.247533,0.70844 -0.544986,1.47743 -1.135787,1.97705 -0.09566,0.0809 -0.205549,0.14328 -0.308324,0.21491 -0.215816,0.11128 -0.422992,0.2412 -0.647446,0.33383 -0.449292,0.1854 -0.9978,0.0575 -1.378127,-0.21997 -0.106456,-0.0777 -0.194707,-0.17762 -0.292063,-0.26643 -0.618453,-0.6566 -0.81347,-1.49028 -0.826003,-2.36567 0.0372,-0.65605 0.264604,-1.25866 0.724707,-1.72908 0.355986,-0.36125 0.783458,-0.65532 1.301887,-0.57013 0.384728,0.13693 0.600763,0.47404 0.791314,0.8137 0.190994,0.52686 0.474929,0.97963 0.832366,1.40735 0.501488,0.56641 1.031787,0.7132 1.768133,0.71123 0.611217,-0.0825 1.197475,-0.2956 1.727031,-0.61205 0.05076,-0.0303 0.0881,-0.079 0.134488,-0.11568 0.145139,-0.11475 0.293282,-0.22566 0.439925,-0.33849 0.863296,-0.71232 1.516679,-1.62083 2.178521,-2.51214 0.402275,-0.62069 0.802127,-1.24284 1.202745,-1.86461 0.164145,-0.23488 0.304988,-0.40716 0.626364,-0.46427 0.08801,-0.0156 0.123452,0.51333 0.125881,0.54055 -0.0062,1.02153 -0.228026,2.02475 -0.40876,3.0255 -0.346916,2.02992 -0.797012,4.03943 -1.347269,6.02345 -0.497181,1.52494 -1.066816,3.048 -1.93548,4.40607 -0.139591,0.21825 -0.297114,0.42449 -0.445669,0.63672 -0.562047,0.6813 -1.350754,1.65444 -2.326966,1.68743 -0.116832,0.004 -0.232145,-0.0278 -0.348218,-0.0416 -0.838819,-0.31192 -1.117695,-0.89848 -1.21835,-1.74446 -0.0076,-1.10966 0.411241,-1.81359 1.11556,-2.63043 1.033981,-1.02703 2.348111,-1.68692 3.6851,-2.22745 0.985909,-0.39535 2.006357,-0.69771 2.972517,-1.14281 0.701218,-0.32305 0.786485,-0.39271 1.455537,-0.7787 1.250418,-0.85137 2.417156,-1.81119 3.515421,-2.8497 0.852471,-0.77163 1.502259,-1.71414 2.076775,-2.70106 0.295616,-0.6089 0.599485,-1.23166 0.683466,-1.90937 0.0097,-0.38021 -0.195326,-0.59327 -0.570357,-0.53459 -0.05175,0.0209 -0.324376,0.12138 -0.349636,0.17419 -0.02363,0.0494 0.103288,-0.0365 0.154929,-0.0547 -0.05274,0.0507 -0.10674,0.10008 -0.158231,0.15203 -0.09546,0.0963 -0.230677,0.24657 -0.3214,0.34596 -0.307885,0.42181 -0.617085,0.84846 -0.892731,1.29257 -0.321463,0.50058 -0.530531,1.05065 -0.655211,1.62948 -0.09797,0.73769 0.02564,1.45034 0.319304,2.12766 0.412343,0.72287 0.878893,1.01205 1.66265,1.22689 0.845645,0.20924 1.676852,-0.006 2.48775,-0.25114 0.448934,-0.14241 0.884505,-0.32974 1.283665,-0.58165 0.0362,-0.0228 0.0599,-0.0614 0.0933,-0.0881 0.7606,-0.6078 0.0909,-0.0287 0.82256,-0.68058 0.84567,-0.81635 1.58346,-1.73702 2.35046,-2.62634 0.72156,-0.8024 1.46228,-1.58428 2.37295,-2.17058 0.8554,-0.53913 1.69047,-0.75608 2.68668,-0.74965 0.4902,-0.0379 1.02341,0.1811 1.49852,0.0169 -0.0854,0.0369 -0.16335,0.10522 -0.25622,0.11058 -0.032,0.002 0.0145,-0.0659 0.004,-0.096 -0.0142,-0.0393 -0.0446,-0.0718 -0.0748,-0.10076 -0.16547,-0.15893 -0.37546,-0.23799 -0.58456,-0.319 -0.65492,-0.20527 -1.33334,-0.17123 -1.98905,0.001 -0.78346,0.28582 -1.35991,0.86988 -1.87853,1.50636 -0.45946,0.68376 -0.85331,1.45169 -0.86404,2.29534 -0.002,0.16238 0.0246,0.32386 0.037,0.48579 0.13267,0.84927 0.59451,1.60788 1.32648,2.07656 0.15501,0.0992 0.32679,0.16948 0.49018,0.25422 1.61901,0.53958 3.25067,-0.0556 4.76194,-0.65365 2.06003,-0.93799 3.75745,-2.44442 5.32291,-4.04813 1.44764,-1.51939 2.64905,-3.23914 3.67042,-5.0666 0.49656,-0.96393 0.98627,-1.93286 1.43993,-2.91792 0.0426,-0.11234 0.0684,-0.43336 0.33484,-0.29025 0.0642,0.0345 -0.0872,0.11685 -0.12618,0.17838 -0.13053,0.20622 -0.26373,0.46464 -0.377,0.67484 -0.79542,1.48695 -1.29418,3.09242 -1.71184,4.71819 -0.29782,1.50251 -0.50877,3.0567 -0.28902,4.58618 0.0372,0.25869 0.10119,0.5128 0.15178,0.76919 0.25929,0.99489 0.74907,1.97547 1.77054,2.3606 0.18581,0.0701 0.38454,0.0993 0.57681,0.14895 1.03112,0.12796 1.9991,-0.18615 2.89901,-0.67343 0.38199,-0.20684 1.00789,-0.71314 1.29883,-0.93464 1.40416,-1.20267 2.72682,-2.498 4.05315,-3.78527 0.28913,-0.27129 1.35606,-1.29227 1.78753,-1.1022 0.0594,0.0262 0.10133,0.0812 0.152,0.12179 0.36194,0.65373 0.33192,1.4401 0.2737,2.16215 -0.10452,1.06937 -0.53079,2.02104 -1.09752,2.91794 -0.73265,0.99739 -1.63588,1.66616 -2.82819,2.02848 -0.87138,0.13479 -1.61491,-0.19973 -2.31037,-0.68647 -0.0831,-0.0728 -0.16845,-0.14318 -0.24929,-0.21852 -0.0153,-0.0143 -0.22457,-0.21798 -0.25691,-0.278 -0.008,-0.0155 -0.0144,-0.0456 0.002,-0.0527 0.43943,-0.19361 0.32807,-0.19807 0.61304,-0.0299 0.793,0.62308 1.73288,0.90935 2.70022,1.13074 1.56059,0.23529 3.1814,0.1949 4.70293,-0.25624 0.33883,-0.10046 0.66494,-0.23968 0.99741,-0.35953 1.75687,-0.73912 3.23447,-1.95985 4.65544,-3.20326 0.19358,-0.17887 0.38715,-0.35774 0.58073,-0.53661 0,0 0.33318,-0.13649 0.33318,-0.13649 v 0 c -0.19366,0.17926 -0.38732,0.35852 -0.58098,0.53778 -1.60095,1.40111 -3.28755,2.72629 -5.2674,3.55636 -0.33337,0.11881 -0.66046,0.25696 -1.0001,0.35643 -1.52773,0.44742 -3.15328,0.48557 -4.71855,0.24752 -0.97269,-0.22311 -1.91424,-0.51383 -2.71589,-1.13347 -0.27577,-0.15637 -0.23062,-0.053 0.0409,-0.33449 0.007,-0.007 -0.0254,0.0124 -0.021,0.0213 0.0198,0.0399 0.0535,0.0714 0.0835,0.10433 0.16162,0.17779 0.21789,0.21561 0.41276,0.38613 0.6897,0.48058 1.42762,0.80656 2.28922,0.66038 0.14925,-0.0471 0.29824,-0.095 0.44775,-0.14121 0.0472,-0.0146 0.0991,-0.0174 0.14235,-0.0413 0.6454,-0.35696 1.17962,-0.88288 1.61288,-1.47398 0.56848,-0.89092 0.99716,-1.83587 1.10351,-2.90114 0.0586,-0.70843 0.092,-1.4841 -0.26123,-2.12692 -0.0469,-0.0348 -0.086,-0.0839 -0.14063,-0.10442 -0.0526,-0.0198 -0.13408,0.033 -0.16819,-0.0116 -0.0261,-0.0341 0.12609,-0.11169 0.0863,-0.0955 -0.42262,0.17241 -0.71925,0.58226 -1.06604,0.85454 -1.32992,1.28734 -2.65542,2.58312 -4.05783,3.79171 -1.21074,0.92849 -2.58998,1.92566 -4.18032,1.98567 -0.2162,0.008 -0.43192,-0.0263 -0.64788,-0.0394 -0.19408,-0.0517 -0.39484,-0.0829 -0.58224,-0.15517 -1.0272,-0.39623 -1.52111,-1.38673 -1.78257,-2.3912 -0.0508,-0.25764 -0.11513,-0.51298 -0.15249,-0.77292 -0.22044,-1.53367 -0.01,-3.09178 0.2869,-4.59888 0.41538,-1.62523 0.90962,-3.23088 1.69673,-4.72078 0.0864,-0.16258 0.33225,-0.73306 0.49218,-0.85828 0.12038,-0.0943 0.25849,-0.16603 0.39916,-0.22591 0.0681,-0.029 -0.15232,0.48967 -0.0496,0.21643 -0.45894,0.98698 -0.9523,1.9584 -1.45072,2.92584 -1.02285,1.83081 -2.22511,3.55458 -3.67363,5.07814 -0.28042,0.28815 -0.55223,0.58491 -0.84124,0.86443 -1.49333,1.44433 -3.19893,2.65779 -5.08417,3.53725 -1.52162,0.5982 -3.16332,1.18997 -4.78886,0.63502 -0.16475,-0.0865 -0.338,-0.15856 -0.49425,-0.25965 -0.73745,-0.4771 -1.20583,-1.24403 -1.34238,-2.10232 -0.0132,-0.16387 -0.041,-0.3272 -0.0398,-0.49159 0.006,-0.84956 0.39683,-1.62358 0.85556,-2.31494 0.67269,-0.83814 1.49464,-1.48721 2.50866,-1.87459 0.66287,-0.16545 1.34635,-0.19691 2.00485,0.0159 0.0889,0.0354 0.87551,0.38947 0.69241,0.57628 -0.10931,0.11153 -0.25734,0.17697 -0.38601,0.26545 -0.48609,0.13248 -1.00591,-0.0601 -1.50139,-0.0289 -0.71328,-5.3e-4 -1.38504,0.11959 -2.0453,0.3993 -0.91545,0.57996 -1.65681,1.36028 -2.37987,2.16192 -0.76727,0.88928 -1.50464,1.81009 -2.3469,2.62995 -0.82653,0.74348 -1.75726,1.38224 -2.829124,1.713 -0.816793,0.24337 -1.652296,0.45204 -2.501567,0.23556 -0.79198,-0.22333 -1.263705,-0.52351 -1.680027,-1.25478 -0.29741,-0.68369 -0.424035,-1.40178 -0.331049,-2.14736 0.121517,-0.58241 0.327088,-1.13672 0.649015,-1.64059 0.272044,-0.44745 0.588081,-0.87077 0.889206,-1.29867 0.37242,-0.4101 0.770316,-0.81947 1.317935,-0.98529 0.392914,-0.035 0.610123,0.19719 0.604112,0.59316 -0.08044,0.68383 -0.38576,1.31041 -0.681926,1.92524 -0.574702,0.99054 -1.223645,1.93832 -2.077953,2.71291 -1.268056,1.20169 -2.621659,2.32081 -4.12885,3.21309 -0.670197,0.38422 -0.756573,0.45403 -1.458655,0.7757 -0.96733,0.4432 -1.988368,0.74544 -2.973795,1.14305 -1.123228,0.45859 -2.206715,0.97717 -3.065259,1.86212 -0.704271,0.80668 -1.126344,1.49864 -1.12482,2.60112 0.09311,0.82985 0.363844,1.40797 1.193127,1.70154 0.560528,0.0542 0.124794,0.0455 0.695606,-0.0385 0.02413,-0.004 0.05175,0.0212 0.07265,0.009 0.519499,-0.31255 0.895424,-0.79816 1.274646,-1.25801 0.149365,-0.21153 0.307766,-0.41697 0.448093,-0.63461 0.873427,-1.35462 1.445345,-2.87657 1.944939,-4.40019 0.551323,-1.98114 0.999953,-3.98858 1.341456,-6.01694 0.176752,-0.99669 0.395012,-1.99514 0.403167,-3.01175 -0.01066,-0.11904 -0.0168,-0.29617 -0.05647,-0.41848 -0.0085,-0.0262 -0.05994,-0.0497 -0.04235,-0.0708 0.06534,-0.0786 0.160116,-0.12862 0.249444,-0.17827 0.103825,-0.0577 -0.471424,0.37117 -0.2326,0.26997 -0.402979,0.62255 -0.805178,1.24542 -1.206667,1.86895 -0.663437,0.89219 -1.314521,1.80415 -2.175489,2.52173 -0.871304,0.67709 -1.822431,1.28363 -2.939579,1.41869 -0.74513,-0.007 -1.281866,-0.16378 -1.787641,-0.73703 -0.358167,-0.42952 -0.645221,-0.88383 -0.837166,-1.41242 -0.185946,-0.32935 -0.394827,-0.66142 -0.773959,-0.78437 -0.157504,-0.0203 -0.180123,-0.036 -0.336973,-0.006 -0.05431,0.0104 -0.161179,0.10159 -0.1593,0.0463 0.0021,-0.0625 0.14901,-0.15756 0.160991,-0.0962 0.02652,0.13577 -0.378312,0.10356 -0.316799,0.26808 -0.468006,0.45615 -0.697826,1.05358 -0.740532,1.70383 0.0077,0.866 0.197011,1.69106 0.811535,2.33898 0.389795,0.35045 0.74671,0.59511 1.301494,0.53407 0.117416,-0.0129 0.227562,-0.0662 0.344461,-0.0832 0.01127,-0.002 0.0093,0.0208 0.014,0.0312 0.103791,-0.0696 0.21463,-0.12976 0.31137,-0.2089 0.597045,-0.48836 0.896419,-1.25598 1.145373,-1.96019 0.179001,-0.6555 0.395534,-1.45491 0.01503,-2.07833 -0.466315,-0.31061 -0.730361,0.12443 -1.127879,0.40485 -1.160817,0.98882 -2.28505,2.01596 -3.407306,3.04813 -1.457855,1.2343 -3.005273,2.48062 -4.893181,2.95807 -0.2145,0.0301 -0.427162,0.0796 -0.643498,0.0903 -0.868365,0.0429 -1.655868,-0.33343 -2.246395,-0.95093 -0.582123,-0.73998 -0.921366,-1.45627 -0.865843,-2.42136 0.102978,-0.816 0.379518,-1.56394 0.832043,-2.25435 0.302321,-0.47971 0.642437,-0.93154 1.039474,-1.33768 0.249361,-0.29268 0.49757,-0.59637 0.674319,-0.93893 0.05809,-0.1398 0.286388,-0.48917 -0.04819,-0.30447 0.04966,-0.0325 0.194566,-0.13545 0.148989,-0.0975 -0.430673,0.35907 -0.901782,0.6757 -1.32365,1.04714 -0.912457,0.74398 -1.77307,1.55063 -2.695701,2.28308 -0.539399,0.44199 -1.592803,1.36561 -2.307186,1.32758 -0.100248,-0.005 -0.194963,-0.048 -0.292446,-0.072 -0.08322,-0.0617 -0.17779,-0.11039 -0.249656,-0.18497 -0.502645,-0.52163 -0.442489,-1.36521 -0.397547,-2.02322 0.194027,-0.94912 0.557456,-1.84124 1.252125,-2.5397 0.397208,-0.3556 1.105035,-0.96794 1.557115,-0.38718 0.288018,0.71038 -0.127283,1.42945 -0.517485,2.01631 -1.054058,1.33618 -2.341785,2.45513 -3.702701,3.47108 -1.614861,1.12335 -3.302351,2.17269 -5.15569,2.85735 -0.911896,0.31856 -1.866063,0.64528 -2.827929,0.33708 -0.579647,-0.24695 -0.892039,-0.57046 -1.227461,-1.0988 -0.158676,-0.27603 -0.332926,-0.56834 -0.647075,-0.68375 -0.0368,-0.007 -0.07329,-0.0164 -0.110411,-0.0219 -0.02813,-0.004 -0.104388,0.0139 -0.08503,-0.007 0.229222,-0.24683 0.192289,-0.18186 0.436361,-0.16734 0.304325,0.003 0.607062,-0.001 0.906474,-0.0663 0.438516,-0.095 0.347918,-0.11572 0.784284,-0.25682 0.03648,-0.0118 0.07583,-0.0113 0.113752,-0.0169 0.142395,-0.0814 0.291993,-0.1513 0.427185,-0.24417 0.89935,-0.61776 1.498395,-1.58907 2.004767,-2.52865 0.555667,-1.25488 1.028647,-2.56364 1.108449,-3.94697 -0.01017,-0.4533 -0.01206,-1.33441 -0.657332,-1.37867 -0.101957,-0.007 -0.202844,0.0251 -0.304267,0.0377 -0.174263,-0.0947 -0.06553,-0.0489 -0.426177,0.27692 -0.808383,0.73023 -1.307026,1.73351 -1.779956,2.69385 -1.237452,2.66831 -2.378388,5.38227 -3.237055,8.19963 -0.15627,0.52426 -0.32173,1.04587 -0.46881,1.57278 -0.649547,2.32698 -1.105926,4.70042 -1.634088,7.05618 -0.222532,0.95278 -0.215043,0.96781 -0.458653,1.84896 -0.03622,0.131 -0.332428,1.59974 -0.804261,1.20182 -0.03063,-0.38769 0.035,-0.75262 0.102336,-1.13558 0.134721,-0.76626 0.301389,-1.52667 0.489922,-2.28141 0.595745,-2.32936 1.195435,-4.65744 1.827985,-6.97716 0.684787,-2.55563 1.356242,-5.11503 1.981974,-7.68585 0.380496,-1.53888 0.811862,-3.06697 1.092086,-4.62882 0.0089,-0.0528 0.120816,-0.9181 0.141905,-0.94857 0.08693,-0.1256 0.217393,-0.2163 0.340722,-0.30642 0.07753,-0.0567 -0.333172,0.52123 -0.103546,0.26884 -0.561005,1.27129 -1.11718,2.54569 -1.775611,3.77096 -1.367504,2.52958 -2.91399,4.97917 -4.971867,7.01268 -0.365858,0.34344 -0.714524,0.70617 -1.097575,1.03033 -1.844652,1.56106 -4.069507,2.62461 -6.471813,2.92636 -0.397471,0.0125 -0.794842,0.0462 -1.192412,0.0374 -1.340499,-0.0295 -2.667483,-0.34243 -3.862981,-0.9503 0,0 0.312241,-0.2035 0.312241,-0.2035 z"
           id="path1167"
           style="opacity:1;fill:#e9afaf;fill-opacity:1;fill-rule:nonzero;stroke:#969494;stroke-width:0.30000001;stroke-linecap:butt;stroke-miterlimit:4;stroke-dasharray:none;stroke-dashoffset:0;stroke-opacity:0.63636361" />
        <path
           inkscape:connector-curvature="0"
           d="m 123.41366,172.82751 c -1.13281,0.33379 -2.29811,0.29004 -3.45312,0.12739 -1.43414,-0.21994 -2.7775,-0.77724 -4.10534,-1.33725 -0.19527,-0.0948 -0.39053,-0.18959 -0.5858,-0.28438 0,0 0.3032,-0.20005 0.3032,-0.20005 v 0 c 0.19498,0.0942 0.38996,0.18848 0.58494,0.28271 1.32496,0.5602 2.6661,1.1156 4.0987,1.3303 1.15592,0.15787 2.3217,0.19652 3.45238,-0.14644 0,0 -0.29496,0.22772 -0.29496,0.22772 z"
           id="path1169"
           style="opacity:1;fill:#e9afaf;fill-opacity:1;fill-rule:nonzero;stroke:#969494;stroke-width:0.30000001;stroke-linecap:butt;stroke-miterlimit:4;stroke-dasharray:none;stroke-dashoffset:0;stroke-opacity:0.63636361" />
      </g>
    </g>
  </g>
</svg>
