<?xml version="1.0" encoding="UTF-8" standalone="no"?>
<!-- Created with Inkscape (http://www.inkscape.org/) -->

<svg
   xmlns:dc="http://purl.org/dc/elements/1.1/"
   xmlns:cc="http://creativecommons.org/ns#"
   xmlns:rdf="http://www.w3.org/1999/02/22-rdf-syntax-ns#"
   xmlns:svg="http://www.w3.org/2000/svg"
   xmlns="http://www.w3.org/2000/svg"
   xmlns:sodipodi="http://sodipodi.sourceforge.net/DTD/sodipodi-0.dtd"
   xmlns:inkscape="http://www.inkscape.org/namespaces/inkscape"
   width="49mm"
   height="38mm"
   viewBox="0 0 49 38"
   version="1.1"
   id="svg8"
   inkscape:version="0.92.5 (2060ec1f9f, 2020-04-08)"
   sodipodi:docname="raytheon.svg">
  <defs
     id="defs2" />
  <sodipodi:namedview
     id="base"
     pagecolor="#ffffff"
     bordercolor="#666666"
     borderopacity="1.0"
     inkscape:pageopacity="0.0"
     inkscape:pageshadow="2"
     inkscape:zoom="3.959798"
     inkscape:cx="88.723012"
     inkscape:cy="80.264551"
     inkscape:document-units="mm"
     inkscape:current-layer="layer1"
     showgrid="false"
     inkscape:snap-global="false"
     inkscape:window-width="1920"
     inkscape:window-height="1051"
     inkscape:window-x="-9"
     inkscape:window-y="-9"
     inkscape:window-maximized="1" />
  <metadata
     id="metadata5">
    <rdf:RDF>
      <cc:Work
         rdf:about="">
        <dc:format>image/svg+xml</dc:format>
        <dc:type
           rdf:resource="http://purl.org/dc/dcmitype/StillImage" />
        <dc:title />
      </cc:Work>
    </rdf:RDF>
  </metadata>
  <g
     inkscape:label="Layer 1"
     inkscape:groupmode="layer"
     id="layer1"
     transform="translate(0,-259)">
    <rect
       style="opacity:1;fill:none;fill-opacity:0;fill-rule:nonzero;stroke:#5f9ea0;stroke-width:0.30000001;stroke-linecap:butt;stroke-miterlimit:4;stroke-dasharray:none;stroke-dashoffset:0;stroke-opacity:1"
       id="rect868"
       width="48.108513"
       height="32.072342"
       x="0.50576532"
       y="264.70331"
       ry="5.8191552"
       rx="0" />
    <g
       id="g988"
       transform="translate(-35.151786,207.31994)">
      <g
         id="g1011">
        <rect
           style="opacity:1;fill:#000000;fill-opacity:1;fill-rule:nonzero;stroke:#000000;stroke-width:0.08780306;stroke-linecap:butt;stroke-miterlimit:4;stroke-dasharray:none;stroke-dashoffset:0;stroke-opacity:1"
           id="rect951-7"
           width="2.432807"
           height="5.3148751"
           x="51.476814"
           y="52.00174"
           ry="0.31636158" />
        <rect
           style="opacity:1;fill:#000000;fill-opacity:1;fill-rule:nonzero;stroke:#000000;stroke-width:0.08780306;stroke-linecap:butt;stroke-miterlimit:4;stroke-dasharray:none;stroke-dashoffset:0;stroke-opacity:1"
           id="rect951-7-7"
           width="2.432807"
           height="5.3148751"
           x="63.593719"
           y="52.00174"
           ry="0.31636158" />
        <rect
           style="opacity:1;fill:#000000;fill-opacity:1;fill-rule:nonzero;stroke:#000000;stroke-width:0.14907658;stroke-linecap:butt;stroke-miterlimit:4;stroke-dasharray:none;stroke-dashoffset:0;stroke-opacity:1"
           id="rect951-7-0"
           width="13.737707"
           height="2.7132273"
           x="51.857769"
           y="52.031895"
           ry="0.16150157" />
      </g>
    </g>
    <path
       id="path1089"
       d="m 11.744948,281.42764 h -0.542925 v -1.12606 h 0.542925 z m 25.978114,0.15002 H 37.20686 v -3.00223 h 0.516202 z m -5.820834,-2.03464 h -0.517789 v -0.96759 h 0.517789 z m -8.98181,-0.41699 v -1.4343 h -0.833967 v -1.49278 h -2.468827 v 1.49278 h -1.943629 l -0.742156,2.62731 -0.717021,-2.62731 h -2.385483 l 1.893358,4.97919 -0.692415,1.86822 h 2.418557 l 2.160058,-5.65467 v 3.81106 h 2.477294 v -3.5695 z m 23.125642,3.5695 v -3.69412 c 0,-0.41751 -0.175154,-0.77602 -0.524934,-1.07579 -0.333904,-0.28417 -0.700616,-0.42545 -1.108868,-0.41752 -0.676011,0.008 -1.176073,0.19156 -1.501775,0.54187 l -0.0087,-0.46725 h -2.359057 v 5.11254 h 2.45163 v -3.56923 h 0.508264 v 3.5695 z m -31.899754,0 v -3.28613 c 0,-0.65008 -0.258234,-1.15041 -0.758296,-1.50918 -0.467519,-0.33364 -1.067594,-0.50033 -1.810014,-0.49186 -0.867305,0.008 -1.54305,0.18335 -2.034911,0.51752 -0.42545,0.28284 -0.634206,0.62521 -0.634206,1.03373 v 0.22569 h 2.318544 v -0.60987 h 0.517789 v 0.95039 l -1.184539,0.0257 c -1.217084,0.0243 -1.83515,0.50853 -1.842823,1.44304 -0.0172,1.18401 0.524933,1.77615 1.617398,1.77615 0.658548,0 1.159139,-0.24236 1.501245,-0.73369 l 0.0087,0.65855 z m 20.332435,-2.61065 c -0.0164,-0.85884 -0.19976,-1.49278 -0.541867,-1.89283 -0.441854,-0.5252 -1.200414,-0.78369 -2.284677,-0.78369 -0.917839,0 -1.577181,0.13335 -1.977231,0.40798 -0.575469,0.39212 -0.858838,1.15147 -0.858838,2.26854 0,1.09273 0.300303,1.84362 0.900642,2.2524 0.408781,0.28363 1.050661,0.42492 1.926431,0.43365 0.842434,0.008 1.484048,-0.12515 1.926696,-0.41751 0.391319,-0.25797 0.66675,-0.66675 0.817298,-1.21708 0.02487,-0.10848 0.04127,-0.20029 0.05001,-0.28311 H 31.91017 v 0.7247 h -0.525463 v -1.19248 h 3.077369 c 0.009,-0.10848 0.01667,-0.20849 0.01667,-0.30057 m 5.812631,0 c 0,-1.10834 -0.283633,-1.85129 -0.850371,-2.25134 -0.392113,-0.27569 -1.050926,-0.42518 -1.976967,-0.42518 -0.925513,0 -1.584325,0.14181 -1.976438,0.41698 -0.558271,0.40031 -0.842169,1.1512 -0.842169,2.25954 0,1.12633 0.283634,1.87669 0.842169,2.26827 0.391848,0.27544 1.050925,0.41752 1.976438,0.41752 0.917839,0 1.576123,-0.13335 1.976966,-0.41752 0.566738,-0.40005 0.850371,-1.15913 0.850371,-2.26827 M 8.509362,277.93382 c 0.01667,-0.48366 -0.14261,-0.89244 -0.442648,-1.22582 -0.308239,-0.34237 -0.71755,-0.50905 -1.242748,-0.50905 H 2.71287 v 6.49658 h 2.601913 v -2.41856 h 0.575204 v 2.41856 h 2.610644 v -2.05132 c 0,-0.36724 -0.06694,-0.63394 -0.208756,-0.80909 -0.199496,-0.2503 -0.407988,-0.40905 -0.617009,-0.48366 0.283104,-0.16669 0.483659,-0.33364 0.592138,-0.50059 0.141552,-0.2167 0.224896,-0.52573 0.242358,-0.91705 m 20.148814,4.76171 v -3.81133 c 0,-0.39158 -0.150283,-0.71728 -0.442912,-0.98425 -0.291042,-0.2585 -0.641879,-0.39185 -1.050396,-0.39185 -0.2921,0 -0.583406,0.0498 -0.875771,0.15002 -0.2921,0.10002 -0.508529,0.22516 -0.650346,0.36698 v -1.82615 H 23.15352 v 6.49658 h 2.485231 v -3.5695 h 0.516996 v 3.5695 z M 5.898718,278.8588 H 5.331187 v -1.4179 h 0.567796 v 1.4179 z"
       inkscape:connector-curvature="0"
       style="fill:#e31937;stroke-width:0.26458332" />
    <text
       xml:space="preserve"
       style="font-style:normal;font-variant:normal;font-weight:normal;font-stretch:normal;font-size:4.73216295px;line-height:1.25;font-family:'Segoe Print';-inkscape-font-specification:'Segoe Print';letter-spacing:0px;word-spacing:0px;fill:#000000;fill-opacity:1;stroke:none;stroke-width:0.11830407"
       x="5.5499434"
       y="295.97733"
       id="text1101"
       transform="scale(1.0236489,0.97689745)"><tspan
         sodipodi:role="line"
         id="tspan1099"
         x="5.5499434"
         y="295.97733"
         style="font-style:normal;font-variant:normal;font-weight:300;font-stretch:normal;font-size:4.73216295px;font-family:'Yu Gothic UI';-inkscape-font-specification:'Yu Gothic UI, Light';font-variant-ligatures:normal;font-variant-caps:normal;font-variant-numeric:normal;font-feature-settings:normal;text-align:start;writing-mode:lr-tb;text-anchor:start;stroke-width:0.11830407">Software Engineer</tspan></text>
  </g>
</svg>
