<!-- Created with Inkscape (http://www.inkscape.org/) --><svg xmlns:dc="http://purl.org/dc/elements/1.1/" xmlns:cc="http://creativecommons.org/ns#" xmlns:rdf="http://www.w3.org/1999/02/22-rdf-syntax-ns#" xmlns:svg="http://www.w3.org/2000/svg" xmlns="http://www.w3.org/2000/svg" xmlns:xlink="http://www.w3.org/1999/xlink" xmlns:sodipodi="http://sodipodi.sourceforge.net/DTD/sodipodi-0.dtd" xmlns:inkscape="http://www.inkscape.org/namespaces/inkscape" width="297mm" height="210mm" viewBox="0 0 297 210" version="1.1" id="svg8" inkscape:version="0.92.5 (2060ec1f9f, 2020-04-08)" sodipodi:docname="website-banner.tar">
  <defs id="defs2">
    <linearGradient inkscape:collect="always" id="linearGradient5464">
      <stop style="stop-color:#000000;stop-opacity:1" offset="0" id="stop5460"/>
      <stop style="stop-color:#a664f2;stop-opacity:1" offset="1" id="stop5462"/>
    </linearGradient>
    <linearGradient inkscape:collect="always" id="linearGradient5438">
      <stop style="stop-color:#000000;stop-opacity:1;" offset="0" id="stop5434"/>
      <stop style="stop-color:#000000;stop-opacity:0;" offset="1" id="stop5436"/>
    </linearGradient>
    <linearGradient inkscape:collect="always" id="linearGradient4953">
      <stop style="stop-color:#e9afaf;stop-opacity:1;" offset="0" id="stop4949"/>
      <stop style="stop-color:#ffccaa;stop-opacity:1" offset="1" id="stop4951"/>
    </linearGradient>
    <linearGradient inkscape:collect="always" id="linearGradient4886">
      <stop style="stop-color:#9955ff;stop-opacity:1" offset="0" id="stop4882"/>
      <stop style="stop-color:#e9afaf;stop-opacity:1" offset="1" id="stop4884"/>
    </linearGradient>
    <linearGradient inkscape:collect="always" id="linearGradient4752">
      <stop style="stop-color:#e9afaf;stop-opacity:1;" offset="0" id="stop4748"/>
      <stop style="stop-color:#e9afaf;stop-opacity:0;" offset="1" id="stop4750"/>
    </linearGradient>
    <linearGradient inkscape:collect="always" id="linearGradient4615">
      <stop style="stop-color:#00aad4;stop-opacity:1;" offset="0" id="stop4611"/>
      <stop style="stop-color:#00aad4;stop-opacity:0;" offset="1" id="stop4613"/>
    </linearGradient>
    <linearGradient inkscape:collect="always" xlink:href="#linearGradient4615" id="linearGradient4617" x1="0.2672686" y1="148.66547" x2="115.19317" y2="148.66547" gradientUnits="userSpaceOnUse" gradientTransform="matrix(1.2773669,0,0,1.0012725,-298.0401,-0.62729551)"/>
    <linearGradient inkscape:collect="always" xlink:href="#linearGradient4752" id="linearGradient4758" x1="0" y1="28.672234" x2="287.30127" y2="28.108894" gradientUnits="userSpaceOnUse" gradientTransform="matrix(0.11510382,0,0,5.1792278,72.147691,-104.90837)"/>
    <linearGradient inkscape:collect="always" xlink:href="#linearGradient4886" id="linearGradient4888" x1="176.97427" y1="-73.931335" x2="176.94287" y2="-45.133923" gradientUnits="userSpaceOnUse" gradientTransform="matrix(5.2784051,0,0,1.1310295,-784.02687,117.14537)"/>
    <linearGradient inkscape:collect="always" xlink:href="#linearGradient4953" id="linearGradient4955" x1="101.6756" y1="220.9613" x2="102.34228" y2="253.08928" gradientUnits="userSpaceOnUse" gradientTransform="translate(47.625001,-155.34821)"/>
    <linearGradient inkscape:collect="always" xlink:href="#linearGradient4953" id="linearGradient5115" gradientUnits="userSpaceOnUse" gradientTransform="translate(46.869049,-154.59226)" x1="101.6756" y1="220.9613" x2="102.34228" y2="253.08928"/>
    <linearGradient inkscape:collect="always" xlink:href="#linearGradient5438" id="linearGradient5440" x1="148.60185" y1="210" x2="148.60185" y2="185.01031" gradientUnits="userSpaceOnUse" gradientTransform="matrix(1,0,0,2.2736843,0,-267.81412)"/>
    <linearGradient inkscape:collect="always" xlink:href="#linearGradient5464" id="linearGradient6511" gradientUnits="userSpaceOnUse" gradientTransform="matrix(6.1153848,0,0,1.7625648,369.35461,-19.445566)" x1="-35.852776" y1="10.991319" x2="-35.814114" y2="32.933941"/>
    <linearGradient inkscape:collect="always" xlink:href="#linearGradient4953" id="linearGradient5115-4" gradientUnits="userSpaceOnUse" gradientTransform="matrix(1.0012599,0,0,1,46.976494,-154.61785)" x1="101.6756" y1="220.9613" x2="102.34228" y2="253.08928"/>
    <linearGradient inkscape:collect="always" xlink:href="#linearGradient4886" id="linearGradient4888-9" x1="176.97427" y1="-73.931335" x2="176.94287" y2="-45.133923" gradientUnits="userSpaceOnUse" gradientTransform="matrix(5.2784052,0,0,1.1310295,-783.97915,116.44996)"/>
    <linearGradient inkscape:collect="always" xlink:href="#linearGradient5464" id="linearGradient6511-0" gradientUnits="userSpaceOnUse" gradientTransform="matrix(6.1153849,0,0,1.7625648,369.16474,-18.963293)" x1="-35.852776" y1="10.991319" x2="-35.814114" y2="32.933941"/>
    <linearGradient inkscape:collect="always" xlink:href="#linearGradient5438" id="linearGradient5440-7-3" x1="148.60185" y1="210" x2="148.60185" y2="185.01031" gradientUnits="userSpaceOnUse" gradientTransform="matrix(1,0,0,2.2736843,0.1918531,-267.99132)"/>
  </defs>
  <sodipodi:namedview id="base" pagecolor="#ffffff" bordercolor="#666666" borderopacity="1.0" inkscape:pageopacity="0.0" inkscape:pageshadow="2" inkscape:zoom="1" inkscape:cx="594.71626" inkscape:cy="413.64208" inkscape:document-units="mm" inkscape:current-layer="layer11" showgrid="false" showguides="false" inkscape:snap-global="true" inkscape:lockguides="false" inkscape:guide-bbox="true" inkscape:snap-page="true" inkscape:snap-grids="true" inkscape:object-nodes="false" inkscape:snap-bbox="true" inkscape:snap-to-guides="true" inkscape:snap-nodes="false" inkscape:window-width="1920" inkscape:window-height="1051" inkscape:window-x="-9" inkscape:window-y="-9" inkscape:window-maximized="1">
    <inkscape:grid type="xygrid" id="grid10"/>
    <sodipodi:guide position="305.78274,151.56845" orientation="0,1" id="guide3728" inkscape:locked="false"/>
  </sodipodi:namedview>
  <metadata id="metadata5">
    <rdf:RDF>
      <cc:Work rdf:about="">
        <dc:format>image/svg+xml</dc:format>
        <dc:type rdf:resource="http://purl.org/dc/dcmitype/StillImage"/>
        <dc:title/>
      </cc:Work>
    </rdf:RDF>
  </metadata>
  <svg:g inkscape:groupmode="layer" id="layer10" inkscape:label="silhouette" sodipodi:insensitive="true">
    <svg:rect style="opacity:1;fill:url(#linearGradient5440-7-3);fill-opacity:1;stroke:none;stroke-width:0.61192632;stroke-miterlimit:4;stroke-dasharray:none;stroke-opacity:1" id="rect5432-5" width="297.73825" height="57.730217" x="-0.075421624" y="152.35985" ry="0"/>
    <svg:path style="fill:#000000;fill-opacity:1;stroke:#000000;stroke-width:0.26458332px;stroke-linecap:butt;stroke-linejoin:miter;stroke-opacity:1" d="m 298.19737,160.37796 c -18.80486,-5.35107 -36.74004,-3.07677 -54.79025,2.93996 -4.99194,1.66399 -9.88897,7.48355 -13.63074,9.35444 -4.0388,2.0194 -7.57302,3.65287 -11.49259,5.61266 -4.73009,2.36504 -23.25086,0.64081 -32.33961,4.27631 -5.83361,2.33344 -10.70303,7.22036 -16.30344,9.08716 -7.28901,2.42967 -15.09302,5.10961 -22.45064,6.94901 -4.66451,1.16613 -9.72639,0.96162 -14.43256,2.13816 -6.49464,1.62366 -13.70066,0.23438 -20.31248,1.33635 -12.12016,2.02002 -23.365386,4.27631 -36.081386,4.27631 -7.545779,0 -16.23278,-1.5263 -23.786991,-0.26727 -14.114579,7.08267 -42.093799,-4.52547 -51.5830199,3.74177 93.1473209,2.6951 207.5004069,2.50035 296.9364769,0.80182 0.0289,-26.64959 0.58468,-30.43883 0.26723,-50.24668 z" id="path5452-6" inkscape:connector-curvature="0" sodipodi:nodetypes="ccccsscssscccc"/>
    <svg:path style="fill:none;stroke:#000000;stroke-width:0.28949544;stroke-linecap:butt;stroke-linejoin:miter;stroke-miterlimit:4;stroke-dasharray:none;stroke-opacity:0.96517412" d="m 22.040914,79.1999 c 1.58886,-5.65509 2.89207,1.52326 3.49645,1.30252 0.45843,-0.16744 0.773449,-3.11694 1.851369,-2.96909 1.116801,0.15319 2.36283,1.9508 3.254941,0.9608" id="path5513-8" inkscape:connector-curvature="0"/>
    <svg:path style="fill:none;stroke:#000000;stroke-width:0.28903562;stroke-linecap:butt;stroke-linejoin:miter;stroke-miterlimit:4;stroke-dasharray:none;stroke-opacity:1" d="m 135.59831,90.1717 c 1.33249,-1.82021 2.14003,-3.63444 4.72625,-1.83239 0.55039,0.3835 0.78101,1.42889 1.16253,1.6317 0.046,0.0245 0.90023,-1.76304 2.1001,-2.2146 1.4165,-0.53308 2.72657,1.30449 3.74101,1.84373" id="path5702-9" inkscape:connector-curvature="0" sodipodi:nodetypes="ccscc"/>
    <svg:path style="fill:none;stroke:#000000;stroke-width:0.28903562;stroke-linecap:butt;stroke-linejoin:miter;stroke-miterlimit:4;stroke-dasharray:none;stroke-opacity:1" d="m 146.9923,85.58427 c 0.95753,-2.04251 1.40106,-3.97818 4.28559,-2.70718 0.61387,0.27048 1.04124,1.252 1.45465,1.37764 0.0498,0.0152 0.54433,-1.90326 1.63495,-2.57716 1.28753,-0.79556 2.92656,0.75573 4.02577,1.0898" id="path5702-3-0" inkscape:connector-curvature="0" sodipodi:nodetypes="ccscc"/>
    <svg:path style="fill:none;stroke:#000000;stroke-width:0.22898471;stroke-linecap:butt;stroke-linejoin:miter;stroke-miterlimit:4;stroke-dasharray:none;stroke-opacity:1" d="m 155.42508,90.11389 c 1.03325,-1.47331 1.65943,-2.94177 3.66485,-1.48316 0.42678,0.31041 0.60561,1.15655 0.90145,1.32071 0.0357,0.0198 0.69807,-1.42702 1.62847,-1.79252 1.09839,-0.43149 2.11425,1.05587 2.90087,1.49234" id="path5702-1-2" inkscape:connector-curvature="0" sodipodi:nodetypes="ccscc"/>
    <svg:rect style="opacity:1;fill:#000000;fill-opacity:1;stroke:#000000;stroke-width:0.29859883;stroke-miterlimit:4;stroke-dasharray:none;stroke-opacity:0.96517412" id="rect5734-7" width="4.8752527" height="41.223911" x="273.84366" y="118.65173"/>
    <svg:path style="fill:#000000;fill-opacity:1;stroke:#000000;stroke-width:0.26458332px;stroke-linecap:butt;stroke-linejoin:miter;stroke-opacity:1" d="m 273.96733,129.80555 c -3.40722,2.0947 -6.93274,3.62131 -10.55727,2.85483 -21.27916,-4.49993 -17.50901,-0.1 -0.32232,1.5853 2.66359,0.26118 9.64356,1.0715 11.01966,-0.0588 0.62545,-0.51376 0.5466,-3.98416 -0.14007,-4.38131" id="path5738-1" inkscape:connector-curvature="0" sodipodi:nodetypes="csssc"/>
    <svg:path style="opacity:1;fill:#000000;fill-opacity:1;stroke:#000000;stroke-width:0.36300001;stroke-miterlimit:4;stroke-dasharray:none;stroke-opacity:0.96517412" d="m 274.5441,90.08614 a 5.4790253,5.61266 0 0 0 -5.45857,5.18728 5.0781207,4.5435819 0 0 0 -1.08987,-0.10904 5.0781207,4.5435819 0 0 0 -5.07773,4.54339 5.0781207,4.5435819 0 0 0 0.52711,2.01074 4.6772166,4.1426778 0 0 0 -2.66187,3.60598 4.0090429,3.2072345 0 0 0 -1.60713,-0.2713 4.0090429,3.2072345 0 0 0 -4.00906,3.20702 4.0090429,3.2072345 0 0 0 0.55139,1.61542 5.587293,4.3845805 0 0 0 -3.73311,4.13101 5.587293,4.3845805 0 0 0 1.90738,3.29488 5.2117556,4.810851 0 0 0 -1.1312,2.98588 5.2117556,4.810851 0 0 0 5.21157,4.81106 5.2117556,4.810851 0 0 0 4.65399,-2.65667 5.3453903,4.9444862 0 0 0 4.56716,2.38952 5.3453903,4.9444862 0 0 0 5.13765,-3.59513 5.8799296,5.61266 0 0 0 4.48397,1.99161 5.8799296,5.61266 0 0 0 4.1207,-1.61127 5.0781207,5.2117556 0 0 0 4.43175,2.67993 5.0781207,5.2117556 0 0 0 2.3337,-0.58447 6.4144686,6.681738 0 0 0 3.54658,1.11933 6.4144686,6.681738 0 0 0 6.41406,-6.68177 6.4144686,6.681738 0 0 0 -1.60351,-4.40697 3.8754082,3.6081385 0 0 0 0,-0.003 3.8754082,3.6081385 0 0 0 -2.21848,-3.25665 4.9444862,5.0781207 0 0 0 0.0806,-0.88574 4.9444862,5.0781207 0 0 0 -3.91448,-4.96455 3.8754082,4.0090429 0 0 0 0.17259,-1.18287 3.8754082,4.0090429 0 0 0 -3.54915,-3.992 4.5435819,4.2763122 0 0 0 0.3416,-1.62057 4.5435819,4.2763122 0 0 0 -4.54339,-4.27623 4.5435819,4.2763122 0 0 0 -2.57763,0.76068 5.4790253,5.61266 0 0 0 -5.30664,-4.2354 z" id="path5760-9" inkscape:connector-curvature="0"/>
    <svg:path style="opacity:1;fill:#000000;fill-opacity:1;stroke:#000000;stroke-width:0.36300001;stroke-miterlimit:4;stroke-dasharray:none;stroke-opacity:0.96517412" id="path5816-0" sodipodi:type="arc" sodipodi:cx="261.98236" sodipodi:cy="132.31465" sodipodi:rx="2.80633" sodipodi:ry="2.4054255" sodipodi:start="0" sodipodi:end="6.2831679" d="m 264.78869,132.31465 a 2.80633,2.4054255 0 0 1 -2.80632,2.40543 2.80633,2.4054255 0 0 1 -2.80634,-2.40541 2.80633,2.4054255 0 0 1 2.80629,-2.40544 2.80633,2.4054255 0 0 1 2.80637,2.40538 l -2.80633,4e-5 z"/>
    <svg:path style="opacity:1;fill:#000000;fill-opacity:1;stroke:#000000;stroke-width:0.36300001;stroke-miterlimit:4;stroke-dasharray:none;stroke-opacity:0.96517412" id="path5818-7" sodipodi:type="arc" sodipodi:cx="265.18954" sodipodi:cy="131.51285" sodipodi:rx="3.0735996" sodipodi:ry="2.6726952" sodipodi:start="0" sodipodi:end="6.2831679" d="m 268.26314,131.51285 a 3.0735996,2.6726952 0 0 1 -3.07358,2.67269 3.0735996,2.6726952 0 0 1 -3.07361,-2.67267 3.0735996,2.6726952 0 0 1 3.07355,-2.67272 3.0735996,2.6726952 0 0 1 3.07364,2.67265 l -3.0736,5e-5 z"/>
    <svg:path style="opacity:1;fill:#000000;fill-opacity:1;stroke:#000000;stroke-width:0.36300001;stroke-miterlimit:4;stroke-dasharray:none;stroke-opacity:0.96517412" id="path5820-6" sodipodi:type="arc" sodipodi:cx="257.43881" sodipodi:cy="134.8537" sodipodi:rx="3.0735996" sodipodi:ry="2.5390604" sodipodi:start="0" sodipodi:end="6.2831679" d="m 260.51241,134.8537 a 3.0735996,2.5390604 0 0 1 -3.07358,2.53906 3.0735996,2.5390604 0 0 1 -3.07362,-2.53904 3.0735996,2.5390604 0 0 1 3.07356,-2.53908 3.0735996,2.5390604 0 0 1 3.07364,2.53901 l -3.0736,5e-5 z"/>
    <svg:path style="opacity:1;fill:#000000;fill-opacity:1;stroke:#000000;stroke-width:0.36300001;stroke-miterlimit:4;stroke-dasharray:none;stroke-opacity:0.96517412" id="path5822-6" sodipodi:type="arc" sodipodi:cx="257.30515" sodipodi:cy="130.57741" sodipodi:rx="2.9399648" sodipodi:ry="2.5390604" sodipodi:start="0" sodipodi:end="6.2831679" d="m 260.24511,130.57741 a 2.9399648,2.5390604 0 0 1 -2.93995,2.53906 2.9399648,2.5390604 0 0 1 -2.93998,-2.53904 2.9399648,2.5390604 0 0 1 2.93993,-2.53908 2.9399648,2.5390604 0 0 1 2.94,2.53901 l -2.93996,5e-5 z"/>
    <svg:path style="opacity:1;fill:#000000;fill-opacity:1;stroke:#000000;stroke-width:0.02101607;stroke-miterlimit:4;stroke-dasharray:none;stroke-opacity:0.96517412" id="path5824-3" sodipodi:type="arc" sodipodi:cx="235.9236" sodipodi:cy="129.21434" sodipodi:rx="0.97280198" sodipodi:ry="0.70553106" sodipodi:start="0" sodipodi:end="6.2831679" d="m 236.8964,129.21434 a 0.97280198,0.70553106 0 0 1 -0.9728,0.70553 0.97280198,0.70553106 0 0 1 -0.9728,-0.70552 0.97280198,0.70553106 0 0 1 0.97279,-0.70554 0.97280198,0.70553106 0 0 1 0.97281,0.70552 l -0.9728,1e-5 z"/>
    <svg:path style="opacity:1;fill:#000000;fill-opacity:1;stroke:#000000;stroke-width:0.02101607;stroke-miterlimit:4;stroke-dasharray:none;stroke-opacity:0.96517412" id="path5824-0-6" sodipodi:type="arc" sodipodi:cx="230.35043" sodipodi:cy="134.70718" sodipodi:rx="0.97280204" sodipodi:ry="0.70553106" sodipodi:start="0" sodipodi:end="6.2831679" d="m 231.32324,134.70718 a 0.97280204,0.70553106 0 0 1 -0.9728,0.70553 0.97280204,0.70553106 0 0 1 -0.97281,-0.70552 0.97280204,0.70553106 0 0 1 0.97279,-0.70554 0.97280204,0.70553106 0 0 1 0.97282,0.70552 l -0.97281,1e-5 z"/>
    <svg:path style="opacity:1;fill:#000000;fill-opacity:1;stroke:#000000;stroke-width:0.02101607;stroke-miterlimit:4;stroke-dasharray:none;stroke-opacity:0.96517412" id="path5824-06-7" sodipodi:type="arc" sodipodi:cx="221.79779" sodipodi:cy="133.37083" sodipodi:rx="0.97280204" sodipodi:ry="0.70553106" sodipodi:start="0" sodipodi:end="6.2831679" d="m 222.77059,133.37083 a 0.97280204,0.70553106 0 0 1 -0.9728,0.70554 0.97280204,0.70553106 0 0 1 -0.9728,-0.70553 0.97280204,0.70553106 0 0 1 0.97279,-0.70554 0.97280204,0.70553106 0 0 1 0.97281,0.70552 l -0.9728,1e-5 z"/>
    <svg:path style="fill:#000000;fill-opacity:1;stroke:#000000;stroke-width:0.20036678px;stroke-linecap:butt;stroke-linejoin:miter;stroke-opacity:1" d="m 274.69763,135.65863 c 1.9299,2.12087 3.92679,3.66658 5.97975,2.89052 12.05272,-4.5562 9.91727,-0.10125 0.18256,1.60512 -1.50868,0.26444 -5.46219,1.08489 -6.24163,-0.0595 -0.35427,-0.52018 -0.30961,-4.03397 0.0793,-4.43608" id="path5738-2-3" inkscape:connector-curvature="0" sodipodi:nodetypes="csssc"/>
    <svg:path style="opacity:1;fill:#000000;fill-opacity:1;stroke:#000000;stroke-width:0.28770119;stroke-miterlimit:4;stroke-dasharray:none;stroke-opacity:0.96517412" d="m 282.75957,131.60895 a 1.4061302,2.9039214 0 0 0 -1.26344,1.6382 0.40236854,2.2303598 6.5195553 0 0 -0.12663,-0.16973 0.40236854,2.2303598 6.5195553 0 0 -0.65365,2.15907 0.40236854,2.2303598 6.5195553 0 0 0.14332,2.27224 0.40236854,2.2303598 6.5195553 0 0 0.61249,-1.84077 1.4061302,2.9039214 0 0 0 1.10926,1.72199 0.20087573,3.2389892 0 0 0 -0.0222,1.47883 0.20087573,3.2389892 0 0 0 0.20082,3.23883 0.20087573,3.2389892 0 0 0 0.20079,-3.23883 0.20087573,3.2389892 0 0 0 -0.0222,-1.47926 1.4061302,2.9039214 0 0 0 1.11197,-1.72588 2.2303598,0.40236854 83.480445 0 0 0.59269,1.70601 2.2303598,0.40236854 83.480445 0 0 0.1429,-2.27223 2.2303598,0.40236854 83.480445 0 0 -0.65365,-2.15908 2.2303598,0.40236854 83.480445 0 0 -0.13478,0.2004 1.4061302,2.9039214 0 0 0 -1.2378,-1.52979 z" id="path5871-6" inkscape:connector-curvature="0"/>
    <svg:rect style="opacity:1;fill:#000000;fill-opacity:1;stroke:#000000;stroke-width:0.36300001;stroke-miterlimit:4;stroke-dasharray:none;stroke-opacity:0.96517412" id="rect5916-4" width="6.6817379" height="9.4880686" x="261.31421" y="149.82083" ry="2.271791"/>
    <svg:path style="fill:#000000;fill-opacity:1;stroke:#000000;stroke-width:0.17643435px;stroke-linecap:butt;stroke-linejoin:miter;stroke-opacity:1" d="m 261.60127,147.83249 c -1.67779,-2.01319 -1.09412,-4.16845 0.53381,-5.80159 1.53046,-1.53534 5.31821,0.20743 5.87209,1.87436 1.001,3.01263 -0.98208,5.49175 -3.29192,7.22967 -2.4693,1.8579 -6.05577,2.55768 -9.07501,2.05287 -1.08361,-0.11052 -5.97741,-1.90776 -3.9592,-3.34707 -0.20681,1.76944 4.45951,2.27601 3.78125,2.27601 -0.70212,0 -2.69772,-2.02419 -2.13529,-2.5884 0.0741,-0.0743 0.6274,0.49321 0.71176,0.53553 0.74004,0.3712 1.86417,0.71544 2.66912,0.44627 2.32283,-0.77675 0.0398,0.43691 -0.62279,-0.89255 -0.0324,-0.0651 -0.18376,-0.44044 -0.089,-0.53553 0.21471,-0.21539 4.87072,1.69753 5.60515,-1.24957 z" id="path5924-6" inkscape:connector-curvature="0" sodipodi:nodetypes="ccccccscccccc"/>
    <svg:path style="fill:#000000;fill-opacity:1;stroke:#000000;stroke-width:0.16801545px;stroke-linecap:butt;stroke-linejoin:miter;stroke-opacity:1" d="m 262.02586,158.30397 c -0.67312,-1.85879 -2.0637,-3.52396 -3.778,-4.3612 -2.42492,-1.1843 -3.18545,3.78241 -4.12146,4.69668 -0.77173,0.75379 -3.43619,0.50161 -2.91935,1.00643 2.44256,2.38584 4.66052,-1.94066 5.83871,-2.51608 0.25827,-0.12613 1.1837,1.57554 1.37383,1.76126 0.37492,0.36622 2.8839,1.71202 3.60627,1.00643 1.04043,-1.01627 0.14315,-1.50961 -0.60105,-2.59995" id="path5932-1" inkscape:connector-curvature="0"/>
    <svg:path style="fill:#000000;fill-opacity:1;stroke:#000000;stroke-width:0.13013311px;stroke-linecap:butt;stroke-linejoin:miter;stroke-opacity:1" d="m 270.69179,155.02577 c 0.0782,0.44529 -1.36602,3.43375 -1.57655,3.2 -0.53649,-0.59563 0.8567,-2.52824 0.76489,-3.05073 -1.62081,-1.67186 -3.97669,-3.76715 -1.55692,-3.65752" id="path5940-6" inkscape:connector-curvature="0" sodipodi:nodetypes="cccc"/>
    <svg:path style="opacity:1;fill:#000000;fill-opacity:1;stroke:#000000;stroke-width:0.36300001;stroke-miterlimit:4;stroke-dasharray:none;stroke-opacity:0.96517412" id="path6126-9" sodipodi:type="arc" sodipodi:cx="262.71735" sodipodi:cy="134.65324" sodipodi:rx="2.2049735" sodipodi:ry="1.9377041" sodipodi:start="0" sodipodi:end="6.2831679" d="m 264.92232,134.65324 a 2.2049735,1.9377041 0 0 1 -2.20496,1.93771 2.2049735,1.9377041 0 0 1 -2.20499,-1.93769 2.2049735,1.9377041 0 0 1 2.20495,-1.93772 2.2049735,1.9377041 0 0 1 2.205,1.93767 l -2.20497,3e-5 z"/>
    <svg:path style="opacity:1;fill:#040404;fill-opacity:1;stroke:none;stroke-width:1.70660067;stroke-miterlimit:4;stroke-dasharray:none;stroke-opacity:1" d="m 56.702204,209.07955 -1.39541,-0.21776 -23.998941,-51.88755 c -6.51595,-1.7067 -16.069329,34.55449 -24.1039899,51.83174 l -9.64081,1.48059 c 8.2173702,-0.32833 16.4365209,-0.61097 24.6576309,-0.78496 11.48668,-0.24297 22.986771,-0.31231 34.48152,-0.42191 z" id="path6833-4-6" inkscape:connector-curvature="0" sodipodi:nodetypes="cccccccc"/>
    <svg:path style="opacity:1;fill:#040404;fill-opacity:1;stroke:none;stroke-width:1.91130149;stroke-miterlimit:4;stroke-dasharray:none;stroke-opacity:1" d="m 93.371586,207.72303 -1.466041,-0.25997 C 83.500984,186.81439 70.235374,140.19221 66.691854,145.51704 l -25.324051,61.87939 -10.12879,1.76761 c 8.633302,-0.39198 17.268481,-0.72941 25.905712,-0.93711 12.068101,-0.29008 24.15028,-0.37286 36.226861,-0.50371 z" id="path6833-7-3" inkscape:connector-curvature="0" sodipodi:nodetypes="cccccccc"/>
    <svg:path style="opacity:1;fill:#040404;fill-opacity:1;stroke:none;stroke-width:1.58229423;stroke-miterlimit:4;stroke-dasharray:none;stroke-opacity:1" d="m 107.21615,211.11987 -1.39541,-0.18719 c -7.999647,-14.868 -19.874117,-50.1279 -23.998944,-44.604 l -24.103992,44.55602 -9.640811,1.27276 c 8.217371,-0.28224 16.43652,-0.52521 24.657633,-0.67476 11.486679,-0.20887 22.986769,-0.26848 34.481524,-0.3627 z" id="path6833-1-0" inkscape:connector-curvature="0" sodipodi:nodetypes="cccccccc"/>
    <svg:path style="opacity:1;fill:#040404;fill-opacity:1;stroke:none;stroke-width:1.58229423;stroke-miterlimit:4;stroke-dasharray:none;stroke-opacity:1" d="m 133.78274,204.75886 -1.39541,-0.18719 c -7.86735,-15.39717 -12.06699,-48.52166 -23.60206,-46.19151 -4.65472,10.11282 -16.333916,30.76235 -24.500876,46.14353 l -9.64081,1.27276 c 8.217371,-0.28224 16.43652,-0.52522 24.657629,-0.67477 11.486687,-0.20887 22.986777,-0.26847 34.481527,-0.3627 z" id="path6833-9-5" inkscape:connector-curvature="0" sodipodi:nodetypes="cccccccc"/>
    <svg:path style="opacity:1;fill:#000000;fill-opacity:1;stroke:none;stroke-width:0.36300001;stroke-miterlimit:4;stroke-dasharray:none;stroke-opacity:1" id="path6910-464" sodipodi:type="arc" sodipodi:cx="292.61145" sodipodi:cy="125.25873" sodipodi:rx="3.5546851" sodipodi:ry="3.7417734" sodipodi:start="0" sodipodi:end="6.1718682" sodipodi:open="true" d="m 296.16614,125.25873 a 3.5546851,3.7417734 0 0 1 -3.45578,3.74032 3.5546851,3.7417734 0 0 1 -3.64809,-3.53217 3.5546851,3.7417734 0 0 1 3.25275,-3.93689 3.5546851,3.7417734 0 0 1 3.82911,3.31307"/>
    <svg:path style="opacity:1;fill:#000000;fill-opacity:1;stroke:none;stroke-width:0.36300001;stroke-miterlimit:4;stroke-dasharray:none;stroke-opacity:1" id="path6910-6-5" sodipodi:type="arc" sodipodi:cx="286.4375" sodipodi:cy="125.25873" sodipodi:rx="3.5546854" sodipodi:ry="3.7417734" sodipodi:start="0" sodipodi:end="6.1718682" sodipodi:open="true" d="m 289.99219,125.25873 a 3.5546854,3.7417734 0 0 1 -3.45578,3.74032 3.5546854,3.7417734 0 0 1 -3.64809,-3.53217 3.5546854,3.7417734 0 0 1 3.25275,-3.93689 3.5546854,3.7417734 0 0 1 3.82911,3.31307"/>
    <svg:path style="opacity:1;fill:#000000;fill-opacity:1;stroke:none;stroke-width:0.36300001;stroke-miterlimit:4;stroke-dasharray:none;stroke-opacity:1" id="path6910-3-0" sodipodi:type="arc" sodipodi:cx="280.45068" sodipodi:cy="124.13622" sodipodi:rx="3.5546854" sodipodi:ry="3.7417734" sodipodi:start="0" sodipodi:end="6.1718682" sodipodi:open="true" d="m 284.00537,124.13622 a 3.5546854,3.7417734 0 0 1 -3.45577,3.74033 3.5546854,3.7417734 0 0 1 -3.6481,-3.53217 3.5546854,3.7417734 0 0 1 3.25276,-3.9369 3.5546854,3.7417734 0 0 1 3.82911,3.31308"/>
    <svg:path style="opacity:1;fill:#000000;fill-opacity:1;stroke:none;stroke-width:0.36300001;stroke-miterlimit:4;stroke-dasharray:none;stroke-opacity:1" id="path6910-60-7" sodipodi:type="arc" sodipodi:cx="272.21881" sodipodi:cy="125.63292" sodipodi:rx="3.5546854" sodipodi:ry="3.7417734" sodipodi:start="0" sodipodi:end="6.1718682" sodipodi:open="true" d="m 275.7735,125.63292 a 3.5546854,3.7417734 0 0 1 -3.45578,3.74032 3.5546854,3.7417734 0 0 1 -3.64809,-3.53217 3.5546854,3.7417734 0 0 1 3.25275,-3.93689 3.5546854,3.7417734 0 0 1 3.82912,3.31308"/>
    <svg:path style="opacity:1;fill:#000000;fill-opacity:1;stroke:none;stroke-width:0.36300001;stroke-miterlimit:4;stroke-dasharray:none;stroke-opacity:1" id="path6910-2-3" sodipodi:type="arc" sodipodi:cx="265.85776" sodipodi:cy="123.38786" sodipodi:rx="3.5546854" sodipodi:ry="3.7417734" sodipodi:start="0" sodipodi:end="6.1718682" sodipodi:open="true" d="m 269.41244,123.38786 a 3.5546854,3.7417734 0 0 1 -3.45577,3.74033 3.5546854,3.7417734 0 0 1 -3.64809,-3.53217 3.5546854,3.7417734 0 0 1 3.25275,-3.9369 3.5546854,3.7417734 0 0 1 3.82911,3.31308"/>
    <svg:path style="opacity:1;fill:#000000;fill-opacity:1;stroke:none;stroke-width:0.36300001;stroke-miterlimit:4;stroke-dasharray:none;stroke-opacity:1" id="path6910-38-7" sodipodi:type="arc" sodipodi:cx="260.24512" sodipodi:cy="101.31139" sodipodi:rx="3.5546854" sodipodi:ry="3.7417734" sodipodi:start="0" sodipodi:end="6.1718682" sodipodi:open="true" d="m 263.7998,101.31139 a 3.5546854,3.7417734 0 0 1 -3.45577,3.74033 3.5546854,3.7417734 0 0 1 -3.64809,-3.53217 3.5546854,3.7417734 0 0 1 3.25275,-3.936897 3.5546854,3.7417734 0 0 1 3.82911,3.313077"/>
    <svg:path style="opacity:1;fill:#000000;fill-opacity:1;stroke:none;stroke-width:0.36300001;stroke-miterlimit:4;stroke-dasharray:none;stroke-opacity:1" id="path6910-27-3" sodipodi:type="arc" sodipodi:cx="263.23856" sodipodi:cy="95.69873" sodipodi:rx="3.5546854" sodipodi:ry="3.7417734" sodipodi:start="0" sodipodi:end="6.1718682" sodipodi:open="true" d="m 266.79324,95.69873 a 3.5546854,3.7417734 0 0 1 -3.45577,3.740325 3.5546854,3.7417734 0 0 1 -3.64809,-3.53217 3.5546854,3.7417734 0 0 1 3.25275,-3.936895 3.5546854,3.7417734 0 0 1 3.82911,3.313077"/>
    <svg:path style="opacity:1;fill:#000000;fill-opacity:1;stroke:none;stroke-width:0.36300001;stroke-miterlimit:4;stroke-dasharray:none;stroke-opacity:1" id="path6910-4-0" sodipodi:type="arc" sodipodi:cx="256.12915" sodipodi:cy="104.30481" sodipodi:rx="3.5546854" sodipodi:ry="3.7417734" sodipodi:start="0" sodipodi:end="6.1718682" sodipodi:open="true" d="m 259.68384,104.30481 a 3.5546854,3.7417734 0 0 1 -3.45578,3.74032 3.5546854,3.7417734 0 0 1 -3.64809,-3.53217 3.5546854,3.7417734 0 0 1 3.25275,-3.93689 3.5546854,3.7417734 0 0 1 3.82911,3.31308"/>
    <svg:path style="opacity:1;fill:#000000;fill-opacity:1;stroke:none;stroke-width:0.36300001;stroke-miterlimit:4;stroke-dasharray:none;stroke-opacity:1" id="path6910-36-3" sodipodi:type="arc" sodipodi:cx="252.76152" sodipodi:cy="108.79495" sodipodi:rx="3.5546854" sodipodi:ry="3.7417734" sodipodi:start="0" sodipodi:end="6.1718682" sodipodi:open="true" d="m 256.31621,108.79495 a 3.5546854,3.7417734 0 0 1 -3.45578,3.74033 3.5546854,3.7417734 0 0 1 -3.64809,-3.53217 3.5546854,3.7417734 0 0 1 3.25275,-3.9369 3.5546854,3.7417734 0 0 1 3.82911,3.31308"/>
    <svg:path style="opacity:1;fill:#000000;fill-opacity:1;stroke:none;stroke-width:0.36300001;stroke-miterlimit:4;stroke-dasharray:none;stroke-opacity:1" id="path6910-28-4" sodipodi:type="arc" sodipodi:cx="250.14233" sodipodi:cy="114.40759" sodipodi:rx="3.5546854" sodipodi:ry="3.7417734" sodipodi:start="0" sodipodi:end="6.1718682" sodipodi:open="true" d="m 253.69702,114.40759 a 3.5546854,3.7417734 0 0 1 -3.45577,3.74033 3.5546854,3.7417734 0 0 1 -3.6481,-3.53217 3.5546854,3.7417734 0 0 1 3.25276,-3.9369 3.5546854,3.7417734 0 0 1 3.82911,3.31308"/>
    <svg:path style="opacity:1;fill:#000000;fill-opacity:1;stroke:none;stroke-width:0.36300001;stroke-miterlimit:4;stroke-dasharray:none;stroke-opacity:1" id="path6910-8-4" sodipodi:type="arc" sodipodi:cx="295.41772" sodipodi:cy="110.29163" sodipodi:rx="3.5546854" sodipodi:ry="3.7417734" sodipodi:start="0" sodipodi:end="6.1718682" sodipodi:open="true" d="m 298.97241,110.29163 a 3.5546854,3.7417734 0 0 1 -3.45577,3.74033 3.5546854,3.7417734 0 0 1 -3.6481,-3.53217 3.5546854,3.7417734 0 0 1 3.25276,-3.9369 3.5546854,3.7417734 0 0 1 3.82911,3.31308"/>
    <svg:path style="opacity:1;fill:#000000;fill-opacity:1;stroke:none;stroke-width:0.36300001;stroke-miterlimit:4;stroke-dasharray:none;stroke-opacity:1" id="path6910-9-2" sodipodi:type="arc" sodipodi:cx="250.51649" sodipodi:cy="121.14281" sodipodi:rx="3.5546854" sodipodi:ry="3.7417734" sodipodi:start="0" sodipodi:end="6.1718682" sodipodi:open="true" d="m 254.07118,121.14281 a 3.5546854,3.7417734 0 0 1 -3.45577,3.74032 3.5546854,3.7417734 0 0 1 -3.6481,-3.53217 3.5546854,3.7417734 0 0 1 3.25276,-3.93689 3.5546854,3.7417734 0 0 1 3.82911,3.31307"/>
    <svg:path style="opacity:1;fill:#000000;fill-opacity:1;stroke:none;stroke-width:0.36300001;stroke-miterlimit:4;stroke-dasharray:none;stroke-opacity:1" id="path6910-1-3" sodipodi:type="arc" sodipodi:cx="268.10284" sodipodi:cy="94.576187" sodipodi:rx="3.5546854" sodipodi:ry="3.7417734" sodipodi:start="0" sodipodi:end="6.1718682" sodipodi:open="true" d="m 271.65753,94.576187 a 3.5546854,3.7417734 0 0 1 -3.45577,3.740325 3.5546854,3.7417734 0 0 1 -3.6481,-3.532171 3.5546854,3.7417734 0 0 1 3.25276,-3.936894 3.5546854,3.7417734 0 0 1 3.82911,3.313076"/>
    <svg:path style="opacity:1;fill:#000000;fill-opacity:1;stroke:none;stroke-width:0.36300001;stroke-miterlimit:4;stroke-dasharray:none;stroke-opacity:1" id="path6910-24-7" sodipodi:type="arc" sodipodi:cx="252.76154" sodipodi:cy="115.90431" sodipodi:rx="3.5546854" sodipodi:ry="3.7417734" sodipodi:start="0" sodipodi:end="6.1718682" sodipodi:open="true" d="m 256.31622,115.90431 a 3.5546854,3.7417734 0 0 1 -3.45577,3.74033 3.5546854,3.7417734 0 0 1 -3.6481,-3.53217 3.5546854,3.7417734 0 0 1 3.25276,-3.9369 3.5546854,3.7417734 0 0 1 3.82911,3.31308"/>
    <svg:path style="opacity:1;fill:#000000;fill-opacity:1;stroke:none;stroke-width:0.36300001;stroke-miterlimit:4;stroke-dasharray:none;stroke-opacity:1" id="path6910-5-9" sodipodi:type="arc" sodipodi:cx="273.71548" sodipodi:cy="121.32988" sodipodi:rx="3.5546854" sodipodi:ry="3.7417734" sodipodi:start="0" sodipodi:end="6.1718682" sodipodi:open="true" d="m 277.27017,121.32988 a 3.5546854,3.7417734 0 0 1 -3.45577,3.74032 3.5546854,3.7417734 0 0 1 -3.6481,-3.53217 3.5546854,3.7417734 0 0 1 3.25276,-3.93689 3.5546854,3.7417734 0 0 1 3.82911,3.31308"/>
    <svg:path style="opacity:1;fill:#000000;fill-opacity:1;stroke:none;stroke-width:0.36300001;stroke-miterlimit:4;stroke-dasharray:none;stroke-opacity:1" id="path6910-89-1" sodipodi:type="arc" sodipodi:cx="252.2003" sodipodi:cy="124.88455" sodipodi:rx="3.5546854" sodipodi:ry="3.7417734" sodipodi:start="0" sodipodi:end="6.1718682" sodipodi:open="true" d="m 255.75499,124.88455 a 3.5546854,3.7417734 0 0 1 -3.45578,3.74033 3.5546854,3.7417734 0 0 1 -3.64809,-3.53217 3.5546854,3.7417734 0 0 1 3.25275,-3.9369 3.5546854,3.7417734 0 0 1 3.82912,3.31308"/>
    <svg:path style="opacity:1;fill:#000000;fill-opacity:1;stroke:none;stroke-width:0.36300001;stroke-miterlimit:4;stroke-dasharray:none;stroke-opacity:1" id="path6910-80-6" sodipodi:type="arc" sodipodi:cx="246.58763" sodipodi:cy="117.58809" sodipodi:rx="3.5546854" sodipodi:ry="3.7417734" sodipodi:start="0" sodipodi:end="6.1718682" sodipodi:open="true" d="m 250.14232,117.58809 a 3.5546854,3.7417734 0 0 1 -3.45578,3.74032 3.5546854,3.7417734 0 0 1 -3.64809,-3.53217 3.5546854,3.7417734 0 0 1 3.25275,-3.93689 3.5546854,3.7417734 0 0 1 3.82912,3.31308"/>
    <svg:path style="opacity:1;fill:#000000;fill-opacity:1;stroke:none;stroke-width:0.36300001;stroke-miterlimit:4;stroke-dasharray:none;stroke-opacity:1" id="path6910-0-8" sodipodi:type="arc" sodipodi:cx="295.97906" sodipodi:cy="117.02684" sodipodi:rx="3.5546854" sodipodi:ry="3.7417734" sodipodi:start="0" sodipodi:end="6.1718682" sodipodi:open="true" d="m 299.53375,117.02684 a 3.5546854,3.7417734 0 0 1 -3.45577,3.74032 3.5546854,3.7417734 0 0 1 -3.6481,-3.53217 3.5546854,3.7417734 0 0 1 3.25276,-3.93689 3.5546854,3.7417734 0 0 1 3.82911,3.31308"/>
    <svg:path style="opacity:1;fill:#000000;fill-opacity:1;stroke:none;stroke-width:0.36300001;stroke-miterlimit:4;stroke-dasharray:none;stroke-opacity:1" id="path6910-95-5" sodipodi:type="arc" sodipodi:cx="295.60483" sodipodi:cy="122.45242" sodipodi:rx="3.5546854" sodipodi:ry="3.7417734" sodipodi:start="0" sodipodi:end="6.1718682" sodipodi:open="true" d="m 299.15951,122.45242 a 3.5546854,3.7417734 0 0 1 -3.45577,3.74033 3.5546854,3.7417734 0 0 1 -3.64809,-3.53217 3.5546854,3.7417734 0 0 1 3.25275,-3.9369 3.5546854,3.7417734 0 0 1 3.82911,3.31308"/>
    <svg:path style="opacity:1;fill:#000000;fill-opacity:1;stroke:none;stroke-width:0.36300001;stroke-miterlimit:4;stroke-dasharray:none;stroke-opacity:1" id="path6910-83-6" sodipodi:type="arc" sodipodi:cx="245.65221" sodipodi:cy="124.13622" sodipodi:rx="3.5546854" sodipodi:ry="3.7417734" sodipodi:start="0" sodipodi:end="6.1718682" sodipodi:open="true" d="m 249.20689,124.13622 a 3.5546854,3.7417734 0 0 1 -3.45577,3.74033 3.5546854,3.7417734 0 0 1 -3.64809,-3.53217 3.5546854,3.7417734 0 0 1 3.25275,-3.9369 3.5546854,3.7417734 0 0 1 3.82911,3.31308"/>
    <svg:path style="opacity:1;fill:#000000;fill-opacity:1;stroke:none;stroke-width:0.36300001;stroke-miterlimit:4;stroke-dasharray:none;stroke-opacity:1" id="path6910-12-9" sodipodi:type="arc" sodipodi:cx="241.91042" sodipodi:cy="119.83318" sodipodi:rx="3.5546854" sodipodi:ry="3.7417734" sodipodi:start="0" sodipodi:end="6.1718682" sodipodi:open="true" d="m 245.4651,119.83318 a 3.5546854,3.7417734 0 0 1 -3.45577,3.74033 3.5546854,3.7417734 0 0 1 -3.6481,-3.53217 3.5546854,3.7417734 0 0 1 3.25276,-3.9369 3.5546854,3.7417734 0 0 1 3.82911,3.31308"/>
    <svg:path style="opacity:1;fill:#000000;fill-opacity:1;stroke:none;stroke-width:0.36300001;stroke-miterlimit:4;stroke-dasharray:none;stroke-opacity:1" id="path6910-03-1" sodipodi:type="arc" sodipodi:cx="243.40712" sodipodi:cy="113.47215" sodipodi:rx="3.5546854" sodipodi:ry="3.7417734" sodipodi:start="0" sodipodi:end="6.1718682" sodipodi:open="true" d="m 246.96181,113.47215 a 3.5546854,3.7417734 0 0 1 -3.45578,3.74033 3.5546854,3.7417734 0 0 1 -3.64809,-3.53217 3.5546854,3.7417734 0 0 1 3.25275,-3.9369 3.5546854,3.7417734 0 0 1 3.82911,3.31308"/>
    <svg:path style="opacity:1;fill:#000000;fill-opacity:1;stroke:none;stroke-width:0.36300001;stroke-miterlimit:4;stroke-dasharray:none;stroke-opacity:1" id="path6910-01-2" sodipodi:type="arc" sodipodi:cx="246.96179" sodipodi:cy="108.60785" sodipodi:rx="3.5546854" sodipodi:ry="3.7417734" sodipodi:start="0" sodipodi:end="6.1718682" sodipodi:open="true" d="m 250.51648,108.60785 a 3.5546854,3.7417734 0 0 1 -3.45578,3.74032 3.5546854,3.7417734 0 0 1 -3.64809,-3.53217 3.5546854,3.7417734 0 0 1 3.25275,-3.93689 3.5546854,3.7417734 0 0 1 3.82912,3.31308"/>
    <svg:path style="opacity:1;fill:#000000;fill-opacity:1;stroke:none;stroke-width:0.36300001;stroke-miterlimit:4;stroke-dasharray:none;stroke-opacity:1" id="path6910-7-2" sodipodi:type="arc" sodipodi:cx="250.1423" sodipodi:cy="102.99519" sodipodi:rx="3.5546854" sodipodi:ry="3.7417734" sodipodi:start="0" sodipodi:end="6.1718682" sodipodi:open="true" d="m 253.69699,102.99519 a 3.5546854,3.7417734 0 0 1 -3.45577,3.74033 3.5546854,3.7417734 0 0 1 -3.6481,-3.53217 3.5546854,3.7417734 0 0 1 3.25276,-3.936897 3.5546854,3.7417734 0 0 1 3.82911,3.313077"/>
    <svg:path style="opacity:1;fill:#000000;fill-opacity:1;stroke:none;stroke-width:0.36300001;stroke-miterlimit:4;stroke-dasharray:none;stroke-opacity:1" id="path6910-88-0" sodipodi:type="arc" sodipodi:cx="254.07117" sodipodi:cy="99.440491" sodipodi:rx="3.5546854" sodipodi:ry="3.7417734" sodipodi:start="0" sodipodi:end="6.1718682" sodipodi:open="true" d="m 257.62585,99.440491 a 3.5546854,3.7417734 0 0 1 -3.45577,3.740329 3.5546854,3.7417734 0 0 1 -3.64809,-3.532175 3.5546854,3.7417734 0 0 1 3.25275,-3.936895 3.5546854,3.7417734 0 0 1 3.82911,3.313077"/>
    <svg:path style="opacity:1;fill:#000000;fill-opacity:1;stroke:none;stroke-width:0.36300001;stroke-miterlimit:4;stroke-dasharray:none;stroke-opacity:1" id="path6910-46-2" sodipodi:type="arc" sodipodi:cx="247.52309" sodipodi:cy="112.16254" sodipodi:rx="3.5546854" sodipodi:ry="3.7417734" sodipodi:start="0" sodipodi:end="6.1718682" sodipodi:open="true" d="m 251.07777,112.16254 a 3.5546854,3.7417734 0 0 1 -3.45577,3.74032 3.5546854,3.7417734 0 0 1 -3.64809,-3.53217 3.5546854,3.7417734 0 0 1 3.25275,-3.93689 3.5546854,3.7417734 0 0 1 3.82911,3.31307"/>
    <svg:path style="opacity:1;fill:#000000;fill-opacity:1;stroke:none;stroke-width:0.36300001;stroke-miterlimit:4;stroke-dasharray:none;stroke-opacity:1" id="path6910-10-6" sodipodi:type="arc" sodipodi:cx="259.30969" sodipodi:cy="99.440491" sodipodi:rx="3.5546854" sodipodi:ry="3.7417734" sodipodi:start="0" sodipodi:end="6.1718682" sodipodi:open="true" d="m 262.86438,99.440491 a 3.5546854,3.7417734 0 0 1 -3.45578,3.740329 3.5546854,3.7417734 0 0 1 -3.64809,-3.532175 3.5546854,3.7417734 0 0 1 3.25275,-3.936895 3.5546854,3.7417734 0 0 1 3.82912,3.313077"/>
    <svg:path style="opacity:1;fill:#000000;fill-opacity:1;stroke:none;stroke-width:0.36300001;stroke-miterlimit:4;stroke-dasharray:none;stroke-opacity:1" id="path6910-59-3" sodipodi:type="arc" sodipodi:cx="239.10406" sodipodi:cy="123.20076" sodipodi:rx="3.5546854" sodipodi:ry="3.7417734" sodipodi:start="0" sodipodi:end="6.1718682" sodipodi:open="true" d="m 242.65875,123.20076 a 3.5546854,3.7417734 0 0 1 -3.45577,3.74032 3.5546854,3.7417734 0 0 1 -3.6481,-3.53217 3.5546854,3.7417734 0 0 1 3.25276,-3.93689 3.5546854,3.7417734 0 0 1 3.82911,3.31308"/>
    <svg:path style="opacity:1;fill:#000000;fill-opacity:1;stroke:none;stroke-width:0.36300001;stroke-miterlimit:4;stroke-dasharray:none;stroke-opacity:1" id="path6910-16-2" sodipodi:type="arc" sodipodi:cx="238.35571" sodipodi:cy="116.46558" sodipodi:rx="3.5546854" sodipodi:ry="3.7417734" sodipodi:start="0" sodipodi:end="6.1718682" sodipodi:open="true" d="m 241.9104,116.46558 a 3.5546854,3.7417734 0 0 1 -3.45578,3.74033 3.5546854,3.7417734 0 0 1 -3.64809,-3.53217 3.5546854,3.7417734 0 0 1 3.25275,-3.9369 3.5546854,3.7417734 0 0 1 3.82912,3.31308"/>
    <svg:path style="opacity:1;fill:#000000;fill-opacity:1;stroke:none;stroke-width:0.36300001;stroke-miterlimit:4;stroke-dasharray:none;stroke-opacity:1" id="path6910-41-1" sodipodi:type="arc" sodipodi:cx="243.96838" sodipodi:cy="126.38127" sodipodi:rx="3.5546854" sodipodi:ry="3.7417734" sodipodi:start="0" sodipodi:end="6.1718682" sodipodi:open="true" d="m 247.52307,126.38127 a 3.5546854,3.7417734 0 0 1 -3.45577,3.74033 3.5546854,3.7417734 0 0 1 -3.6481,-3.53217 3.5546854,3.7417734 0 0 1 3.25276,-3.9369 3.5546854,3.7417734 0 0 1 3.82911,3.31308"/>
    <svg:path style="opacity:1;fill:#000000;fill-opacity:1;stroke:#000000;stroke-width:0.02101607;stroke-miterlimit:4;stroke-dasharray:none;stroke-opacity:0.96517412" id="path5824-8-9" sodipodi:type="arc" sodipodi:cx="184.52559" sodipodi:cy="158.79663" sodipodi:rx="0.97280204" sodipodi:ry="0.70553106" sodipodi:start="0" sodipodi:end="6.2831679" d="m 185.49839,158.79663 a 0.97280204,0.70553106 0 0 1 -0.9728,0.70553 0.97280204,0.70553106 0 0 1 -0.9728,-0.70552 0.97280204,0.70553106 0 0 1 0.97279,-0.70554 0.97280204,0.70553106 0 0 1 0.97281,0.70552 l -0.9728,1e-5 z"/>
    <svg:path style="opacity:1;fill:#000000;fill-opacity:1;stroke:#000000;stroke-width:0.02101607;stroke-miterlimit:4;stroke-dasharray:none;stroke-opacity:0.96517412" id="path5824-06-4-5" sodipodi:type="arc" sodipodi:cx="170.3998" sodipodi:cy="162.95314" sodipodi:rx="0.97280204" sodipodi:ry="0.70553106" sodipodi:start="0" sodipodi:end="6.2831679" d="m 171.3726,162.95314 a 0.97280204,0.70553106 0 0 1 -0.9728,0.70553 0.97280204,0.70553106 0 0 1 -0.97281,-0.70552 0.97280204,0.70553106 0 0 1 0.97279,-0.70554 0.97280204,0.70553106 0 0 1 0.97282,0.70552 l -0.9728,1e-5 z"/>
  </svg:g>
</svg>