<?xml version="1.0" encoding="UTF-8" standalone="no"?>
<!-- Created with Inkscape (http://www.inkscape.org/) -->

<svg
   xmlns:dc="http://purl.org/dc/elements/1.1/"
   xmlns:cc="http://creativecommons.org/ns#"
   xmlns:rdf="http://www.w3.org/1999/02/22-rdf-syntax-ns#"
   xmlns:svg="http://www.w3.org/2000/svg"
   xmlns="http://www.w3.org/2000/svg"
   xmlns:sodipodi="http://sodipodi.sourceforge.net/DTD/sodipodi-0.dtd"
   xmlns:inkscape="http://www.inkscape.org/namespaces/inkscape"
   width="132.00002mm"
   height="29.00001mm"
   viewBox="0 0 132.00002 29.000009"
   version="1.1"
   id="svg8"
   inkscape:version="0.92.5 (2060ec1f9f, 2020-04-08)"
   sodipodi:docname="skills.svg">
  <defs
     id="defs2" />
  <sodipodi:namedview
     id="base"
     pagecolor="#ffffff"
     bordercolor="#666666"
     borderopacity="1.0"
     inkscape:pageopacity="0.0"
     inkscape:pageshadow="2"
     inkscape:zoom="1.979899"
     inkscape:cx="191.94566"
     inkscape:cy="6.4964666"
     inkscape:document-units="mm"
     inkscape:current-layer="layer1"
     showgrid="false"
     showguides="false"
     inkscape:object-nodes="false"
     inkscape:window-width="1920"
     inkscape:window-height="1051"
     inkscape:window-x="-9"
     inkscape:window-y="-9"
     inkscape:window-maximized="1" />
  <metadata
     id="metadata5">
    <rdf:RDF>
      <cc:Work
         rdf:about="">
        <dc:format>image/svg+xml</dc:format>
        <dc:type
           rdf:resource="http://purl.org/dc/dcmitype/StillImage" />
        <dc:title></dc:title>
      </cc:Work>
    </rdf:RDF>
  </metadata>
  <g
     inkscape:label="Layer 1"
     inkscape:groupmode="layer"
     id="layer1"
     transform="translate(0,-267.99999)">
    <flowRoot
       xml:space="preserve"
       id="flowRoot52"
       style="font-style:normal;font-variant:normal;font-weight:normal;font-stretch:normal;font-size:40px;line-height:1.25;font-family:'Segoe Print';-inkscape-font-specification:'Segoe Print';letter-spacing:0px;word-spacing:0px;fill:#000000;fill-opacity:1;stroke:none"
       transform="scale(0.26458333)"><flowRegion
         id="flowRegion54"><rect
           id="rect56"
           width="422.85715"
           height="131.42857"
           x="41.42857"
           y="79.662544" /></flowRegion><flowPara
         id="flowPara58"></flowPara></flowRoot>    <flowRoot
       xml:space="preserve"
       id="flowRoot66"
       style="font-style:normal;font-variant:normal;font-weight:normal;font-stretch:normal;font-size:40px;line-height:1.25;font-family:'Segoe Print';-inkscape-font-specification:'Segoe Print';letter-spacing:0px;word-spacing:0px;fill:#000000;fill-opacity:1;stroke:none"
       transform="scale(0.26458333)"><flowRegion
         id="flowRegion68"><rect
           id="rect70"
           width="621.42859"
           height="154.28572"
           x="71.428574"
           y="222.51968" /></flowRegion><flowPara
         id="flowPara72"></flowPara></flowRoot>    <flowRoot
       xml:space="preserve"
       id="flowRoot74"
       style="font-style:normal;font-variant:normal;font-weight:normal;font-stretch:normal;font-size:40px;line-height:1.25;font-family:'Segoe Print';-inkscape-font-specification:'Segoe Print';letter-spacing:0px;word-spacing:0px;fill:#000000;fill-opacity:1;stroke:none"
       transform="scale(0.26458333)"><flowRegion
         id="flowRegion76"><rect
           id="rect78"
           width="474.28571"
           height="195.71428"
           x="112.85714"
           y="191.09111" /></flowRegion><flowPara
         id="flowPara80"></flowPara></flowRoot>    <flowRoot
       xml:space="preserve"
       id="flowRoot82"
       style="font-style:normal;font-variant:normal;font-weight:normal;font-stretch:normal;font-size:40px;line-height:1.25;font-family:'Segoe Print';-inkscape-font-specification:'Segoe Print';letter-spacing:0px;word-spacing:0px;fill:#000000;fill-opacity:1;stroke:none"
       transform="scale(0.26458333)"><flowRegion
         id="flowRegion84"><rect
           id="rect86"
           width="182.85715"
           height="327.14285"
           x="32.857143"
           y="1.091113" /></flowRegion><flowPara
         id="flowPara88"></flowPara></flowRoot>    <flowRoot
       xml:space="preserve"
       id="flowRoot90"
       style="font-style:normal;font-variant:normal;font-weight:normal;font-stretch:normal;font-size:40px;line-height:1.25;font-family:'Segoe Print';-inkscape-font-specification:'Segoe Print';letter-spacing:0px;word-spacing:0px;fill:#000000;fill-opacity:1;stroke:none"
       transform="scale(0.26458333)"><flowRegion
         id="flowRegion92"><rect
           id="rect94"
           width="212.85715"
           height="118.57143"
           x="122.85714"
           y="279.66254" /></flowRegion><flowPara
         id="flowPara96"></flowPara></flowRoot>    <flowRoot
       xml:space="preserve"
       id="flowRoot98"
       style="font-style:normal;font-variant:normal;font-weight:normal;font-stretch:normal;font-size:40px;line-height:1.25;font-family:'Segoe Print';-inkscape-font-specification:'Segoe Print';letter-spacing:0px;word-spacing:0px;fill:#000000;fill-opacity:1;stroke:none"
       transform="scale(0.26458333)"><flowRegion
         id="flowRegion100"><rect
           id="rect102"
           width="725.71429"
           height="182.85715"
           x="44.285713"
           y="116.8054" /></flowRegion><flowPara
         id="flowPara104"></flowPara></flowRoot>    <flowRoot
       xml:space="preserve"
       id="flowRoot110"
       style="font-style:normal;font-variant:normal;font-weight:normal;font-stretch:normal;font-size:40px;line-height:1.25;font-family:'Segoe Print';-inkscape-font-specification:'Segoe Print';letter-spacing:0px;word-spacing:0px;fill:#000000;fill-opacity:1;stroke:none"
       transform="scale(0.26458333)"><flowRegion
         id="flowRegion112"><rect
           id="rect114"
           width="407.14285"
           height="141.42857"
           x="51.42857"
           y="393.94824" /></flowRegion><flowPara
         id="flowPara116"></flowPara></flowRoot>    <flowRoot
       xml:space="preserve"
       id="flowRoot971"
       style="font-style:normal;font-variant:normal;font-weight:normal;font-stretch:normal;font-size:40px;line-height:1.25;font-family:'Segoe Print';-inkscape-font-specification:'Segoe Print';letter-spacing:0px;word-spacing:0px;fill:#000000;fill-opacity:1;stroke:none"
       transform="scale(0.26458333)"><flowRegion
         id="flowRegion973"><rect
           id="rect975"
           width="0.012854356"
           height="43.862236"
           x="446.41571"
           y="510.80029" /></flowRegion><flowPara
         id="flowPara977"></flowPara></flowRoot>    <flowRoot
       xml:space="preserve"
       id="flowRoot979"
       style="font-style:normal;font-variant:normal;font-weight:normal;font-stretch:normal;font-size:40px;line-height:1.25;font-family:'Segoe Print';-inkscape-font-specification:'Segoe Print';letter-spacing:0px;word-spacing:0px;fill:#000000;fill-opacity:1;stroke:none"
       transform="scale(0.26458333)"><flowRegion
         id="flowRegion981"><rect
           id="rect983"
           width="18.580521"
           height="103.79508"
           x="258.57144"
           y="503.01031" /></flowRegion><flowPara
         id="flowPara985"></flowPara></flowRoot>    <g
       id="g1020"
       transform="matrix(1.3084117,0,0,1,-51.531173,134.74851)"
       style="opacity:1;fill:#a02c2c;stroke:#969494;stroke-opacity:0.63636361" />
    <flowRoot
       transform="matrix(0.26458333,0,0,0.26458333,5.102678,266.86606)"
       style="font-style:normal;font-variant:normal;font-weight:normal;font-stretch:normal;font-size:40px;line-height:1.25;font-family:'Segoe Print';-inkscape-font-specification:'Segoe Print';letter-spacing:0px;word-spacing:0px;fill:#000000;fill-opacity:1;stroke:none"
       id="flowRoot1134"
       xml:space="preserve"><flowRegion
         id="flowRegion1136"><rect
           y="71.749199"
           x="702.14288"
           height="1318.5714"
           width="15.714286"
           id="rect1138" /></flowRegion><flowPara
         id="flowPara1140"></flowPara></flowRoot>    <g
       id="g1219"
       transform="translate(-14.566189,-1.0690781)">
      <text
         transform="scale(0.94730484,1.0556264)"
         id="text108"
         y="271.85706"
         x="15.810683"
         style="font-style:normal;font-variant:normal;font-weight:normal;font-stretch:normal;font-size:23.78277016px;line-height:1.25;font-family:Bahnschrift;-inkscape-font-specification:'Bahnschrift, Normal';font-variant-ligatures:normal;font-variant-caps:normal;font-variant-numeric:normal;font-feature-settings:normal;text-align:start;letter-spacing:0px;word-spacing:0px;writing-mode:lr-tb;text-anchor:start;fill:#e9afaf;fill-opacity:1;stroke:none;stroke-width:4.67816448"
         xml:space="preserve"><tspan
           style="stroke-width:4.67816448"
           y="271.85706"
           x="15.810683"
           id="tspan1196"
           sodipodi:role="line">SKILLS</tspan></text>
      <path
         inkscape:connector-curvature="0"
         d="m 15.559422,288.10239 c 0.997975,0.0625 2.00407,0.0403 2.995428,-0.0591 0.317274,-0.0319 0.631733,-0.0756 0.947601,-0.11337 1.422706,-0.20722 2.802231,-0.54762 4.061819,-1.04758 0.726135,-0.28822 1.108964,-0.52421 1.788312,-0.88897 1.818325,-1.05136 3.318334,-2.32109 4.714411,-3.63051 0.635258,-0.63369 1.314891,-1.2501 1.900843,-1.90622 0.02708,-0.0358 0.134928,-0.25289 0.290081,-0.11648 0.03641,0.0322 -0.04124,0.076 -0.05869,0.11473 -0.06965,0.1544 -0.06738,0.1734 -0.115466,0.343 -0.189913,0.74802 -0.372812,1.49662 -0.574479,2.24326 -0.25703,0.90479 -0.543137,1.8168 -1.108771,2.65959 -0.102643,0.15294 -0.225479,0.29918 -0.338217,0.44876 -0.58666,0.69819 -1.433734,1.24198 -2.523884,1.56064 -0.162925,0.0476 -0.340131,0.0682 -0.510198,0.10234 -0.898637,0.12184 -1.632651,-0.0394 -2.368137,-0.38404 -0.06866,-0.0301 -0.649228,-0.32835 -0.49736,-0.41339 0.08613,-0.0481 0.191463,-0.0778 0.287195,-0.1168 0.422426,0.0175 0.772202,0.21147 1.093111,0.38131 0.44814,0.263 0.900224,0.53329 1.44104,0.70591 0.132025,0.0421 0.270835,0.0736 0.406251,0.11042 0.995953,0.1904 2.052651,0.0951 3.023308,-0.12476 0.258971,-0.0586 0.508526,-0.13508 0.762786,-0.2026 1.468203,-0.4473 2.760228,-1.12336 3.922824,-1.87425 0.278877,-0.18012 0.541549,-0.37154 0.812323,-0.55733 1.114619,-0.78579 2.111399,-1.64616 2.969004,-2.5697 0.478086,-0.51482 0.720993,-0.82989 1.152476,-1.35889 0.618536,-0.86728 1.277001,-1.74516 1.61768,-2.68796 0.03915,-0.10832 0.0594,-0.21941 0.08909,-0.32912 0.0066,-0.0877 0.02521,-0.17534 0.0196,-0.26305 -0.0053,-0.0816 -0.0313,-0.23348 -0.155193,-0.29103 -0.109984,-0.0511 -0.280006,0.008 -0.355324,0.0543 -0.02559,0.0157 -0.0157,0.0455 -0.02357,0.0684 -0.08745,0.0816 -0.183611,0.15919 -0.262365,0.24481 -0.665824,0.72385 -1.023689,1.66906 -1.352834,2.48462 -0.539704,1.3877 -0.766166,2.81438 -0.908325,4.24257 -0.05775,0.92843 -0.0351,1.86447 0.178615,2.7837 0.01193,0.0371 0.05501,0.24388 0.134486,0.2971 0.01446,0.01 0.07379,-0.004 0.05801,-0.0126 -0.0369,-0.0205 -0.131369,0.002 -0.135415,-0.0303 -0.0096,-0.0753 0.07435,-0.14254 0.104627,-0.21524 0.04315,-0.10357 0.07705,-0.20884 0.115559,-0.31326 0.291192,-0.95947 0.529203,-1.924 0.903853,-2.87068 0.32787,-0.7926 0.807195,-1.56545 1.537024,-2.22738 0.112807,-0.10233 0.24053,-0.19659 0.360794,-0.29489 0.261376,-0.17646 1.080994,-0.77908 1.468089,-0.46233 0.04759,0.0389 0.06664,0.0906 0.09996,0.13588 0.0087,0.0674 0.03108,0.13468 0.02598,0.20227 -0.04506,0.59475 -0.542018,1.14253 -0.988772,1.63166 -0.557705,0.53625 -1.254371,0.99909 -2.162439,1.24281 -0.390626,0.0685 -0.635167,-0.0768 -0.770362,-0.31165 -0.05597,-0.12368 -0.150896,-0.1987 0.205821,-0.19602 0.01481,1.2e-4 0.101917,0.12245 0.136659,0.16917 0.341795,0.48417 0.77695,0.94629 1.313591,1.34185 0.135948,0.1002 0.285681,0.1913 0.42852,0.28694 0.747038,0.42249 1.661022,0.71694 2.65289,0.6851 0.202645,-0.007 0.401844,-0.0382 0.602764,-0.0573 0.567359,-0.1236 0.669162,-0.12466 1.197804,-0.32695 0.130914,-0.05 0.250332,-0.11317 0.371106,-0.17395 0.598006,-0.30098 1.136396,-0.63393 1.672989,-0.98347 0.971749,-0.63168 1.734668,-1.38275 2.45853,-2.14765 0.298293,-0.38168 0.736077,-0.75251 0.819254,-1.19377 0.10209,-0.0806 -0.0966,-0.0266 -0.07077,-0.0362 0.04549,-0.0172 0.112316,-0.0708 0.142993,-0.0422 0.03059,0.0286 -0.07258,0.0506 -0.103607,0.079 -0.106384,0.0969 -0.155458,0.17191 -0.240151,0.281 -0.379704,0.53218 -0.541591,1.11229 -0.663368,1.69322 -0.08496,0.61407 -0.06936,1.25041 0.204207,1.84432 0.04374,0.095 0.10518,0.18571 0.157769,0.27855 0.205508,0.27976 0.482373,0.56235 0.975958,0.61263 0.327999,0.0335 0.475411,-0.0206 0.795784,-0.0793 0.161848,-0.05 0.328645,-0.0936 0.485542,-0.15052 0.235556,-0.0856 0.830475,-0.39243 0.951994,-0.45837 0.72626,-0.3942 1.356379,-0.84368 1.988772,-1.30477 1.161393,-0.90408 2.277757,-1.84073 3.223529,-2.8569 0.183312,-0.19696 0.352798,-0.39974 0.5292,-0.59962 0.800084,-0.95367 1.445797,-1.96283 1.921463,-3.01183 0.04765,-0.10514 0.36393,-0.87979 0.0955,-0.9443 -0.04244,-0.0103 -0.08852,0.0112 -0.132766,0.0168 -0.78454,0.50054 -1.276444,1.18641 -1.747741,1.84312 -0.815631,1.2175 -1.279513,2.51708 -1.596587,3.83214 -0.146558,0.8731 -0.274653,1.79348 0.144136,2.64459 0.06112,0.12421 0.15338,0.24026 0.230071,0.36038 0.100323,0.0945 0.182642,0.19903 0.300991,0.28316 0.349615,0.24853 0.816158,0.35648 1.315019,0.32475 0.49551,-0.0315 0.737706,-0.12608 1.203082,-0.25245 0.226556,-0.0868 0.460316,-0.16531 0.679667,-0.26029 0.178029,-0.0771 0.342799,-0.16763 0.510332,-0.25496 1.06854,-0.557 2.032104,-1.17992 2.974109,-1.83287 0.919345,-0.66208 1.754979,-1.3826 2.424923,-2.17326 0.387609,-0.45745 0.522364,-0.68072 0.848498,-1.15667 0.549828,-0.85818 1.001145,-1.74672 1.127469,-2.68277 -0.0024,-0.0771 0.006,-0.15471 -0.0069,-0.23133 -0.01193,-0.0709 -0.05321,-0.20905 -0.1555,-0.26211 -0.0851,-0.0441 -0.222801,-0.0188 -0.29245,0.0245 -0.01791,0.0111 0.0049,0.0328 0.0075,0.0491 -0.885244,0.81243 -1.378066,1.78737 -1.846573,2.73734 -0.469745,1.02595 -0.771951,2.09008 -0.853038,3.16446 -0.01443,0.19128 -0.01297,0.38295 -0.01935,0.57442 0.05042,0.69948 0.104486,1.49659 0.782302,2.07088 0.09388,0.0796 0.216173,0.14139 0.324261,0.21207 0.125044,0.0419 0.241385,0.099 0.375124,0.1257 0.845487,0.16849 1.812462,-0.26141 2.465245,-0.5734 1.413549,-0.70259 2.650413,-1.55185 3.861295,-2.40802 0.875718,-0.63378 1.74678,-1.27049 2.630753,-1.89894 0.408066,-0.24898 0.78295,-0.55826 1.327992,-0.67188 0.04322,-0.009 0.0894,0.009 0.13409,0.0138 0.03464,0.0195 0.07585,0.0342 0.103944,0.058 0.224296,0.19009 0.240138,0.59224 0.271152,0.82106 0.02996,0.64459 -0.02921,1.2877 -0.179506,1.92395 -0.142265,0.43151 -0.301579,0.87333 -0.665311,1.24739 -0.208103,0.21401 -0.314077,0.26297 -0.586075,0.44025 -0.513486,0.27866 -1.097143,0.5211 -1.7509,0.60448 -0.335435,0.0427 -0.455731,0.0308 -0.791184,0.0279 -0.602452,-0.0294 -1.170389,-0.1667 -1.689813,-0.37163 -0.08949,-0.051 -0.258272,-0.0796 -0.318044,-0.15688 -0.006,-0.008 -0.0086,-0.0227 0.0031,-0.0268 0.306045,-0.10667 0.230045,-0.0993 0.461167,-0.0544 0.749309,0.21964 1.511288,0.41298 2.289709,0.57886 1.303103,0.25282 2.657151,0.31091 3.999433,0.19107 0.317636,-0.0285 0.631655,-0.0731 0.947481,-0.10968 1.373843,-0.20919 2.675168,-0.58914 3.893991,-1.06492 0.535784,-0.20914 1.031701,-0.45626 1.538376,-0.69568 0.842474,-0.41422 1.601743,-0.89648 2.324174,-1.40297 0,0 0.228625,-0.0648 0.228625,-0.0648 v 0 c -0.724248,0.50842 -1.4865,0.99177 -2.330577,1.4082 -0.278738,0.13199 -0.551116,0.27045 -0.836215,0.39597 -1.545005,0.68026 -3.20443,1.24986 -5.010195,1.52258 -0.316468,0.0363 -0.631134,0.081 -0.949406,0.10907 -1.346192,0.11892 -2.70395,0.0592 -4.01073,-0.19361 -0.780472,-0.16547 -1.543619,-0.35946 -2.297634,-0.57437 -0.213492,-0.0374 -0.178101,-3.4e-4 -0.01112,-0.12 0.0053,-0.004 -0.02115,0.005 -0.01786,0.01 0.01102,0.0157 0.03218,0.0273 0.05166,0.0384 0.07364,0.042 0.180544,0.0825 0.259673,0.11518 0.516321,0.20322 1.080157,0.33912 1.679133,0.36578 0.836502,0.004 1.452822,-0.0965 2.104316,-0.46582 0.271046,-0.1741 0.380637,-0.22469 0.58889,-0.43548 0.3671,-0.37157 0.528091,-0.81218 0.671148,-1.24261 0.15098,-0.63449 0.208733,-1.27581 0.178359,-1.91869 -0.03018,-0.21923 -0.0462,-0.62621 -0.265019,-0.80719 -0.02561,-0.0213 -0.06398,-0.0335 -0.09596,-0.05 -0.04224,-0.003 -0.100897,0.0152 -0.126695,-0.008 -0.01941,-0.0173 0.09202,-0.0565 0.06164,-0.0498 -0.313744,0.0687 -0.686621,0.42355 -0.954291,0.54825 -0.887023,0.62874 -1.760362,1.26626 -2.638014,1.90105 -1.210677,0.85628 -2.447253,1.70546 -3.857472,2.41092 -0.758607,0.33105 -1.918085,0.93427 -2.904057,0.72868 -0.135225,-0.0282 -0.252444,-0.087 -0.378663,-0.13038 -0.108778,-0.072 -0.23178,-0.13524 -0.326326,-0.21605 -0.677541,-0.5791 -0.733349,-1.37829 -0.782473,-2.08199 0.0067,-0.19189 0.0055,-0.38398 0.01997,-0.57566 0.08165,-1.07553 0.382598,-2.14097 0.851405,-3.16839 0.466294,-0.95016 0.957918,-1.92207 1.828012,-2.74083 0.06479,-0.0336 0.399037,-0.25816 0.605007,-0.26151 0.345292,-0.005 0.300094,0.41101 0.303767,0.53881 -0.129616,0.93888 -0.582586,1.83015 -1.133923,2.69124 -0.324945,0.47507 -0.462061,0.70199 -0.848052,1.15869 -0.669287,0.79194 -1.504791,1.51373 -2.424197,2.17695 -1.376142,0.95561 -2.810377,1.89953 -4.577963,2.51418 -0.468908,0.12537 -0.713367,0.2201 -1.212515,0.24842 -0.50496,0.0288 -0.976065,-0.0856 -1.3272,-0.33773 -0.118927,-0.0854 -0.201624,-0.19122 -0.302439,-0.28682 -0.07687,-0.12111 -0.169355,-0.23815 -0.230636,-0.36333 -0.418159,-0.85414 -0.289961,-1.77702 -0.142282,-2.65287 0.317139,-1.31584 0.779571,-2.61644 1.591638,-3.83585 0.33861,-0.47519 0.669476,-0.94147 1.127182,-1.37021 0.111225,-0.10419 0.427097,-0.37966 0.608266,-0.47121 0.136525,-0.0689 0.2937,-0.11656 0.440552,-0.17485 0.04921,-5.3e-4 0.103088,-0.0161 0.147641,-0.002 0.286063,0.0916 -0.04336,0.83595 -0.09319,0.96196 -0.47946,1.05082 -1.127263,2.06218 -1.928301,3.01836 -0.176488,0.20016 -0.346088,0.40325 -0.529467,0.6005 -0.945028,1.01666 -2.06056,1.95376 -3.220445,2.85889 -1.119087,0.81881 -2.302122,1.64475 -3.84706,2.08103 -0.327997,0.0571 -0.472593,0.10989 -0.806391,0.0722 -0.498274,-0.0562 -0.778202,-0.34192 -0.985618,-0.62637 -0.0527,-0.0937 -0.114236,-0.18509 -0.158084,-0.28079 -0.273144,-0.59605 -0.29115,-1.23422 -0.207751,-1.85053 0.119517,-0.58173 0.278986,-1.16244 0.654026,-1.69669 0.180884,-0.23841 0.263931,-0.37527 0.645585,-0.49294 0.07254,-0.0225 0.08016,0.0403 0.09086,0.0618 -0.07999,0.44529 -0.52116,0.81909 -0.82262,1.20341 -0.725968,0.76572 -1.488228,1.51901 -2.460501,2.1525 -1.064387,0.69577 -2.202527,1.3909 -3.666851,1.64907 -0.201988,0.0184 -0.402369,0.0491 -0.605971,0.0549 -0.996546,0.0282 -1.913252,-0.27003 -2.662538,-0.69547 -0.143401,-0.096 -0.293663,-0.18759 -0.430201,-0.28817 -0.538104,-0.39647 -0.973985,-0.85938 -1.324406,-1.34202 -0.02632,-0.0347 -0.05084,-0.07 -0.07897,-0.10411 -0.01716,-0.0209 -0.07403,-0.0394 -0.05677,-0.0601 0.205554,-0.24709 0.195922,-0.0739 0.243164,0.0183 0.130338,0.22982 0.368136,0.3618 0.74559,0.28964 0.03239,-0.009 0.251841,-0.0628 0.326123,-0.0977 0.55408,-0.25995 1.020672,-0.59501 1.408048,-0.96904 0.446722,-0.48659 0.938466,-1.02797 0.989504,-1.61969 0.0056,-0.0653 -0.01523,-0.13059 -0.02283,-0.19588 -0.03126,-0.0426 -0.04847,-0.0918 -0.09377,-0.12808 -0.341966,-0.27437 -0.821032,0.17257 -1.021722,0.30153 -0.12114,0.0979 -0.249831,0.1918 -0.363404,0.29389 -0.733548,0.6593 -1.214803,1.4315 -1.543571,2.22321 -0.375349,0.94547 -0.613114,1.90886 -0.897521,2.86822 -0.0044,0.0126 -0.158683,0.47458 -0.212133,0.5301 -0.164187,0.17049 -0.356136,0.31802 -0.452161,0.0988 -0.02865,-0.0654 -0.04158,-0.13357 -0.06239,-0.20037 -0.207632,-0.92216 -0.229397,-1.86034 -0.169616,-2.79105 0.143671,-1.42883 0.369655,-2.8563 0.905636,-4.24531 0.374249,-0.93436 0.750079,-1.93937 1.596631,-2.73387 0.07735,-0.0409 0.458949,-0.28559 0.674299,-0.30529 0.40921,-0.0376 0.316346,0.46863 0.300803,0.59593 -0.03017,0.11052 -0.05078,0.22246 -0.09051,0.33159 -0.344021,0.94492 -1.006525,1.82459 -1.625927,2.6945 -0.430705,0.52798 -0.676732,0.8466 -1.153355,1.36056 -0.856922,0.92411 -1.852133,1.78565 -2.966088,2.57223 -0.270362,0.18602 -0.532607,0.37768 -0.81108,0.55805 -1.278567,0.82812 -2.718692,1.54498 -4.333215,2.03743 -0.255176,0.0672 -0.505668,0.14347 -0.765529,0.20181 -0.97645,0.21931 -2.038445,0.31297 -3.03846,0.11875 -0.136218,-0.0374 -0.275829,-0.0692 -0.408654,-0.11184 -0.541679,-0.17372 -0.994782,-0.4446 -1.445464,-0.70718 -0.311176,-0.16331 -0.66608,-0.36681 -1.080019,-0.36331 0.05037,-0.0233 0.09318,-0.0571 0.151138,-0.0696 0.02179,-0.005 -0.02908,0.0275 -0.02717,0.0428 0.0029,0.0231 0.02188,0.0441 0.04021,0.0634 0.11488,0.12109 0.300869,0.2027 0.463755,0.28925 0.731377,0.34269 1.459026,0.49817 2.351156,0.37343 0.231839,-0.0475 0.584115,-0.10443 0.809787,-0.19611 0.767802,-0.31189 1.356074,-0.7718 1.803096,-1.29416 0.113311,-0.14921 0.236797,-0.29503 0.339914,-0.44766 0.56829,-0.84105 0.855439,-1.75217 1.110429,-2.65632 0.199931,-0.74549 0.379828,-1.49299 0.564933,-2.24022 0.0226,-0.0832 0.08115,-0.3888 0.169139,-0.45899 0.07715,-0.0615 0.181028,-0.10505 0.277168,-0.15257 0.05575,-0.0276 -0.35729,0.27922 -0.09865,0.1237 -0.591678,0.65786 -1.276277,1.27598 -1.915533,1.9121 -1.398526,1.31017 -2.89937,2.58152 -4.716758,3.63594 -0.32531,0.17538 -0.636601,0.36357 -0.975931,0.52613 -1.590294,0.76191 -3.3801,1.2979 -5.282815,1.56809 -0.316729,0.0378 -0.632053,0.0816 -0.950192,0.1135 -0.997013,0.0999 -2.008587,0.1216 -3.012528,0.0625 0,0 0.2114,-0.10197 0.2114,-0.10197 z"
         id="path1214"
         style="opacity:1;fill:#e9afaf;fill-opacity:1;fill-rule:nonzero;stroke:#969494;stroke-width:0.24264412;stroke-linecap:butt;stroke-miterlimit:4;stroke-dasharray:none;stroke-dashoffset:0;stroke-opacity:0.63636361" />
    </g>
  </g>
</svg>
